G04 #@! TF.GenerationSoftware,KiCad,Pcbnew,5.1.5+dfsg1-2build2*
G04 #@! TF.CreationDate,2021-06-12T17:40:18+01:00*
G04 #@! TF.ProjectId,picoprobe_pcb,7069636f-7072-46f6-9265-5f7063622e6b,rev?*
G04 #@! TF.SameCoordinates,Original*
G04 #@! TF.FileFunction,Legend,Top*
G04 #@! TF.FilePolarity,Positive*
%FSLAX46Y46*%
G04 Gerber Fmt 4.6, Leading zero omitted, Abs format (unit mm)*
G04 Created by KiCad (PCBNEW 5.1.5+dfsg1-2build2) date 2021-06-12 17:40:18*
%MOMM*%
%LPD*%
G04 APERTURE LIST*
%ADD10C,0.150000*%
%ADD11C,0.120000*%
G04 APERTURE END LIST*
D10*
X-31352285Y-48142380D02*
X-31352285Y-47142380D01*
X-30971333Y-47142380D01*
X-30876095Y-47190000D01*
X-30828476Y-47237619D01*
X-30780857Y-47332857D01*
X-30780857Y-47475714D01*
X-30828476Y-47570952D01*
X-30876095Y-47618571D01*
X-30971333Y-47666190D01*
X-31352285Y-47666190D01*
X-30352285Y-48142380D02*
X-30352285Y-47475714D01*
X-30352285Y-47142380D02*
X-30399904Y-47190000D01*
X-30352285Y-47237619D01*
X-30304666Y-47190000D01*
X-30352285Y-47142380D01*
X-30352285Y-47237619D01*
X-29447523Y-48094761D02*
X-29542761Y-48142380D01*
X-29733238Y-48142380D01*
X-29828476Y-48094761D01*
X-29876095Y-48047142D01*
X-29923714Y-47951904D01*
X-29923714Y-47666190D01*
X-29876095Y-47570952D01*
X-29828476Y-47523333D01*
X-29733238Y-47475714D01*
X-29542761Y-47475714D01*
X-29447523Y-47523333D01*
X-28876095Y-48142380D02*
X-28971333Y-48094761D01*
X-29018952Y-48047142D01*
X-29066571Y-47951904D01*
X-29066571Y-47666190D01*
X-29018952Y-47570952D01*
X-28971333Y-47523333D01*
X-28876095Y-47475714D01*
X-28733238Y-47475714D01*
X-28638000Y-47523333D01*
X-28590380Y-47570952D01*
X-28542761Y-47666190D01*
X-28542761Y-47951904D01*
X-28590380Y-48047142D01*
X-28638000Y-48094761D01*
X-28733238Y-48142380D01*
X-28876095Y-48142380D01*
X-28114190Y-48142380D02*
X-28114190Y-47142380D01*
X-27733238Y-47142380D01*
X-27638000Y-47190000D01*
X-27590380Y-47237619D01*
X-27542761Y-47332857D01*
X-27542761Y-47475714D01*
X-27590380Y-47570952D01*
X-27638000Y-47618571D01*
X-27733238Y-47666190D01*
X-28114190Y-47666190D01*
X-27114190Y-48142380D02*
X-27114190Y-47475714D01*
X-27114190Y-47666190D02*
X-27066571Y-47570952D01*
X-27018952Y-47523333D01*
X-26923714Y-47475714D01*
X-26828476Y-47475714D01*
X-26352285Y-48142380D02*
X-26447523Y-48094761D01*
X-26495142Y-48047142D01*
X-26542761Y-47951904D01*
X-26542761Y-47666190D01*
X-26495142Y-47570952D01*
X-26447523Y-47523333D01*
X-26352285Y-47475714D01*
X-26209428Y-47475714D01*
X-26114190Y-47523333D01*
X-26066571Y-47570952D01*
X-26018952Y-47666190D01*
X-26018952Y-47951904D01*
X-26066571Y-48047142D01*
X-26114190Y-48094761D01*
X-26209428Y-48142380D01*
X-26352285Y-48142380D01*
X-25590380Y-48142380D02*
X-25590380Y-47142380D01*
X-25590380Y-47523333D02*
X-25495142Y-47475714D01*
X-25304666Y-47475714D01*
X-25209428Y-47523333D01*
X-25161809Y-47570952D01*
X-25114190Y-47666190D01*
X-25114190Y-47951904D01*
X-25161809Y-48047142D01*
X-25209428Y-48094761D01*
X-25304666Y-48142380D01*
X-25495142Y-48142380D01*
X-25590380Y-48094761D01*
X-24304666Y-48094761D02*
X-24399904Y-48142380D01*
X-24590380Y-48142380D01*
X-24685619Y-48094761D01*
X-24733238Y-47999523D01*
X-24733238Y-47618571D01*
X-24685619Y-47523333D01*
X-24590380Y-47475714D01*
X-24399904Y-47475714D01*
X-24304666Y-47523333D01*
X-24257047Y-47618571D01*
X-24257047Y-47713809D01*
X-24733238Y-47809047D01*
X-23114190Y-47856666D02*
X-22638000Y-47856666D01*
X-23209428Y-48142380D02*
X-22876095Y-47142380D01*
X-22542761Y-48142380D01*
X-21780857Y-48142380D02*
X-21780857Y-47142380D01*
X-21780857Y-48094761D02*
X-21876095Y-48142380D01*
X-22066571Y-48142380D01*
X-22161809Y-48094761D01*
X-22209428Y-48047142D01*
X-22257047Y-47951904D01*
X-22257047Y-47666190D01*
X-22209428Y-47570952D01*
X-22161809Y-47523333D01*
X-22066571Y-47475714D01*
X-21876095Y-47475714D01*
X-21780857Y-47523333D01*
X-20876095Y-48142380D02*
X-20876095Y-47618571D01*
X-20923714Y-47523333D01*
X-21018952Y-47475714D01*
X-21209428Y-47475714D01*
X-21304666Y-47523333D01*
X-20876095Y-48094761D02*
X-20971333Y-48142380D01*
X-21209428Y-48142380D01*
X-21304666Y-48094761D01*
X-21352285Y-47999523D01*
X-21352285Y-47904285D01*
X-21304666Y-47809047D01*
X-21209428Y-47761428D01*
X-20971333Y-47761428D01*
X-20876095Y-47713809D01*
X-20399904Y-47475714D02*
X-20399904Y-48475714D01*
X-20399904Y-47523333D02*
X-20304666Y-47475714D01*
X-20114190Y-47475714D01*
X-20018952Y-47523333D01*
X-19971333Y-47570952D01*
X-19923714Y-47666190D01*
X-19923714Y-47951904D01*
X-19971333Y-48047142D01*
X-20018952Y-48094761D01*
X-20114190Y-48142380D01*
X-20304666Y-48142380D01*
X-20399904Y-48094761D01*
X-19638000Y-47475714D02*
X-19257047Y-47475714D01*
X-19495142Y-47142380D02*
X-19495142Y-47999523D01*
X-19447523Y-48094761D01*
X-19352285Y-48142380D01*
X-19257047Y-48142380D01*
X-18542761Y-48094761D02*
X-18638000Y-48142380D01*
X-18828476Y-48142380D01*
X-18923714Y-48094761D01*
X-18971333Y-47999523D01*
X-18971333Y-47618571D01*
X-18923714Y-47523333D01*
X-18828476Y-47475714D01*
X-18638000Y-47475714D01*
X-18542761Y-47523333D01*
X-18495142Y-47618571D01*
X-18495142Y-47713809D01*
X-18971333Y-47809047D01*
X-18066571Y-48142380D02*
X-18066571Y-47475714D01*
X-18066571Y-47666190D02*
X-18018952Y-47570952D01*
X-17971333Y-47523333D01*
X-17876095Y-47475714D01*
X-17780857Y-47475714D01*
X-26161809Y-48792380D02*
X-25828476Y-49792380D01*
X-25495142Y-48792380D01*
X-24638000Y-49792380D02*
X-25209428Y-49792380D01*
X-24923714Y-49792380D02*
X-24923714Y-48792380D01*
X-25018952Y-48935238D01*
X-25114190Y-49030476D01*
X-25209428Y-49078095D01*
X-24209428Y-49697142D02*
X-24161809Y-49744761D01*
X-24209428Y-49792380D01*
X-24257047Y-49744761D01*
X-24209428Y-49697142D01*
X-24209428Y-49792380D01*
X-23542761Y-48792380D02*
X-23447523Y-48792380D01*
X-23352285Y-48840000D01*
X-23304666Y-48887619D01*
X-23257047Y-48982857D01*
X-23209428Y-49173333D01*
X-23209428Y-49411428D01*
X-23257047Y-49601904D01*
X-23304666Y-49697142D01*
X-23352285Y-49744761D01*
X-23447523Y-49792380D01*
X-23542761Y-49792380D01*
X-23638000Y-49744761D01*
X-23685619Y-49697142D01*
X-23733238Y-49601904D01*
X-23780857Y-49411428D01*
X-23780857Y-49173333D01*
X-23733238Y-48982857D01*
X-23685619Y-48887619D01*
X-23638000Y-48840000D01*
X-23542761Y-48792380D01*
X-32233238Y-51442380D02*
X-32233238Y-50775714D01*
X-32233238Y-50870952D02*
X-32185619Y-50823333D01*
X-32090380Y-50775714D01*
X-31947523Y-50775714D01*
X-31852285Y-50823333D01*
X-31804666Y-50918571D01*
X-31804666Y-51442380D01*
X-31804666Y-50918571D02*
X-31757047Y-50823333D01*
X-31661809Y-50775714D01*
X-31518952Y-50775714D01*
X-31423714Y-50823333D01*
X-31376095Y-50918571D01*
X-31376095Y-51442380D01*
X-30518952Y-51394761D02*
X-30614190Y-51442380D01*
X-30804666Y-51442380D01*
X-30899904Y-51394761D01*
X-30947523Y-51299523D01*
X-30947523Y-50918571D01*
X-30899904Y-50823333D01*
X-30804666Y-50775714D01*
X-30614190Y-50775714D01*
X-30518952Y-50823333D01*
X-30471333Y-50918571D01*
X-30471333Y-51013809D01*
X-30947523Y-51109047D01*
X-30042761Y-50775714D02*
X-30042761Y-51442380D01*
X-30042761Y-50870952D02*
X-29995142Y-50823333D01*
X-29899904Y-50775714D01*
X-29757047Y-50775714D01*
X-29661809Y-50823333D01*
X-29614190Y-50918571D01*
X-29614190Y-51442380D01*
X-28709428Y-51442380D02*
X-28709428Y-50918571D01*
X-28757047Y-50823333D01*
X-28852285Y-50775714D01*
X-29042761Y-50775714D01*
X-29138000Y-50823333D01*
X-28709428Y-51394761D02*
X-28804666Y-51442380D01*
X-29042761Y-51442380D01*
X-29138000Y-51394761D01*
X-29185619Y-51299523D01*
X-29185619Y-51204285D01*
X-29138000Y-51109047D01*
X-29042761Y-51061428D01*
X-28804666Y-51061428D01*
X-28709428Y-51013809D01*
X-27804666Y-51442380D02*
X-27804666Y-50442380D01*
X-27804666Y-51394761D02*
X-27899904Y-51442380D01*
X-28090380Y-51442380D01*
X-28185619Y-51394761D01*
X-28233238Y-51347142D01*
X-28280857Y-51251904D01*
X-28280857Y-50966190D01*
X-28233238Y-50870952D01*
X-28185619Y-50823333D01*
X-28090380Y-50775714D01*
X-27899904Y-50775714D01*
X-27804666Y-50823333D01*
X-26899904Y-50775714D02*
X-26899904Y-51442380D01*
X-27328476Y-50775714D02*
X-27328476Y-51299523D01*
X-27280857Y-51394761D01*
X-27185619Y-51442380D01*
X-27042761Y-51442380D01*
X-26947523Y-51394761D01*
X-26899904Y-51347142D01*
X-26042761Y-51394761D02*
X-26138000Y-51442380D01*
X-26328476Y-51442380D01*
X-26423714Y-51394761D01*
X-26471333Y-51299523D01*
X-26471333Y-50918571D01*
X-26423714Y-50823333D01*
X-26328476Y-50775714D01*
X-26138000Y-50775714D01*
X-26042761Y-50823333D01*
X-25995142Y-50918571D01*
X-25995142Y-51013809D01*
X-26471333Y-51109047D01*
X-24947523Y-50966190D02*
X-24995142Y-50918571D01*
X-25090380Y-50870952D01*
X-25185619Y-50870952D01*
X-25280857Y-50918571D01*
X-25328476Y-50966190D01*
X-25376095Y-51061428D01*
X-25376095Y-51156666D01*
X-25328476Y-51251904D01*
X-25280857Y-51299523D01*
X-25185619Y-51347142D01*
X-25090380Y-51347142D01*
X-24995142Y-51299523D01*
X-24947523Y-51251904D01*
X-24947523Y-50870952D02*
X-24947523Y-51251904D01*
X-24899904Y-51299523D01*
X-24852285Y-51299523D01*
X-24757047Y-51251904D01*
X-24709428Y-51156666D01*
X-24709428Y-50918571D01*
X-24804666Y-50775714D01*
X-24947523Y-50680476D01*
X-25138000Y-50632857D01*
X-25328476Y-50680476D01*
X-25471333Y-50775714D01*
X-25566571Y-50918571D01*
X-25614190Y-51109047D01*
X-25566571Y-51299523D01*
X-25471333Y-51442380D01*
X-25328476Y-51537619D01*
X-25138000Y-51585238D01*
X-24947523Y-51537619D01*
X-24804666Y-51442380D01*
X-23852285Y-50775714D02*
X-23852285Y-51585238D01*
X-23899904Y-51680476D01*
X-23947523Y-51728095D01*
X-24042761Y-51775714D01*
X-24185619Y-51775714D01*
X-24280857Y-51728095D01*
X-23852285Y-51394761D02*
X-23947523Y-51442380D01*
X-24138000Y-51442380D01*
X-24233238Y-51394761D01*
X-24280857Y-51347142D01*
X-24328476Y-51251904D01*
X-24328476Y-50966190D01*
X-24280857Y-50870952D01*
X-24233238Y-50823333D01*
X-24138000Y-50775714D01*
X-23947523Y-50775714D01*
X-23852285Y-50823333D01*
X-23376095Y-51442380D02*
X-23376095Y-50775714D01*
X-23376095Y-50870952D02*
X-23328476Y-50823333D01*
X-23233238Y-50775714D01*
X-23090380Y-50775714D01*
X-22995142Y-50823333D01*
X-22947523Y-50918571D01*
X-22947523Y-51442380D01*
X-22947523Y-50918571D02*
X-22899904Y-50823333D01*
X-22804666Y-50775714D01*
X-22661809Y-50775714D01*
X-22566571Y-50823333D01*
X-22518952Y-50918571D01*
X-22518952Y-51442380D01*
X-21614190Y-51442380D02*
X-21614190Y-50918571D01*
X-21661809Y-50823333D01*
X-21757047Y-50775714D01*
X-21947523Y-50775714D01*
X-22042761Y-50823333D01*
X-21614190Y-51394761D02*
X-21709428Y-51442380D01*
X-21947523Y-51442380D01*
X-22042761Y-51394761D01*
X-22090380Y-51299523D01*
X-22090380Y-51204285D01*
X-22042761Y-51109047D01*
X-21947523Y-51061428D01*
X-21709428Y-51061428D01*
X-21614190Y-51013809D01*
X-21138000Y-51442380D02*
X-21138000Y-50775714D01*
X-21138000Y-50442380D02*
X-21185619Y-50490000D01*
X-21138000Y-50537619D01*
X-21090380Y-50490000D01*
X-21138000Y-50442380D01*
X-21138000Y-50537619D01*
X-20518952Y-51442380D02*
X-20614190Y-51394761D01*
X-20661809Y-51299523D01*
X-20661809Y-50442380D01*
X-20138000Y-51347142D02*
X-20090380Y-51394761D01*
X-20138000Y-51442380D01*
X-20185619Y-51394761D01*
X-20138000Y-51347142D01*
X-20138000Y-51442380D01*
X-19233238Y-51394761D02*
X-19328476Y-51442380D01*
X-19518952Y-51442380D01*
X-19614190Y-51394761D01*
X-19661809Y-51347142D01*
X-19709428Y-51251904D01*
X-19709428Y-50966190D01*
X-19661809Y-50870952D01*
X-19614190Y-50823333D01*
X-19518952Y-50775714D01*
X-19328476Y-50775714D01*
X-19233238Y-50823333D01*
X-18661809Y-51442380D02*
X-18757047Y-51394761D01*
X-18804666Y-51347142D01*
X-18852285Y-51251904D01*
X-18852285Y-50966190D01*
X-18804666Y-50870952D01*
X-18757047Y-50823333D01*
X-18661809Y-50775714D01*
X-18518952Y-50775714D01*
X-18423714Y-50823333D01*
X-18376095Y-50870952D01*
X-18328476Y-50966190D01*
X-18328476Y-51251904D01*
X-18376095Y-51347142D01*
X-18423714Y-51394761D01*
X-18518952Y-51442380D01*
X-18661809Y-51442380D01*
X-17899904Y-51442380D02*
X-17899904Y-50775714D01*
X-17899904Y-50870952D02*
X-17852285Y-50823333D01*
X-17757047Y-50775714D01*
X-17614190Y-50775714D01*
X-17518952Y-50823333D01*
X-17471333Y-50918571D01*
X-17471333Y-51442380D01*
X-17471333Y-50918571D02*
X-17423714Y-50823333D01*
X-17328476Y-50775714D01*
X-17185619Y-50775714D01*
X-17090380Y-50823333D01*
X-17042761Y-50918571D01*
X-17042761Y-51442380D01*
X-28114190Y-52092380D02*
X-28114190Y-52806666D01*
X-28161809Y-52949523D01*
X-28257047Y-53044761D01*
X-28399904Y-53092380D01*
X-28495142Y-53092380D01*
X-27209428Y-52425714D02*
X-27209428Y-53092380D01*
X-27638000Y-52425714D02*
X-27638000Y-52949523D01*
X-27590380Y-53044761D01*
X-27495142Y-53092380D01*
X-27352285Y-53092380D01*
X-27257047Y-53044761D01*
X-27209428Y-52997142D01*
X-26733238Y-52425714D02*
X-26733238Y-53092380D01*
X-26733238Y-52520952D02*
X-26685619Y-52473333D01*
X-26590380Y-52425714D01*
X-26447523Y-52425714D01*
X-26352285Y-52473333D01*
X-26304666Y-52568571D01*
X-26304666Y-53092380D01*
X-25447523Y-53044761D02*
X-25542761Y-53092380D01*
X-25733238Y-53092380D01*
X-25828476Y-53044761D01*
X-25876095Y-52949523D01*
X-25876095Y-52568571D01*
X-25828476Y-52473333D01*
X-25733238Y-52425714D01*
X-25542761Y-52425714D01*
X-25447523Y-52473333D01*
X-25399904Y-52568571D01*
X-25399904Y-52663809D01*
X-25876095Y-52759047D01*
X-24257047Y-52187619D02*
X-24209428Y-52140000D01*
X-24114190Y-52092380D01*
X-23876095Y-52092380D01*
X-23780857Y-52140000D01*
X-23733238Y-52187619D01*
X-23685619Y-52282857D01*
X-23685619Y-52378095D01*
X-23733238Y-52520952D01*
X-24304666Y-53092380D01*
X-23685619Y-53092380D01*
X-23066571Y-52092380D02*
X-22971333Y-52092380D01*
X-22876095Y-52140000D01*
X-22828476Y-52187619D01*
X-22780857Y-52282857D01*
X-22733238Y-52473333D01*
X-22733238Y-52711428D01*
X-22780857Y-52901904D01*
X-22828476Y-52997142D01*
X-22876095Y-53044761D01*
X-22971333Y-53092380D01*
X-23066571Y-53092380D01*
X-23161809Y-53044761D01*
X-23209428Y-52997142D01*
X-23257047Y-52901904D01*
X-23304666Y-52711428D01*
X-23304666Y-52473333D01*
X-23257047Y-52282857D01*
X-23209428Y-52187619D01*
X-23161809Y-52140000D01*
X-23066571Y-52092380D01*
X-22352285Y-52187619D02*
X-22304666Y-52140000D01*
X-22209428Y-52092380D01*
X-21971333Y-52092380D01*
X-21876095Y-52140000D01*
X-21828476Y-52187619D01*
X-21780857Y-52282857D01*
X-21780857Y-52378095D01*
X-21828476Y-52520952D01*
X-22399904Y-53092380D01*
X-21780857Y-53092380D01*
X-20828476Y-53092380D02*
X-21399904Y-53092380D01*
X-21114190Y-53092380D02*
X-21114190Y-52092380D01*
X-21209428Y-52235238D01*
X-21304666Y-52330476D01*
X-21399904Y-52378095D01*
X-72636000Y-54355904D02*
X-72683619Y-54451142D01*
X-72683619Y-54594000D01*
X-72636000Y-54736857D01*
X-72540761Y-54832095D01*
X-72445523Y-54879714D01*
X-72255047Y-54927333D01*
X-72112190Y-54927333D01*
X-71921714Y-54879714D01*
X-71826476Y-54832095D01*
X-71731238Y-54736857D01*
X-71683619Y-54594000D01*
X-71683619Y-54498761D01*
X-71731238Y-54355904D01*
X-71778857Y-54308285D01*
X-72112190Y-54308285D01*
X-72112190Y-54498761D01*
X-71683619Y-53879714D02*
X-72683619Y-53879714D01*
X-71683619Y-53308285D01*
X-72683619Y-53308285D01*
X-71683619Y-52832095D02*
X-72683619Y-52832095D01*
X-72683619Y-52594000D01*
X-72636000Y-52451142D01*
X-72540761Y-52355904D01*
X-72445523Y-52308285D01*
X-72255047Y-52260666D01*
X-72112190Y-52260666D01*
X-71921714Y-52308285D01*
X-71826476Y-52355904D01*
X-71731238Y-52451142D01*
X-71683619Y-52594000D01*
X-71683619Y-52832095D01*
X-69969000Y-54308285D02*
X-70016619Y-54403523D01*
X-70016619Y-54546380D01*
X-69969000Y-54689238D01*
X-69873761Y-54784476D01*
X-69778523Y-54832095D01*
X-69588047Y-54879714D01*
X-69445190Y-54879714D01*
X-69254714Y-54832095D01*
X-69159476Y-54784476D01*
X-69064238Y-54689238D01*
X-69016619Y-54546380D01*
X-69016619Y-54451142D01*
X-69064238Y-54308285D01*
X-69111857Y-54260666D01*
X-69445190Y-54260666D01*
X-69445190Y-54451142D01*
X-69016619Y-53832095D02*
X-70016619Y-53832095D01*
X-70016619Y-53451142D01*
X-69969000Y-53355904D01*
X-69921380Y-53308285D01*
X-69826142Y-53260666D01*
X-69683285Y-53260666D01*
X-69588047Y-53308285D01*
X-69540428Y-53355904D01*
X-69492809Y-53451142D01*
X-69492809Y-53832095D01*
X-69921380Y-52879714D02*
X-69969000Y-52832095D01*
X-70016619Y-52736857D01*
X-70016619Y-52498761D01*
X-69969000Y-52403523D01*
X-69921380Y-52355904D01*
X-69826142Y-52308285D01*
X-69730904Y-52308285D01*
X-69588047Y-52355904D01*
X-69016619Y-52927333D01*
X-69016619Y-52308285D01*
X-67429000Y-54181285D02*
X-67476619Y-54276523D01*
X-67476619Y-54419380D01*
X-67429000Y-54562238D01*
X-67333761Y-54657476D01*
X-67238523Y-54705095D01*
X-67048047Y-54752714D01*
X-66905190Y-54752714D01*
X-66714714Y-54705095D01*
X-66619476Y-54657476D01*
X-66524238Y-54562238D01*
X-66476619Y-54419380D01*
X-66476619Y-54324142D01*
X-66524238Y-54181285D01*
X-66571857Y-54133666D01*
X-66905190Y-54133666D01*
X-66905190Y-54324142D01*
X-66476619Y-53705095D02*
X-67476619Y-53705095D01*
X-67476619Y-53324142D01*
X-67429000Y-53228904D01*
X-67381380Y-53181285D01*
X-67286142Y-53133666D01*
X-67143285Y-53133666D01*
X-67048047Y-53181285D01*
X-67000428Y-53228904D01*
X-66952809Y-53324142D01*
X-66952809Y-53705095D01*
X-67476619Y-52800333D02*
X-67476619Y-52181285D01*
X-67095666Y-52514619D01*
X-67095666Y-52371761D01*
X-67048047Y-52276523D01*
X-67000428Y-52228904D01*
X-66905190Y-52181285D01*
X-66667095Y-52181285D01*
X-66571857Y-52228904D01*
X-66524238Y-52276523D01*
X-66476619Y-52371761D01*
X-66476619Y-52657476D01*
X-66524238Y-52752714D01*
X-66571857Y-52800333D01*
X-65016000Y-54308285D02*
X-65063619Y-54403523D01*
X-65063619Y-54546380D01*
X-65016000Y-54689238D01*
X-64920761Y-54784476D01*
X-64825523Y-54832095D01*
X-64635047Y-54879714D01*
X-64492190Y-54879714D01*
X-64301714Y-54832095D01*
X-64206476Y-54784476D01*
X-64111238Y-54689238D01*
X-64063619Y-54546380D01*
X-64063619Y-54451142D01*
X-64111238Y-54308285D01*
X-64158857Y-54260666D01*
X-64492190Y-54260666D01*
X-64492190Y-54451142D01*
X-64063619Y-53832095D02*
X-65063619Y-53832095D01*
X-65063619Y-53451142D01*
X-65016000Y-53355904D01*
X-64968380Y-53308285D01*
X-64873142Y-53260666D01*
X-64730285Y-53260666D01*
X-64635047Y-53308285D01*
X-64587428Y-53355904D01*
X-64539809Y-53451142D01*
X-64539809Y-53832095D01*
X-64730285Y-52403523D02*
X-64063619Y-52403523D01*
X-65111238Y-52641619D02*
X-64396952Y-52879714D01*
X-64396952Y-52260666D01*
X-62476000Y-54435285D02*
X-62523619Y-54530523D01*
X-62523619Y-54673380D01*
X-62476000Y-54816238D01*
X-62380761Y-54911476D01*
X-62285523Y-54959095D01*
X-62095047Y-55006714D01*
X-61952190Y-55006714D01*
X-61761714Y-54959095D01*
X-61666476Y-54911476D01*
X-61571238Y-54816238D01*
X-61523619Y-54673380D01*
X-61523619Y-54578142D01*
X-61571238Y-54435285D01*
X-61618857Y-54387666D01*
X-61952190Y-54387666D01*
X-61952190Y-54578142D01*
X-61523619Y-53959095D02*
X-62523619Y-53959095D01*
X-62523619Y-53578142D01*
X-62476000Y-53482904D01*
X-62428380Y-53435285D01*
X-62333142Y-53387666D01*
X-62190285Y-53387666D01*
X-62095047Y-53435285D01*
X-62047428Y-53482904D01*
X-61999809Y-53578142D01*
X-61999809Y-53959095D01*
X-62523619Y-52482904D02*
X-62523619Y-52959095D01*
X-62047428Y-53006714D01*
X-62095047Y-52959095D01*
X-62142666Y-52863857D01*
X-62142666Y-52625761D01*
X-62095047Y-52530523D01*
X-62047428Y-52482904D01*
X-61952190Y-52435285D01*
X-61714095Y-52435285D01*
X-61618857Y-52482904D01*
X-61571238Y-52530523D01*
X-61523619Y-52625761D01*
X-61523619Y-52863857D01*
X-61571238Y-52959095D01*
X-61618857Y-53006714D01*
X-59936000Y-54308285D02*
X-59983619Y-54403523D01*
X-59983619Y-54546380D01*
X-59936000Y-54689238D01*
X-59840761Y-54784476D01*
X-59745523Y-54832095D01*
X-59555047Y-54879714D01*
X-59412190Y-54879714D01*
X-59221714Y-54832095D01*
X-59126476Y-54784476D01*
X-59031238Y-54689238D01*
X-58983619Y-54546380D01*
X-58983619Y-54451142D01*
X-59031238Y-54308285D01*
X-59078857Y-54260666D01*
X-59412190Y-54260666D01*
X-59412190Y-54451142D01*
X-58983619Y-53832095D02*
X-59983619Y-53832095D01*
X-59983619Y-53451142D01*
X-59936000Y-53355904D01*
X-59888380Y-53308285D01*
X-59793142Y-53260666D01*
X-59650285Y-53260666D01*
X-59555047Y-53308285D01*
X-59507428Y-53355904D01*
X-59459809Y-53451142D01*
X-59459809Y-53832095D01*
X-59983619Y-52403523D02*
X-59983619Y-52594000D01*
X-59936000Y-52689238D01*
X-59888380Y-52736857D01*
X-59745523Y-52832095D01*
X-59555047Y-52879714D01*
X-59174095Y-52879714D01*
X-59078857Y-52832095D01*
X-59031238Y-52784476D01*
X-58983619Y-52689238D01*
X-58983619Y-52498761D01*
X-59031238Y-52403523D01*
X-59078857Y-52355904D01*
X-59174095Y-52308285D01*
X-59412190Y-52308285D01*
X-59507428Y-52355904D01*
X-59555047Y-52403523D01*
X-59602666Y-52498761D01*
X-59602666Y-52689238D01*
X-59555047Y-52784476D01*
X-59507428Y-52832095D01*
X-59412190Y-52879714D01*
X-57396000Y-54308285D02*
X-57443619Y-54403523D01*
X-57443619Y-54546380D01*
X-57396000Y-54689238D01*
X-57300761Y-54784476D01*
X-57205523Y-54832095D01*
X-57015047Y-54879714D01*
X-56872190Y-54879714D01*
X-56681714Y-54832095D01*
X-56586476Y-54784476D01*
X-56491238Y-54689238D01*
X-56443619Y-54546380D01*
X-56443619Y-54451142D01*
X-56491238Y-54308285D01*
X-56538857Y-54260666D01*
X-56872190Y-54260666D01*
X-56872190Y-54451142D01*
X-56443619Y-53832095D02*
X-57443619Y-53832095D01*
X-57443619Y-53451142D01*
X-57396000Y-53355904D01*
X-57348380Y-53308285D01*
X-57253142Y-53260666D01*
X-57110285Y-53260666D01*
X-57015047Y-53308285D01*
X-56967428Y-53355904D01*
X-56919809Y-53451142D01*
X-56919809Y-53832095D01*
X-57443619Y-52927333D02*
X-57443619Y-52260666D01*
X-56443619Y-52689238D01*
X-54856000Y-54435285D02*
X-54903619Y-54530523D01*
X-54903619Y-54673380D01*
X-54856000Y-54816238D01*
X-54760761Y-54911476D01*
X-54665523Y-54959095D01*
X-54475047Y-55006714D01*
X-54332190Y-55006714D01*
X-54141714Y-54959095D01*
X-54046476Y-54911476D01*
X-53951238Y-54816238D01*
X-53903619Y-54673380D01*
X-53903619Y-54578142D01*
X-53951238Y-54435285D01*
X-53998857Y-54387666D01*
X-54332190Y-54387666D01*
X-54332190Y-54578142D01*
X-53903619Y-53959095D02*
X-54903619Y-53959095D01*
X-54903619Y-53578142D01*
X-54856000Y-53482904D01*
X-54808380Y-53435285D01*
X-54713142Y-53387666D01*
X-54570285Y-53387666D01*
X-54475047Y-53435285D01*
X-54427428Y-53482904D01*
X-54379809Y-53578142D01*
X-54379809Y-53959095D01*
X-54475047Y-52816238D02*
X-54522666Y-52911476D01*
X-54570285Y-52959095D01*
X-54665523Y-53006714D01*
X-54713142Y-53006714D01*
X-54808380Y-52959095D01*
X-54856000Y-52911476D01*
X-54903619Y-52816238D01*
X-54903619Y-52625761D01*
X-54856000Y-52530523D01*
X-54808380Y-52482904D01*
X-54713142Y-52435285D01*
X-54665523Y-52435285D01*
X-54570285Y-52482904D01*
X-54522666Y-52530523D01*
X-54475047Y-52625761D01*
X-54475047Y-52816238D01*
X-54427428Y-52911476D01*
X-54379809Y-52959095D01*
X-54284571Y-53006714D01*
X-54094095Y-53006714D01*
X-53998857Y-52959095D01*
X-53951238Y-52911476D01*
X-53903619Y-52816238D01*
X-53903619Y-52625761D01*
X-53951238Y-52530523D01*
X-53998857Y-52482904D01*
X-54094095Y-52435285D01*
X-54284571Y-52435285D01*
X-54379809Y-52482904D01*
X-54427428Y-52530523D01*
X-54475047Y-52625761D01*
X-52316000Y-54435285D02*
X-52363619Y-54530523D01*
X-52363619Y-54673380D01*
X-52316000Y-54816238D01*
X-52220761Y-54911476D01*
X-52125523Y-54959095D01*
X-51935047Y-55006714D01*
X-51792190Y-55006714D01*
X-51601714Y-54959095D01*
X-51506476Y-54911476D01*
X-51411238Y-54816238D01*
X-51363619Y-54673380D01*
X-51363619Y-54578142D01*
X-51411238Y-54435285D01*
X-51458857Y-54387666D01*
X-51792190Y-54387666D01*
X-51792190Y-54578142D01*
X-51363619Y-53959095D02*
X-52363619Y-53959095D01*
X-52363619Y-53578142D01*
X-52316000Y-53482904D01*
X-52268380Y-53435285D01*
X-52173142Y-53387666D01*
X-52030285Y-53387666D01*
X-51935047Y-53435285D01*
X-51887428Y-53482904D01*
X-51839809Y-53578142D01*
X-51839809Y-53959095D01*
X-51363619Y-52911476D02*
X-51363619Y-52721000D01*
X-51411238Y-52625761D01*
X-51458857Y-52578142D01*
X-51601714Y-52482904D01*
X-51792190Y-52435285D01*
X-52173142Y-52435285D01*
X-52268380Y-52482904D01*
X-52316000Y-52530523D01*
X-52363619Y-52625761D01*
X-52363619Y-52816238D01*
X-52316000Y-52911476D01*
X-52268380Y-52959095D01*
X-52173142Y-53006714D01*
X-51935047Y-53006714D01*
X-51839809Y-52959095D01*
X-51792190Y-52911476D01*
X-51744571Y-52816238D01*
X-51744571Y-52625761D01*
X-51792190Y-52530523D01*
X-51839809Y-52482904D01*
X-51935047Y-52435285D01*
X-49776000Y-55038476D02*
X-49823619Y-55133714D01*
X-49823619Y-55276571D01*
X-49776000Y-55419428D01*
X-49680761Y-55514666D01*
X-49585523Y-55562285D01*
X-49395047Y-55609904D01*
X-49252190Y-55609904D01*
X-49061714Y-55562285D01*
X-48966476Y-55514666D01*
X-48871238Y-55419428D01*
X-48823619Y-55276571D01*
X-48823619Y-55181333D01*
X-48871238Y-55038476D01*
X-48918857Y-54990857D01*
X-49252190Y-54990857D01*
X-49252190Y-55181333D01*
X-48823619Y-54562285D02*
X-49823619Y-54562285D01*
X-49823619Y-54181333D01*
X-49776000Y-54086095D01*
X-49728380Y-54038476D01*
X-49633142Y-53990857D01*
X-49490285Y-53990857D01*
X-49395047Y-54038476D01*
X-49347428Y-54086095D01*
X-49299809Y-54181333D01*
X-49299809Y-54562285D01*
X-48823619Y-53038476D02*
X-48823619Y-53609904D01*
X-48823619Y-53324190D02*
X-49823619Y-53324190D01*
X-49680761Y-53419428D01*
X-49585523Y-53514666D01*
X-49537904Y-53609904D01*
X-49823619Y-52419428D02*
X-49823619Y-52324190D01*
X-49776000Y-52228952D01*
X-49728380Y-52181333D01*
X-49633142Y-52133714D01*
X-49442666Y-52086095D01*
X-49204571Y-52086095D01*
X-49014095Y-52133714D01*
X-48918857Y-52181333D01*
X-48871238Y-52228952D01*
X-48823619Y-52324190D01*
X-48823619Y-52419428D01*
X-48871238Y-52514666D01*
X-48918857Y-52562285D01*
X-49014095Y-52609904D01*
X-49204571Y-52657523D01*
X-49442666Y-52657523D01*
X-49633142Y-52609904D01*
X-49728380Y-52562285D01*
X-49776000Y-52514666D01*
X-49823619Y-52419428D01*
X-47236000Y-55038476D02*
X-47283619Y-55133714D01*
X-47283619Y-55276571D01*
X-47236000Y-55419428D01*
X-47140761Y-55514666D01*
X-47045523Y-55562285D01*
X-46855047Y-55609904D01*
X-46712190Y-55609904D01*
X-46521714Y-55562285D01*
X-46426476Y-55514666D01*
X-46331238Y-55419428D01*
X-46283619Y-55276571D01*
X-46283619Y-55181333D01*
X-46331238Y-55038476D01*
X-46378857Y-54990857D01*
X-46712190Y-54990857D01*
X-46712190Y-55181333D01*
X-46283619Y-54562285D02*
X-47283619Y-54562285D01*
X-47283619Y-54181333D01*
X-47236000Y-54086095D01*
X-47188380Y-54038476D01*
X-47093142Y-53990857D01*
X-46950285Y-53990857D01*
X-46855047Y-54038476D01*
X-46807428Y-54086095D01*
X-46759809Y-54181333D01*
X-46759809Y-54562285D01*
X-46283619Y-53038476D02*
X-46283619Y-53609904D01*
X-46283619Y-53324190D02*
X-47283619Y-53324190D01*
X-47140761Y-53419428D01*
X-47045523Y-53514666D01*
X-46997904Y-53609904D01*
X-46283619Y-52086095D02*
X-46283619Y-52657523D01*
X-46283619Y-52371809D02*
X-47283619Y-52371809D01*
X-47140761Y-52467047D01*
X-47045523Y-52562285D01*
X-46997904Y-52657523D01*
X-44696000Y-55292476D02*
X-44743619Y-55387714D01*
X-44743619Y-55530571D01*
X-44696000Y-55673428D01*
X-44600761Y-55768666D01*
X-44505523Y-55816285D01*
X-44315047Y-55863904D01*
X-44172190Y-55863904D01*
X-43981714Y-55816285D01*
X-43886476Y-55768666D01*
X-43791238Y-55673428D01*
X-43743619Y-55530571D01*
X-43743619Y-55435333D01*
X-43791238Y-55292476D01*
X-43838857Y-55244857D01*
X-44172190Y-55244857D01*
X-44172190Y-55435333D01*
X-43743619Y-54816285D02*
X-44743619Y-54816285D01*
X-44743619Y-54435333D01*
X-44696000Y-54340095D01*
X-44648380Y-54292476D01*
X-44553142Y-54244857D01*
X-44410285Y-54244857D01*
X-44315047Y-54292476D01*
X-44267428Y-54340095D01*
X-44219809Y-54435333D01*
X-44219809Y-54816285D01*
X-43743619Y-53292476D02*
X-43743619Y-53863904D01*
X-43743619Y-53578190D02*
X-44743619Y-53578190D01*
X-44600761Y-53673428D01*
X-44505523Y-53768666D01*
X-44457904Y-53863904D01*
X-44648380Y-52911523D02*
X-44696000Y-52863904D01*
X-44743619Y-52768666D01*
X-44743619Y-52530571D01*
X-44696000Y-52435333D01*
X-44648380Y-52387714D01*
X-44553142Y-52340095D01*
X-44457904Y-52340095D01*
X-44315047Y-52387714D01*
X-43743619Y-52959142D01*
X-43743619Y-52340095D01*
X-42156000Y-55038476D02*
X-42203619Y-55133714D01*
X-42203619Y-55276571D01*
X-42156000Y-55419428D01*
X-42060761Y-55514666D01*
X-41965523Y-55562285D01*
X-41775047Y-55609904D01*
X-41632190Y-55609904D01*
X-41441714Y-55562285D01*
X-41346476Y-55514666D01*
X-41251238Y-55419428D01*
X-41203619Y-55276571D01*
X-41203619Y-55181333D01*
X-41251238Y-55038476D01*
X-41298857Y-54990857D01*
X-41632190Y-54990857D01*
X-41632190Y-55181333D01*
X-41203619Y-54562285D02*
X-42203619Y-54562285D01*
X-42203619Y-54181333D01*
X-42156000Y-54086095D01*
X-42108380Y-54038476D01*
X-42013142Y-53990857D01*
X-41870285Y-53990857D01*
X-41775047Y-54038476D01*
X-41727428Y-54086095D01*
X-41679809Y-54181333D01*
X-41679809Y-54562285D01*
X-41203619Y-53038476D02*
X-41203619Y-53609904D01*
X-41203619Y-53324190D02*
X-42203619Y-53324190D01*
X-42060761Y-53419428D01*
X-41965523Y-53514666D01*
X-41917904Y-53609904D01*
X-42203619Y-52705142D02*
X-42203619Y-52086095D01*
X-41822666Y-52419428D01*
X-41822666Y-52276571D01*
X-41775047Y-52181333D01*
X-41727428Y-52133714D01*
X-41632190Y-52086095D01*
X-41394095Y-52086095D01*
X-41298857Y-52133714D01*
X-41251238Y-52181333D01*
X-41203619Y-52276571D01*
X-41203619Y-52562285D01*
X-41251238Y-52657523D01*
X-41298857Y-52705142D01*
X-39616000Y-54911476D02*
X-39663619Y-55006714D01*
X-39663619Y-55149571D01*
X-39616000Y-55292428D01*
X-39520761Y-55387666D01*
X-39425523Y-55435285D01*
X-39235047Y-55482904D01*
X-39092190Y-55482904D01*
X-38901714Y-55435285D01*
X-38806476Y-55387666D01*
X-38711238Y-55292428D01*
X-38663619Y-55149571D01*
X-38663619Y-55054333D01*
X-38711238Y-54911476D01*
X-38758857Y-54863857D01*
X-39092190Y-54863857D01*
X-39092190Y-55054333D01*
X-38663619Y-54435285D02*
X-39663619Y-54435285D01*
X-39663619Y-54054333D01*
X-39616000Y-53959095D01*
X-39568380Y-53911476D01*
X-39473142Y-53863857D01*
X-39330285Y-53863857D01*
X-39235047Y-53911476D01*
X-39187428Y-53959095D01*
X-39139809Y-54054333D01*
X-39139809Y-54435285D01*
X-38663619Y-52911476D02*
X-38663619Y-53482904D01*
X-38663619Y-53197190D02*
X-39663619Y-53197190D01*
X-39520761Y-53292428D01*
X-39425523Y-53387666D01*
X-39377904Y-53482904D01*
X-39330285Y-52054333D02*
X-38663619Y-52054333D01*
X-39711238Y-52292428D02*
X-38996952Y-52530523D01*
X-38996952Y-51911476D01*
X-36822000Y-55038476D02*
X-36869619Y-55133714D01*
X-36869619Y-55276571D01*
X-36822000Y-55419428D01*
X-36726761Y-55514666D01*
X-36631523Y-55562285D01*
X-36441047Y-55609904D01*
X-36298190Y-55609904D01*
X-36107714Y-55562285D01*
X-36012476Y-55514666D01*
X-35917238Y-55419428D01*
X-35869619Y-55276571D01*
X-35869619Y-55181333D01*
X-35917238Y-55038476D01*
X-35964857Y-54990857D01*
X-36298190Y-54990857D01*
X-36298190Y-55181333D01*
X-35869619Y-54562285D02*
X-36869619Y-54562285D01*
X-36869619Y-54181333D01*
X-36822000Y-54086095D01*
X-36774380Y-54038476D01*
X-36679142Y-53990857D01*
X-36536285Y-53990857D01*
X-36441047Y-54038476D01*
X-36393428Y-54086095D01*
X-36345809Y-54181333D01*
X-36345809Y-54562285D01*
X-35869619Y-53038476D02*
X-35869619Y-53609904D01*
X-35869619Y-53324190D02*
X-36869619Y-53324190D01*
X-36726761Y-53419428D01*
X-36631523Y-53514666D01*
X-36583904Y-53609904D01*
X-36869619Y-52133714D02*
X-36869619Y-52609904D01*
X-36393428Y-52657523D01*
X-36441047Y-52609904D01*
X-36488666Y-52514666D01*
X-36488666Y-52276571D01*
X-36441047Y-52181333D01*
X-36393428Y-52133714D01*
X-36298190Y-52086095D01*
X-36060095Y-52086095D01*
X-35964857Y-52133714D01*
X-35917238Y-52181333D01*
X-35869619Y-52276571D01*
X-35869619Y-52514666D01*
X-35917238Y-52609904D01*
X-35964857Y-52657523D01*
X-14779476Y-40648000D02*
X-14874714Y-40600380D01*
X-15017571Y-40600380D01*
X-15160428Y-40648000D01*
X-15255666Y-40743238D01*
X-15303285Y-40838476D01*
X-15350904Y-41028952D01*
X-15350904Y-41171809D01*
X-15303285Y-41362285D01*
X-15255666Y-41457523D01*
X-15160428Y-41552761D01*
X-15017571Y-41600380D01*
X-14922333Y-41600380D01*
X-14779476Y-41552761D01*
X-14731857Y-41505142D01*
X-14731857Y-41171809D01*
X-14922333Y-41171809D01*
X-14303285Y-41600380D02*
X-14303285Y-40600380D01*
X-13922333Y-40600380D01*
X-13827095Y-40648000D01*
X-13779476Y-40695619D01*
X-13731857Y-40790857D01*
X-13731857Y-40933714D01*
X-13779476Y-41028952D01*
X-13827095Y-41076571D01*
X-13922333Y-41124190D01*
X-14303285Y-41124190D01*
X-12779476Y-41600380D02*
X-13350904Y-41600380D01*
X-13065190Y-41600380D02*
X-13065190Y-40600380D01*
X-13160428Y-40743238D01*
X-13255666Y-40838476D01*
X-13350904Y-40886095D01*
X-11922333Y-40600380D02*
X-12112809Y-40600380D01*
X-12208047Y-40648000D01*
X-12255666Y-40695619D01*
X-12350904Y-40838476D01*
X-12398523Y-41028952D01*
X-12398523Y-41409904D01*
X-12350904Y-41505142D01*
X-12303285Y-41552761D01*
X-12208047Y-41600380D01*
X-12017571Y-41600380D01*
X-11922333Y-41552761D01*
X-11874714Y-41505142D01*
X-11827095Y-41409904D01*
X-11827095Y-41171809D01*
X-11874714Y-41076571D01*
X-11922333Y-41028952D01*
X-12017571Y-40981333D01*
X-12208047Y-40981333D01*
X-12303285Y-41028952D01*
X-12350904Y-41076571D01*
X-12398523Y-41171809D01*
X-14525476Y-38362000D02*
X-14620714Y-38314380D01*
X-14763571Y-38314380D01*
X-14906428Y-38362000D01*
X-15001666Y-38457238D01*
X-15049285Y-38552476D01*
X-15096904Y-38742952D01*
X-15096904Y-38885809D01*
X-15049285Y-39076285D01*
X-15001666Y-39171523D01*
X-14906428Y-39266761D01*
X-14763571Y-39314380D01*
X-14668333Y-39314380D01*
X-14525476Y-39266761D01*
X-14477857Y-39219142D01*
X-14477857Y-38885809D01*
X-14668333Y-38885809D01*
X-14049285Y-39314380D02*
X-14049285Y-38314380D01*
X-13668333Y-38314380D01*
X-13573095Y-38362000D01*
X-13525476Y-38409619D01*
X-13477857Y-38504857D01*
X-13477857Y-38647714D01*
X-13525476Y-38742952D01*
X-13573095Y-38790571D01*
X-13668333Y-38838190D01*
X-14049285Y-38838190D01*
X-12525476Y-39314380D02*
X-13096904Y-39314380D01*
X-12811190Y-39314380D02*
X-12811190Y-38314380D01*
X-12906428Y-38457238D01*
X-13001666Y-38552476D01*
X-13096904Y-38600095D01*
X-12192142Y-38314380D02*
X-11525476Y-38314380D01*
X-11954047Y-39314380D01*
X-14731904Y-35822000D02*
X-14827142Y-35774380D01*
X-14970000Y-35774380D01*
X-15112857Y-35822000D01*
X-15208095Y-35917238D01*
X-15255714Y-36012476D01*
X-15303333Y-36202952D01*
X-15303333Y-36345809D01*
X-15255714Y-36536285D01*
X-15208095Y-36631523D01*
X-15112857Y-36726761D01*
X-14970000Y-36774380D01*
X-14874761Y-36774380D01*
X-14731904Y-36726761D01*
X-14684285Y-36679142D01*
X-14684285Y-36345809D01*
X-14874761Y-36345809D01*
X-14255714Y-36774380D02*
X-14255714Y-35774380D01*
X-13684285Y-36774380D01*
X-13684285Y-35774380D01*
X-13208095Y-36774380D02*
X-13208095Y-35774380D01*
X-12970000Y-35774380D01*
X-12827142Y-35822000D01*
X-12731904Y-35917238D01*
X-12684285Y-36012476D01*
X-12636666Y-36202952D01*
X-12636666Y-36345809D01*
X-12684285Y-36536285D01*
X-12731904Y-36631523D01*
X-12827142Y-36726761D01*
X-12970000Y-36774380D01*
X-13208095Y-36774380D01*
X-14779476Y-33155000D02*
X-14874714Y-33107380D01*
X-15017571Y-33107380D01*
X-15160428Y-33155000D01*
X-15255666Y-33250238D01*
X-15303285Y-33345476D01*
X-15350904Y-33535952D01*
X-15350904Y-33678809D01*
X-15303285Y-33869285D01*
X-15255666Y-33964523D01*
X-15160428Y-34059761D01*
X-15017571Y-34107380D01*
X-14922333Y-34107380D01*
X-14779476Y-34059761D01*
X-14731857Y-34012142D01*
X-14731857Y-33678809D01*
X-14922333Y-33678809D01*
X-14303285Y-34107380D02*
X-14303285Y-33107380D01*
X-13922333Y-33107380D01*
X-13827095Y-33155000D01*
X-13779476Y-33202619D01*
X-13731857Y-33297857D01*
X-13731857Y-33440714D01*
X-13779476Y-33535952D01*
X-13827095Y-33583571D01*
X-13922333Y-33631190D01*
X-14303285Y-33631190D01*
X-12779476Y-34107380D02*
X-13350904Y-34107380D01*
X-13065190Y-34107380D02*
X-13065190Y-33107380D01*
X-13160428Y-33250238D01*
X-13255666Y-33345476D01*
X-13350904Y-33393095D01*
X-12208047Y-33535952D02*
X-12303285Y-33488333D01*
X-12350904Y-33440714D01*
X-12398523Y-33345476D01*
X-12398523Y-33297857D01*
X-12350904Y-33202619D01*
X-12303285Y-33155000D01*
X-12208047Y-33107380D01*
X-12017571Y-33107380D01*
X-11922333Y-33155000D01*
X-11874714Y-33202619D01*
X-11827095Y-33297857D01*
X-11827095Y-33345476D01*
X-11874714Y-33440714D01*
X-11922333Y-33488333D01*
X-12017571Y-33535952D01*
X-12208047Y-33535952D01*
X-12303285Y-33583571D01*
X-12350904Y-33631190D01*
X-12398523Y-33726428D01*
X-12398523Y-33916904D01*
X-12350904Y-34012142D01*
X-12303285Y-34059761D01*
X-12208047Y-34107380D01*
X-12017571Y-34107380D01*
X-11922333Y-34059761D01*
X-11874714Y-34012142D01*
X-11827095Y-33916904D01*
X-11827095Y-33726428D01*
X-11874714Y-33631190D01*
X-11922333Y-33583571D01*
X-12017571Y-33535952D01*
X-14779476Y-30742000D02*
X-14874714Y-30694380D01*
X-15017571Y-30694380D01*
X-15160428Y-30742000D01*
X-15255666Y-30837238D01*
X-15303285Y-30932476D01*
X-15350904Y-31122952D01*
X-15350904Y-31265809D01*
X-15303285Y-31456285D01*
X-15255666Y-31551523D01*
X-15160428Y-31646761D01*
X-15017571Y-31694380D01*
X-14922333Y-31694380D01*
X-14779476Y-31646761D01*
X-14731857Y-31599142D01*
X-14731857Y-31265809D01*
X-14922333Y-31265809D01*
X-14303285Y-31694380D02*
X-14303285Y-30694380D01*
X-13922333Y-30694380D01*
X-13827095Y-30742000D01*
X-13779476Y-30789619D01*
X-13731857Y-30884857D01*
X-13731857Y-31027714D01*
X-13779476Y-31122952D01*
X-13827095Y-31170571D01*
X-13922333Y-31218190D01*
X-14303285Y-31218190D01*
X-12779476Y-31694380D02*
X-13350904Y-31694380D01*
X-13065190Y-31694380D02*
X-13065190Y-30694380D01*
X-13160428Y-30837238D01*
X-13255666Y-30932476D01*
X-13350904Y-30980095D01*
X-12303285Y-31694380D02*
X-12112809Y-31694380D01*
X-12017571Y-31646761D01*
X-11969952Y-31599142D01*
X-11874714Y-31456285D01*
X-11827095Y-31265809D01*
X-11827095Y-30884857D01*
X-11874714Y-30789619D01*
X-11922333Y-30742000D01*
X-12017571Y-30694380D01*
X-12208047Y-30694380D01*
X-12303285Y-30742000D01*
X-12350904Y-30789619D01*
X-12398523Y-30884857D01*
X-12398523Y-31122952D01*
X-12350904Y-31218190D01*
X-12303285Y-31265809D01*
X-12208047Y-31313428D01*
X-12017571Y-31313428D01*
X-11922333Y-31265809D01*
X-11874714Y-31218190D01*
X-11827095Y-31122952D01*
X-14779476Y-28202000D02*
X-14874714Y-28154380D01*
X-15017571Y-28154380D01*
X-15160428Y-28202000D01*
X-15255666Y-28297238D01*
X-15303285Y-28392476D01*
X-15350904Y-28582952D01*
X-15350904Y-28725809D01*
X-15303285Y-28916285D01*
X-15255666Y-29011523D01*
X-15160428Y-29106761D01*
X-15017571Y-29154380D01*
X-14922333Y-29154380D01*
X-14779476Y-29106761D01*
X-14731857Y-29059142D01*
X-14731857Y-28725809D01*
X-14922333Y-28725809D01*
X-14303285Y-29154380D02*
X-14303285Y-28154380D01*
X-13922333Y-28154380D01*
X-13827095Y-28202000D01*
X-13779476Y-28249619D01*
X-13731857Y-28344857D01*
X-13731857Y-28487714D01*
X-13779476Y-28582952D01*
X-13827095Y-28630571D01*
X-13922333Y-28678190D01*
X-14303285Y-28678190D01*
X-13350904Y-28249619D02*
X-13303285Y-28202000D01*
X-13208047Y-28154380D01*
X-12969952Y-28154380D01*
X-12874714Y-28202000D01*
X-12827095Y-28249619D01*
X-12779476Y-28344857D01*
X-12779476Y-28440095D01*
X-12827095Y-28582952D01*
X-13398523Y-29154380D01*
X-12779476Y-29154380D01*
X-12160428Y-28154380D02*
X-12065190Y-28154380D01*
X-11969952Y-28202000D01*
X-11922333Y-28249619D01*
X-11874714Y-28344857D01*
X-11827095Y-28535333D01*
X-11827095Y-28773428D01*
X-11874714Y-28963904D01*
X-11922333Y-29059142D01*
X-11969952Y-29106761D01*
X-12065190Y-29154380D01*
X-12160428Y-29154380D01*
X-12255666Y-29106761D01*
X-12303285Y-29059142D01*
X-12350904Y-28963904D01*
X-12398523Y-28773428D01*
X-12398523Y-28535333D01*
X-12350904Y-28344857D01*
X-12303285Y-28249619D01*
X-12255666Y-28202000D01*
X-12160428Y-28154380D01*
X-14652476Y-25662000D02*
X-14747714Y-25614380D01*
X-14890571Y-25614380D01*
X-15033428Y-25662000D01*
X-15128666Y-25757238D01*
X-15176285Y-25852476D01*
X-15223904Y-26042952D01*
X-15223904Y-26185809D01*
X-15176285Y-26376285D01*
X-15128666Y-26471523D01*
X-15033428Y-26566761D01*
X-14890571Y-26614380D01*
X-14795333Y-26614380D01*
X-14652476Y-26566761D01*
X-14604857Y-26519142D01*
X-14604857Y-26185809D01*
X-14795333Y-26185809D01*
X-14176285Y-26614380D02*
X-14176285Y-25614380D01*
X-13795333Y-25614380D01*
X-13700095Y-25662000D01*
X-13652476Y-25709619D01*
X-13604857Y-25804857D01*
X-13604857Y-25947714D01*
X-13652476Y-26042952D01*
X-13700095Y-26090571D01*
X-13795333Y-26138190D01*
X-14176285Y-26138190D01*
X-13223904Y-25709619D02*
X-13176285Y-25662000D01*
X-13081047Y-25614380D01*
X-12842952Y-25614380D01*
X-12747714Y-25662000D01*
X-12700095Y-25709619D01*
X-12652476Y-25804857D01*
X-12652476Y-25900095D01*
X-12700095Y-26042952D01*
X-13271523Y-26614380D01*
X-12652476Y-26614380D01*
X-11700095Y-26614380D02*
X-12271523Y-26614380D01*
X-11985809Y-26614380D02*
X-11985809Y-25614380D01*
X-12081047Y-25757238D01*
X-12176285Y-25852476D01*
X-12271523Y-25900095D01*
X-14652476Y-23249000D02*
X-14747714Y-23201380D01*
X-14890571Y-23201380D01*
X-15033428Y-23249000D01*
X-15128666Y-23344238D01*
X-15176285Y-23439476D01*
X-15223904Y-23629952D01*
X-15223904Y-23772809D01*
X-15176285Y-23963285D01*
X-15128666Y-24058523D01*
X-15033428Y-24153761D01*
X-14890571Y-24201380D01*
X-14795333Y-24201380D01*
X-14652476Y-24153761D01*
X-14604857Y-24106142D01*
X-14604857Y-23772809D01*
X-14795333Y-23772809D01*
X-14176285Y-24201380D02*
X-14176285Y-23201380D01*
X-13795333Y-23201380D01*
X-13700095Y-23249000D01*
X-13652476Y-23296619D01*
X-13604857Y-23391857D01*
X-13604857Y-23534714D01*
X-13652476Y-23629952D01*
X-13700095Y-23677571D01*
X-13795333Y-23725190D01*
X-14176285Y-23725190D01*
X-13223904Y-23296619D02*
X-13176285Y-23249000D01*
X-13081047Y-23201380D01*
X-12842952Y-23201380D01*
X-12747714Y-23249000D01*
X-12700095Y-23296619D01*
X-12652476Y-23391857D01*
X-12652476Y-23487095D01*
X-12700095Y-23629952D01*
X-13271523Y-24201380D01*
X-12652476Y-24201380D01*
X-12271523Y-23296619D02*
X-12223904Y-23249000D01*
X-12128666Y-23201380D01*
X-11890571Y-23201380D01*
X-11795333Y-23249000D01*
X-11747714Y-23296619D01*
X-11700095Y-23391857D01*
X-11700095Y-23487095D01*
X-11747714Y-23629952D01*
X-12319142Y-24201380D01*
X-11700095Y-24201380D01*
X-14779476Y-20582000D02*
X-14874714Y-20534380D01*
X-15017571Y-20534380D01*
X-15160428Y-20582000D01*
X-15255666Y-20677238D01*
X-15303285Y-20772476D01*
X-15350904Y-20962952D01*
X-15350904Y-21105809D01*
X-15303285Y-21296285D01*
X-15255666Y-21391523D01*
X-15160428Y-21486761D01*
X-15017571Y-21534380D01*
X-14922333Y-21534380D01*
X-14779476Y-21486761D01*
X-14731857Y-21439142D01*
X-14731857Y-21105809D01*
X-14922333Y-21105809D01*
X-14303285Y-21534380D02*
X-14303285Y-20534380D01*
X-13922333Y-20534380D01*
X-13827095Y-20582000D01*
X-13779476Y-20629619D01*
X-13731857Y-20724857D01*
X-13731857Y-20867714D01*
X-13779476Y-20962952D01*
X-13827095Y-21010571D01*
X-13922333Y-21058190D01*
X-14303285Y-21058190D01*
X-13350904Y-20629619D02*
X-13303285Y-20582000D01*
X-13208047Y-20534380D01*
X-12969952Y-20534380D01*
X-12874714Y-20582000D01*
X-12827095Y-20629619D01*
X-12779476Y-20724857D01*
X-12779476Y-20820095D01*
X-12827095Y-20962952D01*
X-13398523Y-21534380D01*
X-12779476Y-21534380D01*
X-11922333Y-20534380D02*
X-12112809Y-20534380D01*
X-12208047Y-20582000D01*
X-12255666Y-20629619D01*
X-12350904Y-20772476D01*
X-12398523Y-20962952D01*
X-12398523Y-21343904D01*
X-12350904Y-21439142D01*
X-12303285Y-21486761D01*
X-12208047Y-21534380D01*
X-12017571Y-21534380D01*
X-11922333Y-21486761D01*
X-11874714Y-21439142D01*
X-11827095Y-21343904D01*
X-11827095Y-21105809D01*
X-11874714Y-21010571D01*
X-11922333Y-20962952D01*
X-12017571Y-20915333D01*
X-12208047Y-20915333D01*
X-12303285Y-20962952D01*
X-12350904Y-21010571D01*
X-12398523Y-21105809D01*
X-14779476Y-18042000D02*
X-14874714Y-17994380D01*
X-15017571Y-17994380D01*
X-15160428Y-18042000D01*
X-15255666Y-18137238D01*
X-15303285Y-18232476D01*
X-15350904Y-18422952D01*
X-15350904Y-18565809D01*
X-15303285Y-18756285D01*
X-15255666Y-18851523D01*
X-15160428Y-18946761D01*
X-15017571Y-18994380D01*
X-14922333Y-18994380D01*
X-14779476Y-18946761D01*
X-14731857Y-18899142D01*
X-14731857Y-18565809D01*
X-14922333Y-18565809D01*
X-14303285Y-18994380D02*
X-14303285Y-17994380D01*
X-13922333Y-17994380D01*
X-13827095Y-18042000D01*
X-13779476Y-18089619D01*
X-13731857Y-18184857D01*
X-13731857Y-18327714D01*
X-13779476Y-18422952D01*
X-13827095Y-18470571D01*
X-13922333Y-18518190D01*
X-14303285Y-18518190D01*
X-13350904Y-18089619D02*
X-13303285Y-18042000D01*
X-13208047Y-17994380D01*
X-12969952Y-17994380D01*
X-12874714Y-18042000D01*
X-12827095Y-18089619D01*
X-12779476Y-18184857D01*
X-12779476Y-18280095D01*
X-12827095Y-18422952D01*
X-13398523Y-18994380D01*
X-12779476Y-18994380D01*
X-12446142Y-17994380D02*
X-11779476Y-17994380D01*
X-12208047Y-18994380D01*
X-15223904Y-16295666D02*
X-14747714Y-16295666D01*
X-15319142Y-16581380D02*
X-14985809Y-15581380D01*
X-14652476Y-16581380D01*
X-13795333Y-15629000D02*
X-13890571Y-15581380D01*
X-14033428Y-15581380D01*
X-14176285Y-15629000D01*
X-14271523Y-15724238D01*
X-14319142Y-15819476D01*
X-14366761Y-16009952D01*
X-14366761Y-16152809D01*
X-14319142Y-16343285D01*
X-14271523Y-16438523D01*
X-14176285Y-16533761D01*
X-14033428Y-16581380D01*
X-13938190Y-16581380D01*
X-13795333Y-16533761D01*
X-13747714Y-16486142D01*
X-13747714Y-16152809D01*
X-13938190Y-16152809D01*
X-13319142Y-16581380D02*
X-13319142Y-15581380D01*
X-12747714Y-16581380D01*
X-12747714Y-15581380D01*
X-12271523Y-16581380D02*
X-12271523Y-15581380D01*
X-12033428Y-15581380D01*
X-11890571Y-15629000D01*
X-11795333Y-15724238D01*
X-11747714Y-15819476D01*
X-11700095Y-16009952D01*
X-11700095Y-16152809D01*
X-11747714Y-16343285D01*
X-11795333Y-16438523D01*
X-11890571Y-16533761D01*
X-12033428Y-16581380D01*
X-12271523Y-16581380D01*
X-14779476Y-13089000D02*
X-14874714Y-13041380D01*
X-15017571Y-13041380D01*
X-15160428Y-13089000D01*
X-15255666Y-13184238D01*
X-15303285Y-13279476D01*
X-15350904Y-13469952D01*
X-15350904Y-13612809D01*
X-15303285Y-13803285D01*
X-15255666Y-13898523D01*
X-15160428Y-13993761D01*
X-15017571Y-14041380D01*
X-14922333Y-14041380D01*
X-14779476Y-13993761D01*
X-14731857Y-13946142D01*
X-14731857Y-13612809D01*
X-14922333Y-13612809D01*
X-14303285Y-14041380D02*
X-14303285Y-13041380D01*
X-13922333Y-13041380D01*
X-13827095Y-13089000D01*
X-13779476Y-13136619D01*
X-13731857Y-13231857D01*
X-13731857Y-13374714D01*
X-13779476Y-13469952D01*
X-13827095Y-13517571D01*
X-13922333Y-13565190D01*
X-14303285Y-13565190D01*
X-13350904Y-13136619D02*
X-13303285Y-13089000D01*
X-13208047Y-13041380D01*
X-12969952Y-13041380D01*
X-12874714Y-13089000D01*
X-12827095Y-13136619D01*
X-12779476Y-13231857D01*
X-12779476Y-13327095D01*
X-12827095Y-13469952D01*
X-13398523Y-14041380D01*
X-12779476Y-14041380D01*
X-12208047Y-13469952D02*
X-12303285Y-13422333D01*
X-12350904Y-13374714D01*
X-12398523Y-13279476D01*
X-12398523Y-13231857D01*
X-12350904Y-13136619D01*
X-12303285Y-13089000D01*
X-12208047Y-13041380D01*
X-12017571Y-13041380D01*
X-11922333Y-13089000D01*
X-11874714Y-13136619D01*
X-11827095Y-13231857D01*
X-11827095Y-13279476D01*
X-11874714Y-13374714D01*
X-11922333Y-13422333D01*
X-12017571Y-13469952D01*
X-12208047Y-13469952D01*
X-12303285Y-13517571D01*
X-12350904Y-13565190D01*
X-12398523Y-13660428D01*
X-12398523Y-13850904D01*
X-12350904Y-13946142D01*
X-12303285Y-13993761D01*
X-12208047Y-14041380D01*
X-12017571Y-14041380D01*
X-11922333Y-13993761D01*
X-11874714Y-13946142D01*
X-11827095Y-13850904D01*
X-11827095Y-13660428D01*
X-11874714Y-13565190D01*
X-11922333Y-13517571D01*
X-12017571Y-13469952D01*
X-15454047Y-11088666D02*
X-14977857Y-11088666D01*
X-15549285Y-11374380D02*
X-15215952Y-10374380D01*
X-14882619Y-11374380D01*
X-14549285Y-11374380D02*
X-14549285Y-10374380D01*
X-14311190Y-10374380D01*
X-14168333Y-10422000D01*
X-14073095Y-10517238D01*
X-14025476Y-10612476D01*
X-13977857Y-10802952D01*
X-13977857Y-10945809D01*
X-14025476Y-11136285D01*
X-14073095Y-11231523D01*
X-14168333Y-11326761D01*
X-14311190Y-11374380D01*
X-14549285Y-11374380D01*
X-12977857Y-11374380D02*
X-13311190Y-10898190D01*
X-13549285Y-11374380D02*
X-13549285Y-10374380D01*
X-13168333Y-10374380D01*
X-13073095Y-10422000D01*
X-13025476Y-10469619D01*
X-12977857Y-10564857D01*
X-12977857Y-10707714D01*
X-13025476Y-10802952D01*
X-13073095Y-10850571D01*
X-13168333Y-10898190D01*
X-13549285Y-10898190D01*
X-12549285Y-10850571D02*
X-12215952Y-10850571D01*
X-12073095Y-11374380D02*
X-12549285Y-11374380D01*
X-12549285Y-10374380D01*
X-12073095Y-10374380D01*
X-11311190Y-10850571D02*
X-11644523Y-10850571D01*
X-11644523Y-11374380D02*
X-11644523Y-10374380D01*
X-11168333Y-10374380D01*
X-14761904Y-8009000D02*
X-14857142Y-7961380D01*
X-15000000Y-7961380D01*
X-15142857Y-8009000D01*
X-15238095Y-8104238D01*
X-15285714Y-8199476D01*
X-15333333Y-8389952D01*
X-15333333Y-8532809D01*
X-15285714Y-8723285D01*
X-15238095Y-8818523D01*
X-15142857Y-8913761D01*
X-15000000Y-8961380D01*
X-14904761Y-8961380D01*
X-14761904Y-8913761D01*
X-14714285Y-8866142D01*
X-14714285Y-8532809D01*
X-14904761Y-8532809D01*
X-14285714Y-8961380D02*
X-14285714Y-7961380D01*
X-13714285Y-8961380D01*
X-13714285Y-7961380D01*
X-13238095Y-8961380D02*
X-13238095Y-7961380D01*
X-13000000Y-7961380D01*
X-12857142Y-8009000D01*
X-12761904Y-8104238D01*
X-12714285Y-8199476D01*
X-12666666Y-8389952D01*
X-12666666Y-8532809D01*
X-12714285Y-8723285D01*
X-12761904Y-8818523D01*
X-12857142Y-8913761D01*
X-13000000Y-8961380D01*
X-13238095Y-8961380D01*
D11*
X-48300000Y8300000D02*
X-27300000Y8300000D01*
X-41500000Y-42700000D02*
X-48300000Y-42700000D01*
X-48300000Y5633000D02*
X-45293000Y5633000D01*
X-45293000Y5633000D02*
X-45293000Y8300000D01*
X-48300000Y8300000D02*
X-48300000Y8000000D01*
X-48300000Y5900000D02*
X-48300000Y5500000D01*
X-48300000Y3300000D02*
X-48300000Y2900000D01*
X-48300000Y800000D02*
X-48300000Y400000D01*
X-48300000Y-1800000D02*
X-48300000Y-2200000D01*
X-48300000Y-4300000D02*
X-48300000Y-4700000D01*
X-48300000Y-6800000D02*
X-48300000Y-7200000D01*
X-48300000Y-9400000D02*
X-48300000Y-9800000D01*
X-48300000Y-11900000D02*
X-48300000Y-12300000D01*
X-48300000Y-14500000D02*
X-48300000Y-14900000D01*
X-48300000Y-17000000D02*
X-48300000Y-17400000D01*
X-48300000Y-19500000D02*
X-48300000Y-19900000D01*
X-48300000Y-22100000D02*
X-48300000Y-22500000D01*
X-48300000Y-24600000D02*
X-48300000Y-25000000D01*
X-48300000Y-27200000D02*
X-48300000Y-27600000D01*
X-48300000Y-29700000D02*
X-48300000Y-30100000D01*
X-48300000Y-32300000D02*
X-48300000Y-32700000D01*
X-48300000Y-34800000D02*
X-48300000Y-35200000D01*
X-48300000Y-37300000D02*
X-48300000Y-37700000D01*
X-48300000Y-39900000D02*
X-48300000Y-40300000D01*
X-27300000Y-6800000D02*
X-27300000Y-7200000D01*
X-27300000Y-11900000D02*
X-27300000Y-12300000D01*
X-27300000Y-19500000D02*
X-27300000Y-19900000D01*
X-27300000Y-27200000D02*
X-27300000Y-27600000D01*
X-27300000Y3300000D02*
X-27300000Y2900000D01*
X-27300000Y5900000D02*
X-27300000Y5500000D01*
X-27300000Y-1800000D02*
X-27300000Y-2200000D01*
X-27300000Y-34800000D02*
X-27300000Y-35200000D01*
X-27300000Y-39900000D02*
X-27300000Y-40300000D01*
X-27300000Y-37300000D02*
X-27300000Y-37700000D01*
X-27300000Y-22100000D02*
X-27300000Y-22500000D01*
X-27300000Y-17000000D02*
X-27300000Y-17400000D01*
X-27300000Y-4300000D02*
X-27300000Y-4700000D01*
X-27300000Y-9400000D02*
X-27300000Y-9800000D01*
X-27300000Y-29700000D02*
X-27300000Y-30100000D01*
X-27300000Y-14500000D02*
X-27300000Y-14900000D01*
X-27300000Y8300000D02*
X-27300000Y8000000D01*
X-27300000Y800000D02*
X-27300000Y400000D01*
X-27300000Y-24600000D02*
X-27300000Y-25000000D01*
X-27300000Y-32300000D02*
X-27300000Y-32700000D01*
X-27300000Y-42700000D02*
X-34100000Y-42700000D01*
X-39300000Y-42700000D02*
X-38900000Y-42700000D01*
X-36700000Y-42700000D02*
X-36300000Y-42700000D01*
X-80060000Y8339999D02*
X-59060000Y8339999D01*
X-73260000Y-42660001D02*
X-80060000Y-42660001D01*
X-80060000Y5672999D02*
X-77053000Y5672999D01*
X-77053000Y5672999D02*
X-77053000Y8339999D01*
X-80060000Y8339999D02*
X-80060000Y8039999D01*
X-80060000Y5939999D02*
X-80060000Y5539999D01*
X-80060000Y3339999D02*
X-80060000Y2939999D01*
X-80060000Y839999D02*
X-80060000Y439999D01*
X-80060000Y-1760001D02*
X-80060000Y-2160001D01*
X-80060000Y-4260001D02*
X-80060000Y-4660001D01*
X-80060000Y-6760001D02*
X-80060000Y-7160001D01*
X-80060000Y-9360001D02*
X-80060000Y-9760001D01*
X-80060000Y-11860001D02*
X-80060000Y-12260001D01*
X-80060000Y-14460001D02*
X-80060000Y-14860001D01*
X-80060000Y-16960001D02*
X-80060000Y-17360001D01*
X-80060000Y-19460001D02*
X-80060000Y-19860001D01*
X-80060000Y-22060001D02*
X-80060000Y-22460001D01*
X-80060000Y-24560001D02*
X-80060000Y-24960001D01*
X-80060000Y-27160001D02*
X-80060000Y-27560001D01*
X-80060000Y-29660001D02*
X-80060000Y-30060001D01*
X-80060000Y-32260001D02*
X-80060000Y-32660001D01*
X-80060000Y-34760001D02*
X-80060000Y-35160001D01*
X-80060000Y-37260001D02*
X-80060000Y-37660001D01*
X-80060000Y-39860001D02*
X-80060000Y-40260001D01*
X-59060000Y-6760001D02*
X-59060000Y-7160001D01*
X-59060000Y-11860001D02*
X-59060000Y-12260001D01*
X-59060000Y-19460001D02*
X-59060000Y-19860001D01*
X-59060000Y-27160001D02*
X-59060000Y-27560001D01*
X-59060000Y3339999D02*
X-59060000Y2939999D01*
X-59060000Y5939999D02*
X-59060000Y5539999D01*
X-59060000Y-1760001D02*
X-59060000Y-2160001D01*
X-59060000Y-34760001D02*
X-59060000Y-35160001D01*
X-59060000Y-39860001D02*
X-59060000Y-40260001D01*
X-59060000Y-37260001D02*
X-59060000Y-37660001D01*
X-59060000Y-22060001D02*
X-59060000Y-22460001D01*
X-59060000Y-16960001D02*
X-59060000Y-17360001D01*
X-59060000Y-4260001D02*
X-59060000Y-4660001D01*
X-59060000Y-9360001D02*
X-59060000Y-9760001D01*
X-59060000Y-29660001D02*
X-59060000Y-30060001D01*
X-59060000Y-14460001D02*
X-59060000Y-14860001D01*
X-59060000Y8339999D02*
X-59060000Y8039999D01*
X-59060000Y839999D02*
X-59060000Y439999D01*
X-59060000Y-24560001D02*
X-59060000Y-24960001D01*
X-59060000Y-32260001D02*
X-59060000Y-32660001D01*
X-59060000Y-42660001D02*
X-65860000Y-42660001D01*
X-71060000Y-42660001D02*
X-70660000Y-42660001D01*
X-68460000Y-42660001D02*
X-68060000Y-42660001D01*
X-19030000Y-7030000D02*
X-17700000Y-7030000D01*
X-19030000Y-8360000D02*
X-19030000Y-7030000D01*
X-19030000Y-9630000D02*
X-16370000Y-9630000D01*
X-16370000Y-9630000D02*
X-16370000Y-45250000D01*
X-19030000Y-9630000D02*
X-19030000Y-45250000D01*
X-19030000Y-45250000D02*
X-16370000Y-45250000D01*
X-73530000Y-51730000D02*
X-73530000Y-50400000D01*
X-72200000Y-51730000D02*
X-73530000Y-51730000D01*
X-70930000Y-51730000D02*
X-70930000Y-49070000D01*
X-70930000Y-49070000D02*
X-35310000Y-49070000D01*
X-70930000Y-51730000D02*
X-35310000Y-51730000D01*
X-35310000Y-51730000D02*
X-35310000Y-49070000D01*
D10*
X-38561904Y-16652380D02*
X-38561904Y-17461904D01*
X-38514285Y-17557142D01*
X-38466666Y-17604761D01*
X-38371428Y-17652380D01*
X-38180952Y-17652380D01*
X-38085714Y-17604761D01*
X-38038095Y-17557142D01*
X-37990476Y-17461904D01*
X-37990476Y-16652380D01*
X-37561904Y-16747619D02*
X-37514285Y-16700000D01*
X-37419047Y-16652380D01*
X-37180952Y-16652380D01*
X-37085714Y-16700000D01*
X-37038095Y-16747619D01*
X-36990476Y-16842857D01*
X-36990476Y-16938095D01*
X-37038095Y-17080952D01*
X-37609523Y-17652380D01*
X-36990476Y-17652380D01*
X-33895238Y-43723809D02*
X-33780952Y-43761904D01*
X-33590476Y-43761904D01*
X-33514285Y-43723809D01*
X-33476190Y-43685714D01*
X-33438095Y-43609523D01*
X-33438095Y-43533333D01*
X-33476190Y-43457142D01*
X-33514285Y-43419047D01*
X-33590476Y-43380952D01*
X-33742857Y-43342857D01*
X-33819047Y-43304761D01*
X-33857142Y-43266666D01*
X-33895238Y-43190476D01*
X-33895238Y-43114285D01*
X-33857142Y-43038095D01*
X-33819047Y-43000000D01*
X-33742857Y-42961904D01*
X-33552380Y-42961904D01*
X-33438095Y-43000000D01*
X-33171428Y-42961904D02*
X-32980952Y-43761904D01*
X-32828571Y-43190476D01*
X-32676190Y-43761904D01*
X-32485714Y-42961904D01*
X-32180952Y-43761904D02*
X-32180952Y-42961904D01*
X-31990476Y-42961904D01*
X-31876190Y-43000000D01*
X-31799999Y-43076190D01*
X-31761904Y-43152380D01*
X-31723809Y-43304761D01*
X-31723809Y-43419047D01*
X-31761904Y-43571428D01*
X-31799999Y-43647619D01*
X-31876190Y-43723809D01*
X-31990476Y-43761904D01*
X-32180952Y-43761904D01*
X-31380952Y-43761904D02*
X-31380952Y-42961904D01*
X-30847619Y-42961904D02*
X-30695238Y-42961904D01*
X-30619047Y-43000000D01*
X-30542857Y-43076190D01*
X-30504761Y-43228571D01*
X-30504761Y-43495238D01*
X-30542857Y-43647619D01*
X-30619047Y-43723809D01*
X-30695238Y-43761904D01*
X-30847619Y-43761904D01*
X-30923809Y-43723809D01*
X-30999999Y-43647619D01*
X-31038095Y-43495238D01*
X-31038095Y-43228571D01*
X-30999999Y-43076190D01*
X-30923809Y-43000000D01*
X-30847619Y-42961904D01*
X-45309523Y-43723809D02*
X-45195238Y-43761904D01*
X-45004761Y-43761904D01*
X-44928571Y-43723809D01*
X-44890476Y-43685714D01*
X-44852380Y-43609523D01*
X-44852380Y-43533333D01*
X-44890476Y-43457142D01*
X-44928571Y-43419047D01*
X-45004761Y-43380952D01*
X-45157142Y-43342857D01*
X-45233333Y-43304761D01*
X-45271428Y-43266666D01*
X-45309523Y-43190476D01*
X-45309523Y-43114285D01*
X-45271428Y-43038095D01*
X-45233333Y-43000000D01*
X-45157142Y-42961904D01*
X-44966666Y-42961904D01*
X-44852380Y-43000000D01*
X-44585714Y-42961904D02*
X-44395238Y-43761904D01*
X-44242857Y-43190476D01*
X-44090476Y-43761904D01*
X-43900000Y-42961904D01*
X-43138095Y-43685714D02*
X-43176190Y-43723809D01*
X-43290476Y-43761904D01*
X-43366666Y-43761904D01*
X-43480952Y-43723809D01*
X-43557142Y-43647619D01*
X-43595238Y-43571428D01*
X-43633333Y-43419047D01*
X-43633333Y-43304761D01*
X-43595238Y-43152380D01*
X-43557142Y-43076190D01*
X-43480952Y-43000000D01*
X-43366666Y-42961904D01*
X-43290476Y-42961904D01*
X-43176190Y-43000000D01*
X-43138095Y-43038095D01*
X-42414285Y-43761904D02*
X-42795238Y-43761904D01*
X-42795238Y-42961904D01*
X-42147619Y-43761904D02*
X-42147619Y-42961904D01*
X-41690476Y-43761904D02*
X-42033333Y-43304761D01*
X-41690476Y-42961904D02*
X-42147619Y-43419047D01*
X-25648402Y-11940964D02*
X-25379028Y-11671590D01*
X-25540653Y-12156463D02*
X-25917776Y-11402216D01*
X-25163529Y-11779340D01*
X-25217404Y-10755719D02*
X-25298216Y-10782656D01*
X-25379028Y-10863468D01*
X-25432903Y-10971218D01*
X-25432903Y-11078967D01*
X-25405966Y-11159780D01*
X-25325154Y-11294467D01*
X-25244341Y-11375279D01*
X-25109654Y-11456091D01*
X-25028842Y-11483028D01*
X-24921093Y-11483028D01*
X-24813343Y-11429154D01*
X-24759468Y-11375279D01*
X-24705593Y-11267529D01*
X-24705593Y-11213654D01*
X-24894155Y-11025093D01*
X-25001905Y-11132842D01*
X-24409282Y-11025093D02*
X-24974967Y-10459407D01*
X-24086033Y-10701844D01*
X-24651719Y-10136158D01*
X-23816659Y-10432470D02*
X-24382345Y-9866784D01*
X-24247658Y-9732097D01*
X-24139908Y-9678223D01*
X-24032158Y-9678223D01*
X-23951346Y-9705160D01*
X-23816659Y-9785972D01*
X-23735847Y-9866784D01*
X-23655035Y-10001471D01*
X-23628097Y-10082284D01*
X-23628097Y-10190033D01*
X-23681972Y-10297783D01*
X-23816659Y-10432470D01*
X-25713841Y1701844D02*
X-25794653Y1674906D01*
X-25875465Y1594094D01*
X-25929340Y1486345D01*
X-25929340Y1378595D01*
X-25902402Y1297783D01*
X-25821590Y1163096D01*
X-25740778Y1082284D01*
X-25606091Y1001471D01*
X-25525279Y974534D01*
X-25417529Y974534D01*
X-25309780Y1028409D01*
X-25255905Y1082284D01*
X-25202030Y1190033D01*
X-25202030Y1243908D01*
X-25390592Y1432470D01*
X-25498341Y1324720D01*
X-24905719Y1432470D02*
X-25471404Y1998155D01*
X-24582470Y1755719D01*
X-25148155Y2321404D01*
X-24313096Y2025093D02*
X-24878781Y2590778D01*
X-24744094Y2725465D01*
X-24636345Y2779340D01*
X-24528595Y2779340D01*
X-24447783Y2752402D01*
X-24313096Y2671590D01*
X-24232284Y2590778D01*
X-24151471Y2456091D01*
X-24124534Y2375279D01*
X-24124534Y2267529D01*
X-24178409Y2159780D01*
X-24313096Y2025093D01*
X-25713841Y-23698155D02*
X-25794653Y-23725093D01*
X-25875465Y-23805905D01*
X-25929340Y-23913654D01*
X-25929340Y-24021404D01*
X-25902402Y-24102216D01*
X-25821590Y-24236903D01*
X-25740778Y-24317715D01*
X-25606091Y-24398528D01*
X-25525279Y-24425465D01*
X-25417529Y-24425465D01*
X-25309780Y-24371590D01*
X-25255905Y-24317715D01*
X-25202030Y-24209966D01*
X-25202030Y-24156091D01*
X-25390592Y-23967529D01*
X-25498341Y-24075279D01*
X-24905719Y-23967529D02*
X-25471404Y-23401844D01*
X-24582470Y-23644280D01*
X-25148155Y-23078595D01*
X-24313096Y-23374906D02*
X-24878781Y-22809221D01*
X-24744094Y-22674534D01*
X-24636345Y-22620659D01*
X-24528595Y-22620659D01*
X-24447783Y-22647597D01*
X-24313096Y-22728409D01*
X-24232284Y-22809221D01*
X-24151471Y-22943908D01*
X-24124534Y-23024720D01*
X-24124534Y-23132470D01*
X-24178409Y-23240219D01*
X-24313096Y-23374906D01*
X-25713841Y-36398155D02*
X-25794653Y-36425093D01*
X-25875465Y-36505905D01*
X-25929340Y-36613654D01*
X-25929340Y-36721404D01*
X-25902402Y-36802216D01*
X-25821590Y-36936903D01*
X-25740778Y-37017715D01*
X-25606091Y-37098528D01*
X-25525279Y-37125465D01*
X-25417529Y-37125465D01*
X-25309780Y-37071590D01*
X-25255905Y-37017715D01*
X-25202030Y-36909966D01*
X-25202030Y-36856091D01*
X-25390592Y-36667529D01*
X-25498341Y-36775279D01*
X-24905719Y-36667529D02*
X-25471404Y-36101844D01*
X-24582470Y-36344280D01*
X-25148155Y-35778595D01*
X-24313096Y-36074906D02*
X-24878781Y-35509221D01*
X-24744094Y-35374534D01*
X-24636345Y-35320659D01*
X-24528595Y-35320659D01*
X-24447783Y-35347597D01*
X-24313096Y-35428409D01*
X-24232284Y-35509221D01*
X-24151471Y-35643908D01*
X-24124534Y-35724720D01*
X-24124534Y-35832470D01*
X-24178409Y-35940219D01*
X-24313096Y-36074906D01*
X-51313841Y-36398155D02*
X-51394653Y-36425093D01*
X-51475465Y-36505905D01*
X-51529340Y-36613654D01*
X-51529340Y-36721404D01*
X-51502402Y-36802216D01*
X-51421590Y-36936903D01*
X-51340778Y-37017715D01*
X-51206091Y-37098528D01*
X-51125279Y-37125465D01*
X-51017529Y-37125465D01*
X-50909780Y-37071590D01*
X-50855905Y-37017715D01*
X-50802030Y-36909966D01*
X-50802030Y-36856091D01*
X-50990592Y-36667529D01*
X-51098341Y-36775279D01*
X-50505719Y-36667529D02*
X-51071404Y-36101844D01*
X-50182470Y-36344280D01*
X-50748155Y-35778595D01*
X-49913096Y-36074906D02*
X-50478781Y-35509221D01*
X-50344094Y-35374534D01*
X-50236345Y-35320659D01*
X-50128595Y-35320659D01*
X-50047783Y-35347597D01*
X-49913096Y-35428409D01*
X-49832284Y-35509221D01*
X-49751471Y-35643908D01*
X-49724534Y-35724720D01*
X-49724534Y-35832470D01*
X-49778409Y-35940219D01*
X-49913096Y-36074906D01*
X-51313841Y-23698155D02*
X-51394653Y-23725093D01*
X-51475465Y-23805905D01*
X-51529340Y-23913654D01*
X-51529340Y-24021404D01*
X-51502402Y-24102216D01*
X-51421590Y-24236903D01*
X-51340778Y-24317715D01*
X-51206091Y-24398528D01*
X-51125279Y-24425465D01*
X-51017529Y-24425465D01*
X-50909780Y-24371590D01*
X-50855905Y-24317715D01*
X-50802030Y-24209966D01*
X-50802030Y-24156091D01*
X-50990592Y-23967529D01*
X-51098341Y-24075279D01*
X-50505719Y-23967529D02*
X-51071404Y-23401844D01*
X-50182470Y-23644280D01*
X-50748155Y-23078595D01*
X-49913096Y-23374906D02*
X-50478781Y-22809221D01*
X-50344094Y-22674534D01*
X-50236345Y-22620659D01*
X-50128595Y-22620659D01*
X-50047783Y-22647597D01*
X-49913096Y-22728409D01*
X-49832284Y-22809221D01*
X-49751471Y-22943908D01*
X-49724534Y-23024720D01*
X-49724534Y-23132470D01*
X-49778409Y-23240219D01*
X-49913096Y-23374906D01*
X-51313841Y-10998155D02*
X-51394653Y-11025093D01*
X-51475465Y-11105905D01*
X-51529340Y-11213654D01*
X-51529340Y-11321404D01*
X-51502402Y-11402216D01*
X-51421590Y-11536903D01*
X-51340778Y-11617715D01*
X-51206091Y-11698528D01*
X-51125279Y-11725465D01*
X-51017529Y-11725465D01*
X-50909780Y-11671590D01*
X-50855905Y-11617715D01*
X-50802030Y-11509966D01*
X-50802030Y-11456091D01*
X-50990592Y-11267529D01*
X-51098341Y-11375279D01*
X-50505719Y-11267529D02*
X-51071404Y-10701844D01*
X-50182470Y-10944280D01*
X-50748155Y-10378595D01*
X-49913096Y-10674906D02*
X-50478781Y-10109221D01*
X-50344094Y-9974534D01*
X-50236345Y-9920659D01*
X-50128595Y-9920659D01*
X-50047783Y-9947597D01*
X-49913096Y-10028409D01*
X-49832284Y-10109221D01*
X-49751471Y-10243908D01*
X-49724534Y-10324720D01*
X-49724534Y-10432470D01*
X-49778409Y-10540219D01*
X-49913096Y-10674906D01*
X-51313841Y1701844D02*
X-51394653Y1674906D01*
X-51475465Y1594094D01*
X-51529340Y1486345D01*
X-51529340Y1378595D01*
X-51502402Y1297783D01*
X-51421590Y1163096D01*
X-51340778Y1082284D01*
X-51206091Y1001471D01*
X-51125279Y974534D01*
X-51017529Y974534D01*
X-50909780Y1028409D01*
X-50855905Y1082284D01*
X-50802030Y1190033D01*
X-50802030Y1243908D01*
X-50990592Y1432470D01*
X-51098341Y1324720D01*
X-50505719Y1432470D02*
X-51071404Y1998155D01*
X-50182470Y1755719D01*
X-50748155Y2321404D01*
X-49913096Y2025093D02*
X-50478781Y2590778D01*
X-50344094Y2725465D01*
X-50236345Y2779340D01*
X-50128595Y2779340D01*
X-50047783Y2752402D01*
X-49913096Y2671590D01*
X-49832284Y2590778D01*
X-49751471Y2456091D01*
X-49724534Y2375279D01*
X-49724534Y2267529D01*
X-49778409Y2159780D01*
X-49913096Y2025093D01*
X-25846870Y6272690D02*
X-25092622Y5895566D01*
X-25469746Y6649813D01*
X-24823248Y6757563D02*
X-24715499Y6811438D01*
X-24661624Y6811438D01*
X-24580812Y6784500D01*
X-24500000Y6703688D01*
X-24473062Y6622876D01*
X-24473062Y6569001D01*
X-24500000Y6488189D01*
X-24715499Y6272690D01*
X-25281184Y6838375D01*
X-25092622Y7026937D01*
X-25011810Y7053874D01*
X-24957935Y7053874D01*
X-24877123Y7026937D01*
X-24823248Y6973062D01*
X-24796311Y6892250D01*
X-24796311Y6838375D01*
X-24823248Y6757563D01*
X-25011810Y6569001D01*
X-24715499Y7404061D02*
X-24257563Y6946125D01*
X-24176751Y6919187D01*
X-24122876Y6919187D01*
X-24042064Y6946125D01*
X-23934314Y7053874D01*
X-23907377Y7134687D01*
X-23907377Y7188561D01*
X-23934314Y7269374D01*
X-24392250Y7727309D01*
X-23611065Y7430998D02*
X-23503316Y7484873D01*
X-23368629Y7619560D01*
X-23341691Y7700372D01*
X-23341691Y7754247D01*
X-23368629Y7835059D01*
X-23422503Y7888934D01*
X-23503316Y7915871D01*
X-23557190Y7915871D01*
X-23638003Y7888934D01*
X-23772690Y7808122D01*
X-23853502Y7781184D01*
X-23907377Y7781184D01*
X-23988189Y7808122D01*
X-24042064Y7861996D01*
X-24069001Y7942809D01*
X-24069001Y7996683D01*
X-24042064Y8077496D01*
X-23907377Y8212183D01*
X-23799627Y8266057D01*
X-25879526Y3730033D02*
X-25125279Y3352910D01*
X-25502402Y4107157D01*
X-24802030Y3730033D02*
X-24694280Y3783908D01*
X-24559593Y3918595D01*
X-24532656Y3999407D01*
X-24532656Y4053282D01*
X-24559593Y4134094D01*
X-24613468Y4187969D01*
X-24694280Y4214906D01*
X-24748155Y4214906D01*
X-24828967Y4187969D01*
X-24963654Y4107157D01*
X-25044467Y4080219D01*
X-25098341Y4080219D01*
X-25179154Y4107157D01*
X-25233028Y4161032D01*
X-25259966Y4241844D01*
X-25259966Y4295719D01*
X-25233028Y4376531D01*
X-25098341Y4511218D01*
X-24990592Y4565093D01*
X-24371032Y4645905D02*
X-24101658Y4376531D01*
X-24855905Y4753654D02*
X-24371032Y4645905D01*
X-24478781Y5130778D01*
X-23778409Y4753654D02*
X-23670659Y4807529D01*
X-23535972Y4942216D01*
X-23509035Y5023028D01*
X-23509035Y5076903D01*
X-23535972Y5157715D01*
X-23589847Y5211590D01*
X-23670659Y5238528D01*
X-23724534Y5238528D01*
X-23805346Y5211590D01*
X-23940033Y5130778D01*
X-24020845Y5103841D01*
X-24074720Y5103841D01*
X-24155532Y5130778D01*
X-24209407Y5184653D01*
X-24236345Y5265465D01*
X-24236345Y5319340D01*
X-24209407Y5400152D01*
X-24074720Y5534839D01*
X-23966971Y5588714D01*
X-25877868Y-1158308D02*
X-25527682Y-808122D01*
X-25500744Y-1212183D01*
X-25419932Y-1131370D01*
X-25339120Y-1104433D01*
X-25285245Y-1104433D01*
X-25204433Y-1131370D01*
X-25069746Y-1266057D01*
X-25042809Y-1346870D01*
X-25042809Y-1400744D01*
X-25069746Y-1481557D01*
X-25231370Y-1643181D01*
X-25312183Y-1670118D01*
X-25366057Y-1670118D01*
X-25366057Y-646497D02*
X-24611810Y-1023621D01*
X-24988934Y-269374D01*
X-24854247Y-134687D02*
X-24504061Y215499D01*
X-24477123Y-188561D01*
X-24396311Y-107749D01*
X-24315499Y-80812D01*
X-24261624Y-80812D01*
X-24180812Y-107749D01*
X-24046125Y-242436D01*
X-24019187Y-323248D01*
X-24019187Y-377123D01*
X-24046125Y-457935D01*
X-24207749Y-619560D01*
X-24288561Y-646497D01*
X-24342436Y-646497D01*
X-23776751Y-296311D02*
X-23345752Y134687D01*
X-23561251Y619560D02*
X-23372690Y808122D01*
X-22995566Y592622D02*
X-23264940Y323248D01*
X-23830625Y888934D01*
X-23561251Y1158308D01*
X-22753129Y835059D02*
X-23318815Y1400744D01*
X-22429881Y1158308D01*
X-22995566Y1723993D01*
X-25910152Y-3690592D02*
X-25559966Y-3340406D01*
X-25533028Y-3744467D01*
X-25452216Y-3663654D01*
X-25371404Y-3636717D01*
X-25317529Y-3636717D01*
X-25236717Y-3663654D01*
X-25102030Y-3798341D01*
X-25075093Y-3879154D01*
X-25075093Y-3933028D01*
X-25102030Y-4013841D01*
X-25263654Y-4175465D01*
X-25344467Y-4202402D01*
X-25398341Y-4202402D01*
X-25398341Y-3178781D02*
X-24644094Y-3555905D01*
X-25021218Y-2801658D01*
X-24886531Y-2666971D02*
X-24536345Y-2316784D01*
X-24509407Y-2720845D01*
X-24428595Y-2640033D01*
X-24347783Y-2613096D01*
X-24293908Y-2613096D01*
X-24213096Y-2640033D01*
X-24078409Y-2774720D01*
X-24051471Y-2855532D01*
X-24051471Y-2909407D01*
X-24078409Y-2990219D01*
X-24240033Y-3151844D01*
X-24320845Y-3178781D01*
X-24374720Y-3178781D01*
X-25645211Y-6733773D02*
X-25375837Y-6464399D01*
X-25537462Y-6949272D02*
X-25914585Y-6195025D01*
X-25160338Y-6572149D01*
X-24971776Y-6383587D02*
X-25537462Y-5817902D01*
X-25402775Y-5683215D01*
X-25295025Y-5629340D01*
X-25187276Y-5629340D01*
X-25106463Y-5656277D01*
X-24971776Y-5737089D01*
X-24890964Y-5817902D01*
X-24810152Y-5952589D01*
X-24783215Y-6033401D01*
X-24783215Y-6141150D01*
X-24837089Y-6248900D01*
X-24971776Y-6383587D01*
X-24136717Y-5440778D02*
X-24136717Y-5494653D01*
X-24190592Y-5602402D01*
X-24244467Y-5656277D01*
X-24352216Y-5710152D01*
X-24459966Y-5710152D01*
X-24540778Y-5683215D01*
X-24675465Y-5602402D01*
X-24756277Y-5521590D01*
X-24837089Y-5386903D01*
X-24864027Y-5306091D01*
X-24864027Y-5198341D01*
X-24810152Y-5090592D01*
X-24756277Y-5036717D01*
X-24648528Y-4982842D01*
X-24594653Y-4982842D01*
X-23921218Y-5440778D02*
X-23490219Y-5009780D01*
X-24055905Y-4336345D02*
X-23301658Y-4713468D01*
X-23678781Y-3959221D01*
X-22601285Y-4013096D02*
X-23059221Y-3932284D01*
X-22924534Y-4336345D02*
X-23490219Y-3770659D01*
X-23274720Y-3555160D01*
X-23193908Y-3528223D01*
X-23140033Y-3528223D01*
X-23059221Y-3555160D01*
X-22978409Y-3635972D01*
X-22951471Y-3716784D01*
X-22951471Y-3770659D01*
X-22978409Y-3851471D01*
X-23193908Y-4066971D01*
X-22655160Y-3474348D02*
X-22466598Y-3285786D01*
X-22089475Y-3501285D02*
X-22358849Y-3770659D01*
X-22924534Y-3204974D01*
X-22655160Y-2935600D01*
X-21954788Y-2773975D02*
X-22143349Y-2962537D01*
X-21847038Y-3258849D02*
X-22412723Y-2693163D01*
X-22143349Y-2423789D01*
X-25702277Y-8446592D02*
X-25783089Y-8473529D01*
X-25863902Y-8554341D01*
X-25917776Y-8662091D01*
X-25917776Y-8769841D01*
X-25890839Y-8850653D01*
X-25810027Y-8985340D01*
X-25729215Y-9066152D01*
X-25594528Y-9146964D01*
X-25513715Y-9173902D01*
X-25405966Y-9173902D01*
X-25298216Y-9120027D01*
X-25244341Y-9066152D01*
X-25190467Y-8958402D01*
X-25190467Y-8904528D01*
X-25379028Y-8715966D01*
X-25486778Y-8823715D01*
X-24894155Y-8715966D02*
X-25459841Y-8150280D01*
X-25244341Y-7934781D01*
X-25163529Y-7907844D01*
X-25109654Y-7907844D01*
X-25028842Y-7934781D01*
X-24948030Y-8015593D01*
X-24921093Y-8096406D01*
X-24921093Y-8150280D01*
X-24948030Y-8231093D01*
X-25163529Y-8446592D01*
X-24867218Y-7665407D02*
X-24867218Y-7611532D01*
X-24840280Y-7530720D01*
X-24705593Y-7396033D01*
X-24624781Y-7369096D01*
X-24570906Y-7369096D01*
X-24490094Y-7396033D01*
X-24436219Y-7449908D01*
X-24382345Y-7557658D01*
X-24382345Y-8204155D01*
X-24032158Y-7853969D01*
X-24032158Y-7207471D02*
X-24112971Y-7234409D01*
X-24166845Y-7234409D01*
X-24247658Y-7207471D01*
X-24274595Y-7180534D01*
X-24301532Y-7099722D01*
X-24301532Y-7045847D01*
X-24274595Y-6965035D01*
X-24166845Y-6857285D01*
X-24086033Y-6830348D01*
X-24032158Y-6830348D01*
X-23951346Y-6857285D01*
X-23924409Y-6884223D01*
X-23897471Y-6965035D01*
X-23897471Y-7018910D01*
X-23924409Y-7099722D01*
X-24032158Y-7207471D01*
X-24059096Y-7288284D01*
X-24059096Y-7342158D01*
X-24032158Y-7422971D01*
X-23924409Y-7530720D01*
X-23843597Y-7557658D01*
X-23789722Y-7557658D01*
X-23708910Y-7530720D01*
X-23601160Y-7422971D01*
X-23574223Y-7342158D01*
X-23574223Y-7288284D01*
X-23601160Y-7207471D01*
X-23708910Y-7099722D01*
X-23789722Y-7072784D01*
X-23843597Y-7072784D01*
X-23924409Y-7099722D01*
X-25702277Y-13790592D02*
X-25783089Y-13817529D01*
X-25863902Y-13898341D01*
X-25917776Y-14006091D01*
X-25917776Y-14113841D01*
X-25890839Y-14194653D01*
X-25810027Y-14329340D01*
X-25729215Y-14410152D01*
X-25594528Y-14490964D01*
X-25513715Y-14517902D01*
X-25405966Y-14517902D01*
X-25298216Y-14464027D01*
X-25244341Y-14410152D01*
X-25190467Y-14302402D01*
X-25190467Y-14248528D01*
X-25379028Y-14059966D01*
X-25486778Y-14167715D01*
X-24894155Y-14059966D02*
X-25459841Y-13494280D01*
X-25244341Y-13278781D01*
X-25163529Y-13251844D01*
X-25109654Y-13251844D01*
X-25028842Y-13278781D01*
X-24948030Y-13359593D01*
X-24921093Y-13440406D01*
X-24921093Y-13494280D01*
X-24948030Y-13575093D01*
X-25163529Y-13790592D01*
X-24867218Y-13009407D02*
X-24867218Y-12955532D01*
X-24840280Y-12874720D01*
X-24705593Y-12740033D01*
X-24624781Y-12713096D01*
X-24570906Y-12713096D01*
X-24490094Y-12740033D01*
X-24436219Y-12793908D01*
X-24382345Y-12901658D01*
X-24382345Y-13548155D01*
X-24032158Y-13197969D01*
X-24409282Y-12443722D02*
X-24032158Y-12066598D01*
X-23708910Y-12874720D01*
X-25702277Y-16320592D02*
X-25783089Y-16347529D01*
X-25863902Y-16428341D01*
X-25917776Y-16536091D01*
X-25917776Y-16643841D01*
X-25890839Y-16724653D01*
X-25810027Y-16859340D01*
X-25729215Y-16940152D01*
X-25594528Y-17020964D01*
X-25513715Y-17047902D01*
X-25405966Y-17047902D01*
X-25298216Y-16994027D01*
X-25244341Y-16940152D01*
X-25190467Y-16832402D01*
X-25190467Y-16778528D01*
X-25379028Y-16589966D01*
X-25486778Y-16697715D01*
X-24894155Y-16589966D02*
X-25459841Y-16024280D01*
X-25244341Y-15808781D01*
X-25163529Y-15781844D01*
X-25109654Y-15781844D01*
X-25028842Y-15808781D01*
X-24948030Y-15889593D01*
X-24921093Y-15970406D01*
X-24921093Y-16024280D01*
X-24948030Y-16105093D01*
X-25163529Y-16320592D01*
X-24867218Y-15539407D02*
X-24867218Y-15485532D01*
X-24840280Y-15404720D01*
X-24705593Y-15270033D01*
X-24624781Y-15243096D01*
X-24570906Y-15243096D01*
X-24490094Y-15270033D01*
X-24436219Y-15323908D01*
X-24382345Y-15431658D01*
X-24382345Y-16078155D01*
X-24032158Y-15727969D01*
X-24112971Y-14677410D02*
X-24220720Y-14785160D01*
X-24247658Y-14865972D01*
X-24247658Y-14919847D01*
X-24220720Y-15054534D01*
X-24139908Y-15189221D01*
X-23924409Y-15404720D01*
X-23843597Y-15431658D01*
X-23789722Y-15431658D01*
X-23708910Y-15404720D01*
X-23601160Y-15296971D01*
X-23574223Y-15216158D01*
X-23574223Y-15162284D01*
X-23601160Y-15081471D01*
X-23735847Y-14946784D01*
X-23816659Y-14919847D01*
X-23870534Y-14919847D01*
X-23951346Y-14946784D01*
X-24059096Y-15054534D01*
X-24086033Y-15135346D01*
X-24086033Y-15189221D01*
X-24059096Y-15270033D01*
X-24961624Y-19143435D02*
X-25419560Y-19062622D01*
X-25284873Y-19466683D02*
X-25850558Y-18900998D01*
X-25635059Y-18685499D01*
X-25554247Y-18658561D01*
X-25500372Y-18658561D01*
X-25419560Y-18685499D01*
X-25338748Y-18766311D01*
X-25311810Y-18847123D01*
X-25311810Y-18900998D01*
X-25338748Y-18981810D01*
X-25554247Y-19197309D01*
X-25284873Y-18335312D02*
X-24826937Y-18793248D01*
X-24746125Y-18820186D01*
X-24692250Y-18820186D01*
X-24611438Y-18793248D01*
X-24503688Y-18685499D01*
X-24476751Y-18604687D01*
X-24476751Y-18550812D01*
X-24503688Y-18470000D01*
X-24961624Y-18012064D01*
X-24126564Y-18308375D02*
X-24692250Y-17742690D01*
X-23803316Y-17985126D01*
X-24369001Y-17419441D01*
X-25702277Y-21400592D02*
X-25783089Y-21427529D01*
X-25863902Y-21508341D01*
X-25917776Y-21616091D01*
X-25917776Y-21723841D01*
X-25890839Y-21804653D01*
X-25810027Y-21939340D01*
X-25729215Y-22020152D01*
X-25594528Y-22100964D01*
X-25513715Y-22127902D01*
X-25405966Y-22127902D01*
X-25298216Y-22074027D01*
X-25244341Y-22020152D01*
X-25190467Y-21912402D01*
X-25190467Y-21858528D01*
X-25379028Y-21669966D01*
X-25486778Y-21777715D01*
X-24894155Y-21669966D02*
X-25459841Y-21104280D01*
X-25244341Y-20888781D01*
X-25163529Y-20861844D01*
X-25109654Y-20861844D01*
X-25028842Y-20888781D01*
X-24948030Y-20969593D01*
X-24921093Y-21050406D01*
X-24921093Y-21104280D01*
X-24948030Y-21185093D01*
X-25163529Y-21400592D01*
X-24867218Y-20619407D02*
X-24867218Y-20565532D01*
X-24840280Y-20484720D01*
X-24705593Y-20350033D01*
X-24624781Y-20323096D01*
X-24570906Y-20323096D01*
X-24490094Y-20350033D01*
X-24436219Y-20403908D01*
X-24382345Y-20511658D01*
X-24382345Y-21158155D01*
X-24032158Y-20807969D01*
X-24328470Y-20080659D02*
X-24328470Y-20026784D01*
X-24301532Y-19945972D01*
X-24166845Y-19811285D01*
X-24086033Y-19784348D01*
X-24032158Y-19784348D01*
X-23951346Y-19811285D01*
X-23897471Y-19865160D01*
X-23843597Y-19972910D01*
X-23843597Y-20619407D01*
X-23493410Y-20269221D01*
X-25702277Y-26490592D02*
X-25783089Y-26517529D01*
X-25863902Y-26598341D01*
X-25917776Y-26706091D01*
X-25917776Y-26813841D01*
X-25890839Y-26894653D01*
X-25810027Y-27029340D01*
X-25729215Y-27110152D01*
X-25594528Y-27190964D01*
X-25513715Y-27217902D01*
X-25405966Y-27217902D01*
X-25298216Y-27164027D01*
X-25244341Y-27110152D01*
X-25190467Y-27002402D01*
X-25190467Y-26948528D01*
X-25379028Y-26759966D01*
X-25486778Y-26867715D01*
X-24894155Y-26759966D02*
X-25459841Y-26194280D01*
X-25244341Y-25978781D01*
X-25163529Y-25951844D01*
X-25109654Y-25951844D01*
X-25028842Y-25978781D01*
X-24948030Y-26059593D01*
X-24921093Y-26140406D01*
X-24921093Y-26194280D01*
X-24948030Y-26275093D01*
X-25163529Y-26490592D01*
X-24867218Y-25709407D02*
X-24867218Y-25655532D01*
X-24840280Y-25574720D01*
X-24705593Y-25440033D01*
X-24624781Y-25413096D01*
X-24570906Y-25413096D01*
X-24490094Y-25440033D01*
X-24436219Y-25493908D01*
X-24382345Y-25601658D01*
X-24382345Y-26248155D01*
X-24032158Y-25897969D01*
X-23493410Y-25359221D02*
X-23816659Y-25682470D01*
X-23655035Y-25520845D02*
X-24220720Y-24955160D01*
X-24193783Y-25089847D01*
X-24193783Y-25197597D01*
X-24220720Y-25278409D01*
X-25702277Y-29020592D02*
X-25783089Y-29047529D01*
X-25863902Y-29128341D01*
X-25917776Y-29236091D01*
X-25917776Y-29343841D01*
X-25890839Y-29424653D01*
X-25810027Y-29559340D01*
X-25729215Y-29640152D01*
X-25594528Y-29720964D01*
X-25513715Y-29747902D01*
X-25405966Y-29747902D01*
X-25298216Y-29694027D01*
X-25244341Y-29640152D01*
X-25190467Y-29532402D01*
X-25190467Y-29478528D01*
X-25379028Y-29289966D01*
X-25486778Y-29397715D01*
X-24894155Y-29289966D02*
X-25459841Y-28724280D01*
X-25244341Y-28508781D01*
X-25163529Y-28481844D01*
X-25109654Y-28481844D01*
X-25028842Y-28508781D01*
X-24948030Y-28589593D01*
X-24921093Y-28670406D01*
X-24921093Y-28724280D01*
X-24948030Y-28805093D01*
X-25163529Y-29020592D01*
X-24867218Y-28239407D02*
X-24867218Y-28185532D01*
X-24840280Y-28104720D01*
X-24705593Y-27970033D01*
X-24624781Y-27943096D01*
X-24570906Y-27943096D01*
X-24490094Y-27970033D01*
X-24436219Y-28023908D01*
X-24382345Y-28131658D01*
X-24382345Y-28778155D01*
X-24032158Y-28427969D01*
X-24247658Y-27512097D02*
X-24193783Y-27458223D01*
X-24112971Y-27431285D01*
X-24059096Y-27431285D01*
X-23978284Y-27458223D01*
X-23843597Y-27539035D01*
X-23708910Y-27673722D01*
X-23628097Y-27808409D01*
X-23601160Y-27889221D01*
X-23601160Y-27943096D01*
X-23628097Y-28023908D01*
X-23681972Y-28077783D01*
X-23762784Y-28104720D01*
X-23816659Y-28104720D01*
X-23897471Y-28077783D01*
X-24032158Y-27996971D01*
X-24166845Y-27862284D01*
X-24247658Y-27727597D01*
X-24274595Y-27646784D01*
X-24274595Y-27592910D01*
X-24247658Y-27512097D01*
X-25702277Y-31560592D02*
X-25783089Y-31587529D01*
X-25863902Y-31668341D01*
X-25917776Y-31776091D01*
X-25917776Y-31883841D01*
X-25890839Y-31964653D01*
X-25810027Y-32099340D01*
X-25729215Y-32180152D01*
X-25594528Y-32260964D01*
X-25513715Y-32287902D01*
X-25405966Y-32287902D01*
X-25298216Y-32234027D01*
X-25244341Y-32180152D01*
X-25190467Y-32072402D01*
X-25190467Y-32018528D01*
X-25379028Y-31829966D01*
X-25486778Y-31937715D01*
X-24894155Y-31829966D02*
X-25459841Y-31264280D01*
X-25244341Y-31048781D01*
X-25163529Y-31021844D01*
X-25109654Y-31021844D01*
X-25028842Y-31048781D01*
X-24948030Y-31129593D01*
X-24921093Y-31210406D01*
X-24921093Y-31264280D01*
X-24948030Y-31345093D01*
X-25163529Y-31560592D01*
X-24032158Y-30967969D02*
X-24355407Y-31291218D01*
X-24193783Y-31129593D02*
X-24759468Y-30563908D01*
X-24732531Y-30698595D01*
X-24732531Y-30806345D01*
X-24759468Y-30887157D01*
X-23762784Y-30698595D02*
X-23655035Y-30590845D01*
X-23628097Y-30510033D01*
X-23628097Y-30456158D01*
X-23655035Y-30321471D01*
X-23735847Y-30186784D01*
X-23951346Y-29971285D01*
X-24032158Y-29944348D01*
X-24086033Y-29944348D01*
X-24166845Y-29971285D01*
X-24274595Y-30079035D01*
X-24301532Y-30159847D01*
X-24301532Y-30213722D01*
X-24274595Y-30294534D01*
X-24139908Y-30429221D01*
X-24059096Y-30456158D01*
X-24005221Y-30456158D01*
X-23924409Y-30429221D01*
X-23816659Y-30321471D01*
X-23789722Y-30240659D01*
X-23789722Y-30186784D01*
X-23816659Y-30105972D01*
X-25702277Y-34100592D02*
X-25783089Y-34127529D01*
X-25863902Y-34208341D01*
X-25917776Y-34316091D01*
X-25917776Y-34423841D01*
X-25890839Y-34504653D01*
X-25810027Y-34639340D01*
X-25729215Y-34720152D01*
X-25594528Y-34800964D01*
X-25513715Y-34827902D01*
X-25405966Y-34827902D01*
X-25298216Y-34774027D01*
X-25244341Y-34720152D01*
X-25190467Y-34612402D01*
X-25190467Y-34558528D01*
X-25379028Y-34369966D01*
X-25486778Y-34477715D01*
X-24894155Y-34369966D02*
X-25459841Y-33804280D01*
X-25244341Y-33588781D01*
X-25163529Y-33561844D01*
X-25109654Y-33561844D01*
X-25028842Y-33588781D01*
X-24948030Y-33669593D01*
X-24921093Y-33750406D01*
X-24921093Y-33804280D01*
X-24948030Y-33885093D01*
X-25163529Y-34100592D01*
X-24032158Y-33507969D02*
X-24355407Y-33831218D01*
X-24193783Y-33669593D02*
X-24759468Y-33103908D01*
X-24732531Y-33238595D01*
X-24732531Y-33346345D01*
X-24759468Y-33427157D01*
X-24032158Y-32861471D02*
X-24112971Y-32888409D01*
X-24166845Y-32888409D01*
X-24247658Y-32861471D01*
X-24274595Y-32834534D01*
X-24301532Y-32753722D01*
X-24301532Y-32699847D01*
X-24274595Y-32619035D01*
X-24166845Y-32511285D01*
X-24086033Y-32484348D01*
X-24032158Y-32484348D01*
X-23951346Y-32511285D01*
X-23924409Y-32538223D01*
X-23897471Y-32619035D01*
X-23897471Y-32672910D01*
X-23924409Y-32753722D01*
X-24032158Y-32861471D01*
X-24059096Y-32942284D01*
X-24059096Y-32996158D01*
X-24032158Y-33076971D01*
X-23924409Y-33184720D01*
X-23843597Y-33211658D01*
X-23789722Y-33211658D01*
X-23708910Y-33184720D01*
X-23601160Y-33076971D01*
X-23574223Y-32996158D01*
X-23574223Y-32942284D01*
X-23601160Y-32861471D01*
X-23708910Y-32753722D01*
X-23789722Y-32726784D01*
X-23843597Y-32726784D01*
X-23924409Y-32753722D01*
X-25702277Y-39180592D02*
X-25783089Y-39207529D01*
X-25863902Y-39288341D01*
X-25917776Y-39396091D01*
X-25917776Y-39503841D01*
X-25890839Y-39584653D01*
X-25810027Y-39719340D01*
X-25729215Y-39800152D01*
X-25594528Y-39880964D01*
X-25513715Y-39907902D01*
X-25405966Y-39907902D01*
X-25298216Y-39854027D01*
X-25244341Y-39800152D01*
X-25190467Y-39692402D01*
X-25190467Y-39638528D01*
X-25379028Y-39449966D01*
X-25486778Y-39557715D01*
X-24894155Y-39449966D02*
X-25459841Y-38884280D01*
X-25244341Y-38668781D01*
X-25163529Y-38641844D01*
X-25109654Y-38641844D01*
X-25028842Y-38668781D01*
X-24948030Y-38749593D01*
X-24921093Y-38830406D01*
X-24921093Y-38884280D01*
X-24948030Y-38965093D01*
X-25163529Y-39180592D01*
X-24032158Y-38587969D02*
X-24355407Y-38911218D01*
X-24193783Y-38749593D02*
X-24759468Y-38183908D01*
X-24732531Y-38318595D01*
X-24732531Y-38426345D01*
X-24759468Y-38507157D01*
X-24409282Y-37833722D02*
X-24032158Y-37456598D01*
X-23708910Y-38264720D01*
X-25702277Y-41720592D02*
X-25783089Y-41747529D01*
X-25863902Y-41828341D01*
X-25917776Y-41936091D01*
X-25917776Y-42043841D01*
X-25890839Y-42124653D01*
X-25810027Y-42259340D01*
X-25729215Y-42340152D01*
X-25594528Y-42420964D01*
X-25513715Y-42447902D01*
X-25405966Y-42447902D01*
X-25298216Y-42394027D01*
X-25244341Y-42340152D01*
X-25190467Y-42232402D01*
X-25190467Y-42178528D01*
X-25379028Y-41989966D01*
X-25486778Y-42097715D01*
X-24894155Y-41989966D02*
X-25459841Y-41424280D01*
X-25244341Y-41208781D01*
X-25163529Y-41181844D01*
X-25109654Y-41181844D01*
X-25028842Y-41208781D01*
X-24948030Y-41289593D01*
X-24921093Y-41370406D01*
X-24921093Y-41424280D01*
X-24948030Y-41505093D01*
X-25163529Y-41720592D01*
X-24032158Y-41127969D02*
X-24355407Y-41451218D01*
X-24193783Y-41289593D02*
X-24759468Y-40723908D01*
X-24732531Y-40858595D01*
X-24732531Y-40966345D01*
X-24759468Y-41047157D01*
X-24112971Y-40077410D02*
X-24220720Y-40185160D01*
X-24247658Y-40265972D01*
X-24247658Y-40319847D01*
X-24220720Y-40454534D01*
X-24139908Y-40589221D01*
X-23924409Y-40804720D01*
X-23843597Y-40831658D01*
X-23789722Y-40831658D01*
X-23708910Y-40804720D01*
X-23601160Y-40696971D01*
X-23574223Y-40616158D01*
X-23574223Y-40562284D01*
X-23601160Y-40481471D01*
X-23735847Y-40346784D01*
X-23816659Y-40319847D01*
X-23870534Y-40319847D01*
X-23951346Y-40346784D01*
X-24059096Y-40454534D01*
X-24086033Y-40535346D01*
X-24086033Y-40589221D01*
X-24059096Y-40670033D01*
X-51810277Y-41720592D02*
X-51891089Y-41747529D01*
X-51971902Y-41828341D01*
X-52025776Y-41936091D01*
X-52025776Y-42043841D01*
X-51998839Y-42124653D01*
X-51918027Y-42259340D01*
X-51837215Y-42340152D01*
X-51702528Y-42420964D01*
X-51621715Y-42447902D01*
X-51513966Y-42447902D01*
X-51406216Y-42394027D01*
X-51352341Y-42340152D01*
X-51298467Y-42232402D01*
X-51298467Y-42178528D01*
X-51487028Y-41989966D01*
X-51594778Y-42097715D01*
X-51002155Y-41989966D02*
X-51567841Y-41424280D01*
X-51352341Y-41208781D01*
X-51271529Y-41181844D01*
X-51217654Y-41181844D01*
X-51136842Y-41208781D01*
X-51056030Y-41289593D01*
X-51029093Y-41370406D01*
X-51029093Y-41424280D01*
X-51056030Y-41505093D01*
X-51271529Y-41720592D01*
X-50140158Y-41127969D02*
X-50463407Y-41451218D01*
X-50301783Y-41289593D02*
X-50867468Y-40723908D01*
X-50840531Y-40858595D01*
X-50840531Y-40966345D01*
X-50867468Y-41047157D01*
X-50194033Y-40050473D02*
X-50463407Y-40319847D01*
X-50220971Y-40616158D01*
X-50220971Y-40562284D01*
X-50194033Y-40481471D01*
X-50059346Y-40346784D01*
X-49978534Y-40319847D01*
X-49924659Y-40319847D01*
X-49843847Y-40346784D01*
X-49709160Y-40481471D01*
X-49682223Y-40562284D01*
X-49682223Y-40616158D01*
X-49709160Y-40696971D01*
X-49843847Y-40831658D01*
X-49924659Y-40858595D01*
X-49978534Y-40858595D01*
X-51856277Y-39180592D02*
X-51937089Y-39207529D01*
X-52017902Y-39288341D01*
X-52071776Y-39396091D01*
X-52071776Y-39503841D01*
X-52044839Y-39584653D01*
X-51964027Y-39719340D01*
X-51883215Y-39800152D01*
X-51748528Y-39880964D01*
X-51667715Y-39907902D01*
X-51559966Y-39907902D01*
X-51452216Y-39854027D01*
X-51398341Y-39800152D01*
X-51344467Y-39692402D01*
X-51344467Y-39638528D01*
X-51533028Y-39449966D01*
X-51640778Y-39557715D01*
X-51048155Y-39449966D02*
X-51613841Y-38884280D01*
X-51398341Y-38668781D01*
X-51317529Y-38641844D01*
X-51263654Y-38641844D01*
X-51182842Y-38668781D01*
X-51102030Y-38749593D01*
X-51075093Y-38830406D01*
X-51075093Y-38884280D01*
X-51102030Y-38965093D01*
X-51317529Y-39180592D01*
X-50186158Y-38587969D02*
X-50509407Y-38911218D01*
X-50347783Y-38749593D02*
X-50913468Y-38183908D01*
X-50886531Y-38318595D01*
X-50886531Y-38426345D01*
X-50913468Y-38507157D01*
X-50078409Y-37725972D02*
X-49701285Y-38103096D01*
X-50428595Y-37645160D02*
X-50159221Y-38183908D01*
X-49809035Y-37833722D01*
X-51810277Y-34100592D02*
X-51891089Y-34127529D01*
X-51971902Y-34208341D01*
X-52025776Y-34316091D01*
X-52025776Y-34423841D01*
X-51998839Y-34504653D01*
X-51918027Y-34639340D01*
X-51837215Y-34720152D01*
X-51702528Y-34800964D01*
X-51621715Y-34827902D01*
X-51513966Y-34827902D01*
X-51406216Y-34774027D01*
X-51352341Y-34720152D01*
X-51298467Y-34612402D01*
X-51298467Y-34558528D01*
X-51487028Y-34369966D01*
X-51594778Y-34477715D01*
X-51002155Y-34369966D02*
X-51567841Y-33804280D01*
X-51352341Y-33588781D01*
X-51271529Y-33561844D01*
X-51217654Y-33561844D01*
X-51136842Y-33588781D01*
X-51056030Y-33669593D01*
X-51029093Y-33750406D01*
X-51029093Y-33804280D01*
X-51056030Y-33885093D01*
X-51271529Y-34100592D01*
X-50140158Y-33507969D02*
X-50463407Y-33831218D01*
X-50301783Y-33669593D02*
X-50867468Y-33103908D01*
X-50840531Y-33238595D01*
X-50840531Y-33346345D01*
X-50867468Y-33427157D01*
X-50517282Y-32753722D02*
X-50167096Y-32403536D01*
X-50140158Y-32807597D01*
X-50059346Y-32726784D01*
X-49978534Y-32699847D01*
X-49924659Y-32699847D01*
X-49843847Y-32726784D01*
X-49709160Y-32861471D01*
X-49682223Y-32942284D01*
X-49682223Y-32996158D01*
X-49709160Y-33076971D01*
X-49870784Y-33238595D01*
X-49951597Y-33265532D01*
X-50005471Y-33265532D01*
X-51956277Y-31560592D02*
X-52037089Y-31587529D01*
X-52117902Y-31668341D01*
X-52171776Y-31776091D01*
X-52171776Y-31883841D01*
X-52144839Y-31964653D01*
X-52064027Y-32099340D01*
X-51983215Y-32180152D01*
X-51848528Y-32260964D01*
X-51767715Y-32287902D01*
X-51659966Y-32287902D01*
X-51552216Y-32234027D01*
X-51498341Y-32180152D01*
X-51444467Y-32072402D01*
X-51444467Y-32018528D01*
X-51633028Y-31829966D01*
X-51740778Y-31937715D01*
X-51148155Y-31829966D02*
X-51713841Y-31264280D01*
X-51498341Y-31048781D01*
X-51417529Y-31021844D01*
X-51363654Y-31021844D01*
X-51282842Y-31048781D01*
X-51202030Y-31129593D01*
X-51175093Y-31210406D01*
X-51175093Y-31264280D01*
X-51202030Y-31345093D01*
X-51417529Y-31560592D01*
X-50286158Y-30967969D02*
X-50609407Y-31291218D01*
X-50447783Y-31129593D02*
X-51013468Y-30563908D01*
X-50986531Y-30698595D01*
X-50986531Y-30806345D01*
X-51013468Y-30887157D01*
X-50582470Y-30240659D02*
X-50582470Y-30186784D01*
X-50555532Y-30105972D01*
X-50420845Y-29971285D01*
X-50340033Y-29944348D01*
X-50286158Y-29944348D01*
X-50205346Y-29971285D01*
X-50151471Y-30025160D01*
X-50097597Y-30132910D01*
X-50097597Y-30779407D01*
X-49747410Y-30429221D01*
X-51956277Y-29020592D02*
X-52037089Y-29047529D01*
X-52117902Y-29128341D01*
X-52171776Y-29236091D01*
X-52171776Y-29343841D01*
X-52144839Y-29424653D01*
X-52064027Y-29559340D01*
X-51983215Y-29640152D01*
X-51848528Y-29720964D01*
X-51767715Y-29747902D01*
X-51659966Y-29747902D01*
X-51552216Y-29694027D01*
X-51498341Y-29640152D01*
X-51444467Y-29532402D01*
X-51444467Y-29478528D01*
X-51633028Y-29289966D01*
X-51740778Y-29397715D01*
X-51148155Y-29289966D02*
X-51713841Y-28724280D01*
X-51498341Y-28508781D01*
X-51417529Y-28481844D01*
X-51363654Y-28481844D01*
X-51282842Y-28508781D01*
X-51202030Y-28589593D01*
X-51175093Y-28670406D01*
X-51175093Y-28724280D01*
X-51202030Y-28805093D01*
X-51417529Y-29020592D01*
X-50286158Y-28427969D02*
X-50609407Y-28751218D01*
X-50447783Y-28589593D02*
X-51013468Y-28023908D01*
X-50986531Y-28158595D01*
X-50986531Y-28266345D01*
X-51013468Y-28347157D01*
X-49747410Y-27889221D02*
X-50070659Y-28212470D01*
X-49909035Y-28050845D02*
X-50474720Y-27485160D01*
X-50447783Y-27619847D01*
X-50447783Y-27727597D01*
X-50474720Y-27808409D01*
X-51810277Y-26480592D02*
X-51891089Y-26507529D01*
X-51971902Y-26588341D01*
X-52025776Y-26696091D01*
X-52025776Y-26803841D01*
X-51998839Y-26884653D01*
X-51918027Y-27019340D01*
X-51837215Y-27100152D01*
X-51702528Y-27180964D01*
X-51621715Y-27207902D01*
X-51513966Y-27207902D01*
X-51406216Y-27154027D01*
X-51352341Y-27100152D01*
X-51298467Y-26992402D01*
X-51298467Y-26938528D01*
X-51487028Y-26749966D01*
X-51594778Y-26857715D01*
X-51002155Y-26749966D02*
X-51567841Y-26184280D01*
X-51352341Y-25968781D01*
X-51271529Y-25941844D01*
X-51217654Y-25941844D01*
X-51136842Y-25968781D01*
X-51056030Y-26049593D01*
X-51029093Y-26130406D01*
X-51029093Y-26184280D01*
X-51056030Y-26265093D01*
X-51271529Y-26480592D01*
X-50140158Y-25887969D02*
X-50463407Y-26211218D01*
X-50301783Y-26049593D02*
X-50867468Y-25483908D01*
X-50840531Y-25618595D01*
X-50840531Y-25726345D01*
X-50867468Y-25807157D01*
X-50355658Y-24972097D02*
X-50301783Y-24918223D01*
X-50220971Y-24891285D01*
X-50167096Y-24891285D01*
X-50086284Y-24918223D01*
X-49951597Y-24999035D01*
X-49816910Y-25133722D01*
X-49736097Y-25268409D01*
X-49709160Y-25349221D01*
X-49709160Y-25403096D01*
X-49736097Y-25483908D01*
X-49789972Y-25537783D01*
X-49870784Y-25564720D01*
X-49924659Y-25564720D01*
X-50005471Y-25537783D01*
X-50140158Y-25456971D01*
X-50274845Y-25322284D01*
X-50355658Y-25187597D01*
X-50382595Y-25106784D01*
X-50382595Y-25052910D01*
X-50355658Y-24972097D01*
X-51286903Y-21131218D02*
X-51367715Y-21158155D01*
X-51448528Y-21238967D01*
X-51502402Y-21346717D01*
X-51502402Y-21454467D01*
X-51475465Y-21535279D01*
X-51394653Y-21669966D01*
X-51313841Y-21750778D01*
X-51179154Y-21831590D01*
X-51098341Y-21858528D01*
X-50990592Y-21858528D01*
X-50882842Y-21804653D01*
X-50828967Y-21750778D01*
X-50775093Y-21643028D01*
X-50775093Y-21589154D01*
X-50963654Y-21400592D01*
X-51071404Y-21508341D01*
X-50478781Y-21400592D02*
X-51044467Y-20834906D01*
X-50828967Y-20619407D01*
X-50748155Y-20592470D01*
X-50694280Y-20592470D01*
X-50613468Y-20619407D01*
X-50532656Y-20700219D01*
X-50505719Y-20781032D01*
X-50505719Y-20834906D01*
X-50532656Y-20915719D01*
X-50748155Y-21131218D01*
X-49886158Y-20807969D02*
X-49778409Y-20700219D01*
X-49751471Y-20619407D01*
X-49751471Y-20565532D01*
X-49778409Y-20430845D01*
X-49859221Y-20296158D01*
X-50074720Y-20080659D01*
X-50155532Y-20053722D01*
X-50209407Y-20053722D01*
X-50290219Y-20080659D01*
X-50397969Y-20188409D01*
X-50424906Y-20269221D01*
X-50424906Y-20323096D01*
X-50397969Y-20403908D01*
X-50263282Y-20538595D01*
X-50182470Y-20565532D01*
X-50128595Y-20565532D01*
X-50047783Y-20538595D01*
X-49940033Y-20430845D01*
X-49913096Y-20350033D01*
X-49913096Y-20296158D01*
X-49940033Y-20215346D01*
X-51286903Y-18591218D02*
X-51367715Y-18618155D01*
X-51448528Y-18698967D01*
X-51502402Y-18806717D01*
X-51502402Y-18914467D01*
X-51475465Y-18995279D01*
X-51394653Y-19129966D01*
X-51313841Y-19210778D01*
X-51179154Y-19291590D01*
X-51098341Y-19318528D01*
X-50990592Y-19318528D01*
X-50882842Y-19264653D01*
X-50828967Y-19210778D01*
X-50775093Y-19103028D01*
X-50775093Y-19049154D01*
X-50963654Y-18860592D01*
X-51071404Y-18968341D01*
X-50478781Y-18860592D02*
X-51044467Y-18294906D01*
X-50828967Y-18079407D01*
X-50748155Y-18052470D01*
X-50694280Y-18052470D01*
X-50613468Y-18079407D01*
X-50532656Y-18160219D01*
X-50505719Y-18241032D01*
X-50505719Y-18294906D01*
X-50532656Y-18375719D01*
X-50748155Y-18591218D01*
X-50155532Y-17890845D02*
X-50236345Y-17917783D01*
X-50290219Y-17917783D01*
X-50371032Y-17890845D01*
X-50397969Y-17863908D01*
X-50424906Y-17783096D01*
X-50424906Y-17729221D01*
X-50397969Y-17648409D01*
X-50290219Y-17540659D01*
X-50209407Y-17513722D01*
X-50155532Y-17513722D01*
X-50074720Y-17540659D01*
X-50047783Y-17567597D01*
X-50020845Y-17648409D01*
X-50020845Y-17702284D01*
X-50047783Y-17783096D01*
X-50155532Y-17890845D01*
X-50182470Y-17971658D01*
X-50182470Y-18025532D01*
X-50155532Y-18106345D01*
X-50047783Y-18214094D01*
X-49966971Y-18241032D01*
X-49913096Y-18241032D01*
X-49832284Y-18214094D01*
X-49724534Y-18106345D01*
X-49697597Y-18025532D01*
X-49697597Y-17971658D01*
X-49724534Y-17890845D01*
X-49832284Y-17783096D01*
X-49913096Y-17756158D01*
X-49966971Y-17756158D01*
X-50047783Y-17783096D01*
X-51186903Y-16021218D02*
X-51267715Y-16048155D01*
X-51348528Y-16128967D01*
X-51402402Y-16236717D01*
X-51402402Y-16344467D01*
X-51375465Y-16425279D01*
X-51294653Y-16559966D01*
X-51213841Y-16640778D01*
X-51079154Y-16721590D01*
X-50998341Y-16748528D01*
X-50890592Y-16748528D01*
X-50782842Y-16694653D01*
X-50728967Y-16640778D01*
X-50675093Y-16533028D01*
X-50675093Y-16479154D01*
X-50863654Y-16290592D01*
X-50971404Y-16398341D01*
X-50378781Y-16290592D02*
X-50944467Y-15724906D01*
X-50728967Y-15509407D01*
X-50648155Y-15482470D01*
X-50594280Y-15482470D01*
X-50513468Y-15509407D01*
X-50432656Y-15590219D01*
X-50405719Y-15671032D01*
X-50405719Y-15724906D01*
X-50432656Y-15805719D01*
X-50648155Y-16021218D01*
X-50432656Y-15213096D02*
X-50055532Y-14835972D01*
X-49732284Y-15644094D01*
X-51286903Y-13511218D02*
X-51367715Y-13538155D01*
X-51448528Y-13618967D01*
X-51502402Y-13726717D01*
X-51502402Y-13834467D01*
X-51475465Y-13915279D01*
X-51394653Y-14049966D01*
X-51313841Y-14130778D01*
X-51179154Y-14211590D01*
X-51098341Y-14238528D01*
X-50990592Y-14238528D01*
X-50882842Y-14184653D01*
X-50828967Y-14130778D01*
X-50775093Y-14023028D01*
X-50775093Y-13969154D01*
X-50963654Y-13780592D01*
X-51071404Y-13888341D01*
X-50478781Y-13780592D02*
X-51044467Y-13214906D01*
X-50828967Y-12999407D01*
X-50748155Y-12972470D01*
X-50694280Y-12972470D01*
X-50613468Y-12999407D01*
X-50532656Y-13080219D01*
X-50505719Y-13161032D01*
X-50505719Y-13214906D01*
X-50532656Y-13295719D01*
X-50748155Y-13511218D01*
X-50236345Y-12406784D02*
X-50344094Y-12514534D01*
X-50371032Y-12595346D01*
X-50371032Y-12649221D01*
X-50344094Y-12783908D01*
X-50263282Y-12918595D01*
X-50047783Y-13134094D01*
X-49966971Y-13161032D01*
X-49913096Y-13161032D01*
X-49832284Y-13134094D01*
X-49724534Y-13026345D01*
X-49697597Y-12945532D01*
X-49697597Y-12891658D01*
X-49724534Y-12810845D01*
X-49859221Y-12676158D01*
X-49940033Y-12649221D01*
X-49993908Y-12649221D01*
X-50074720Y-12676158D01*
X-50182470Y-12783908D01*
X-50209407Y-12864720D01*
X-50209407Y-12918595D01*
X-50182470Y-12999407D01*
X-51286903Y-8431218D02*
X-51367715Y-8458155D01*
X-51448528Y-8538967D01*
X-51502402Y-8646717D01*
X-51502402Y-8754467D01*
X-51475465Y-8835279D01*
X-51394653Y-8969966D01*
X-51313841Y-9050778D01*
X-51179154Y-9131590D01*
X-51098341Y-9158528D01*
X-50990592Y-9158528D01*
X-50882842Y-9104653D01*
X-50828967Y-9050778D01*
X-50775093Y-8943028D01*
X-50775093Y-8889154D01*
X-50963654Y-8700592D01*
X-51071404Y-8808341D01*
X-50478781Y-8700592D02*
X-51044467Y-8134906D01*
X-50828967Y-7919407D01*
X-50748155Y-7892470D01*
X-50694280Y-7892470D01*
X-50613468Y-7919407D01*
X-50532656Y-8000219D01*
X-50505719Y-8081032D01*
X-50505719Y-8134906D01*
X-50532656Y-8215719D01*
X-50748155Y-8431218D01*
X-50209407Y-7299847D02*
X-50478781Y-7569221D01*
X-50236345Y-7865532D01*
X-50236345Y-7811658D01*
X-50209407Y-7730845D01*
X-50074720Y-7596158D01*
X-49993908Y-7569221D01*
X-49940033Y-7569221D01*
X-49859221Y-7596158D01*
X-49724534Y-7730845D01*
X-49697597Y-7811658D01*
X-49697597Y-7865532D01*
X-49724534Y-7946345D01*
X-49859221Y-8081032D01*
X-49940033Y-8107969D01*
X-49993908Y-8107969D01*
X-51286903Y-5891218D02*
X-51367715Y-5918155D01*
X-51448528Y-5998967D01*
X-51502402Y-6106717D01*
X-51502402Y-6214467D01*
X-51475465Y-6295279D01*
X-51394653Y-6429966D01*
X-51313841Y-6510778D01*
X-51179154Y-6591590D01*
X-51098341Y-6618528D01*
X-50990592Y-6618528D01*
X-50882842Y-6564653D01*
X-50828967Y-6510778D01*
X-50775093Y-6403028D01*
X-50775093Y-6349154D01*
X-50963654Y-6160592D01*
X-51071404Y-6268341D01*
X-50478781Y-6160592D02*
X-51044467Y-5594906D01*
X-50828967Y-5379407D01*
X-50748155Y-5352470D01*
X-50694280Y-5352470D01*
X-50613468Y-5379407D01*
X-50532656Y-5460219D01*
X-50505719Y-5541032D01*
X-50505719Y-5594906D01*
X-50532656Y-5675719D01*
X-50748155Y-5891218D01*
X-50047783Y-4975346D02*
X-49670659Y-5352470D01*
X-50397969Y-4894534D02*
X-50128595Y-5433282D01*
X-49778409Y-5083096D01*
X-51286903Y-3351218D02*
X-51367715Y-3378155D01*
X-51448528Y-3458967D01*
X-51502402Y-3566717D01*
X-51502402Y-3674467D01*
X-51475465Y-3755279D01*
X-51394653Y-3889966D01*
X-51313841Y-3970778D01*
X-51179154Y-4051590D01*
X-51098341Y-4078528D01*
X-50990592Y-4078528D01*
X-50882842Y-4024653D01*
X-50828967Y-3970778D01*
X-50775093Y-3863028D01*
X-50775093Y-3809154D01*
X-50963654Y-3620592D01*
X-51071404Y-3728341D01*
X-50478781Y-3620592D02*
X-51044467Y-3054906D01*
X-50828967Y-2839407D01*
X-50748155Y-2812470D01*
X-50694280Y-2812470D01*
X-50613468Y-2839407D01*
X-50532656Y-2920219D01*
X-50505719Y-3001032D01*
X-50505719Y-3054906D01*
X-50532656Y-3135719D01*
X-50748155Y-3351218D01*
X-50532656Y-2543096D02*
X-50182470Y-2192910D01*
X-50155532Y-2596971D01*
X-50074720Y-2516158D01*
X-49993908Y-2489221D01*
X-49940033Y-2489221D01*
X-49859221Y-2516158D01*
X-49724534Y-2650845D01*
X-49697597Y-2731658D01*
X-49697597Y-2785532D01*
X-49724534Y-2866345D01*
X-49886158Y-3027969D01*
X-49966971Y-3054906D01*
X-50020845Y-3054906D01*
X-51286903Y6808781D02*
X-51367715Y6781844D01*
X-51448528Y6701032D01*
X-51502402Y6593282D01*
X-51502402Y6485532D01*
X-51475465Y6404720D01*
X-51394653Y6270033D01*
X-51313841Y6189221D01*
X-51179154Y6108409D01*
X-51098341Y6081471D01*
X-50990592Y6081471D01*
X-50882842Y6135346D01*
X-50828967Y6189221D01*
X-50775093Y6296971D01*
X-50775093Y6350845D01*
X-50963654Y6539407D01*
X-51071404Y6431658D01*
X-50478781Y6539407D02*
X-51044467Y7105093D01*
X-50828967Y7320592D01*
X-50748155Y7347529D01*
X-50694280Y7347529D01*
X-50613468Y7320592D01*
X-50532656Y7239780D01*
X-50505719Y7158967D01*
X-50505719Y7105093D01*
X-50532656Y7024280D01*
X-50748155Y6808781D01*
X-50371032Y7778528D02*
X-50317157Y7832402D01*
X-50236345Y7859340D01*
X-50182470Y7859340D01*
X-50101658Y7832402D01*
X-49966971Y7751590D01*
X-49832284Y7616903D01*
X-49751471Y7482216D01*
X-49724534Y7401404D01*
X-49724534Y7347529D01*
X-49751471Y7266717D01*
X-49805346Y7212842D01*
X-49886158Y7185905D01*
X-49940033Y7185905D01*
X-50020845Y7212842D01*
X-50155532Y7293654D01*
X-50290219Y7428341D01*
X-50371032Y7563028D01*
X-50397969Y7643841D01*
X-50397969Y7697715D01*
X-50371032Y7778528D01*
X-51386903Y-811218D02*
X-51467715Y-838155D01*
X-51548528Y-918967D01*
X-51602402Y-1026717D01*
X-51602402Y-1134467D01*
X-51575465Y-1215279D01*
X-51494653Y-1349966D01*
X-51413841Y-1430778D01*
X-51279154Y-1511590D01*
X-51198341Y-1538528D01*
X-51090592Y-1538528D01*
X-50982842Y-1484653D01*
X-50928967Y-1430778D01*
X-50875093Y-1323028D01*
X-50875093Y-1269154D01*
X-51063654Y-1080592D01*
X-51171404Y-1188341D01*
X-50578781Y-1080592D02*
X-51144467Y-514906D01*
X-50928967Y-299407D01*
X-50848155Y-272470D01*
X-50794280Y-272470D01*
X-50713468Y-299407D01*
X-50632656Y-380219D01*
X-50605719Y-461032D01*
X-50605719Y-514906D01*
X-50632656Y-595719D01*
X-50848155Y-811218D01*
X-50551844Y-30033D02*
X-50551844Y23841D01*
X-50524906Y104653D01*
X-50390219Y239340D01*
X-50309407Y266277D01*
X-50255532Y266277D01*
X-50174720Y239340D01*
X-50120845Y185465D01*
X-50066971Y77715D01*
X-50066971Y-568781D01*
X-49716784Y-218595D01*
X-51386903Y4278781D02*
X-51467715Y4251844D01*
X-51548528Y4171032D01*
X-51602402Y4063282D01*
X-51602402Y3955532D01*
X-51575465Y3874720D01*
X-51494653Y3740033D01*
X-51413841Y3659221D01*
X-51279154Y3578409D01*
X-51198341Y3551471D01*
X-51090592Y3551471D01*
X-50982842Y3605346D01*
X-50928967Y3659221D01*
X-50875093Y3766971D01*
X-50875093Y3820845D01*
X-51063654Y4009407D01*
X-51171404Y3901658D01*
X-50578781Y4009407D02*
X-51144467Y4575093D01*
X-50928967Y4790592D01*
X-50848155Y4817529D01*
X-50794280Y4817529D01*
X-50713468Y4790592D01*
X-50632656Y4709780D01*
X-50605719Y4628967D01*
X-50605719Y4575093D01*
X-50632656Y4494280D01*
X-50848155Y4278781D01*
X-49716784Y4871404D02*
X-50040033Y4548155D01*
X-49878409Y4709780D02*
X-50444094Y5275465D01*
X-50417157Y5140778D01*
X-50417157Y5033028D01*
X-50444094Y4952216D01*
X-70321904Y-16612381D02*
X-70321904Y-17421905D01*
X-70274285Y-17517143D01*
X-70226666Y-17564762D01*
X-70131428Y-17612381D01*
X-69940952Y-17612381D01*
X-69845714Y-17564762D01*
X-69798095Y-17517143D01*
X-69750476Y-17421905D01*
X-69750476Y-16612381D01*
X-68750476Y-17612381D02*
X-69321904Y-17612381D01*
X-69036190Y-17612381D02*
X-69036190Y-16612381D01*
X-69131428Y-16755239D01*
X-69226666Y-16850477D01*
X-69321904Y-16898096D01*
X-65655238Y-43683810D02*
X-65540952Y-43721905D01*
X-65350476Y-43721905D01*
X-65274285Y-43683810D01*
X-65236190Y-43645715D01*
X-65198095Y-43569524D01*
X-65198095Y-43493334D01*
X-65236190Y-43417143D01*
X-65274285Y-43379048D01*
X-65350476Y-43340953D01*
X-65502857Y-43302858D01*
X-65579047Y-43264762D01*
X-65617142Y-43226667D01*
X-65655238Y-43150477D01*
X-65655238Y-43074286D01*
X-65617142Y-42998096D01*
X-65579047Y-42960001D01*
X-65502857Y-42921905D01*
X-65312380Y-42921905D01*
X-65198095Y-42960001D01*
X-64931428Y-42921905D02*
X-64740952Y-43721905D01*
X-64588571Y-43150477D01*
X-64436190Y-43721905D01*
X-64245714Y-42921905D01*
X-63940952Y-43721905D02*
X-63940952Y-42921905D01*
X-63750476Y-42921905D01*
X-63636190Y-42960001D01*
X-63560000Y-43036191D01*
X-63521904Y-43112381D01*
X-63483809Y-43264762D01*
X-63483809Y-43379048D01*
X-63521904Y-43531429D01*
X-63560000Y-43607620D01*
X-63636190Y-43683810D01*
X-63750476Y-43721905D01*
X-63940952Y-43721905D01*
X-63140952Y-43721905D02*
X-63140952Y-42921905D01*
X-62607619Y-42921905D02*
X-62455238Y-42921905D01*
X-62379047Y-42960001D01*
X-62302857Y-43036191D01*
X-62264761Y-43188572D01*
X-62264761Y-43455239D01*
X-62302857Y-43607620D01*
X-62379047Y-43683810D01*
X-62455238Y-43721905D01*
X-62607619Y-43721905D01*
X-62683809Y-43683810D01*
X-62760000Y-43607620D01*
X-62798095Y-43455239D01*
X-62798095Y-43188572D01*
X-62760000Y-43036191D01*
X-62683809Y-42960001D01*
X-62607619Y-42921905D01*
X-77069523Y-43683810D02*
X-76955238Y-43721905D01*
X-76764761Y-43721905D01*
X-76688571Y-43683810D01*
X-76650476Y-43645715D01*
X-76612380Y-43569524D01*
X-76612380Y-43493334D01*
X-76650476Y-43417143D01*
X-76688571Y-43379048D01*
X-76764761Y-43340953D01*
X-76917142Y-43302858D01*
X-76993333Y-43264762D01*
X-77031428Y-43226667D01*
X-77069523Y-43150477D01*
X-77069523Y-43074286D01*
X-77031428Y-42998096D01*
X-76993333Y-42960001D01*
X-76917142Y-42921905D01*
X-76726666Y-42921905D01*
X-76612380Y-42960001D01*
X-76345714Y-42921905D02*
X-76155238Y-43721905D01*
X-76002857Y-43150477D01*
X-75850476Y-43721905D01*
X-75660000Y-42921905D01*
X-74898095Y-43645715D02*
X-74936190Y-43683810D01*
X-75050476Y-43721905D01*
X-75126666Y-43721905D01*
X-75240952Y-43683810D01*
X-75317142Y-43607620D01*
X-75355238Y-43531429D01*
X-75393333Y-43379048D01*
X-75393333Y-43264762D01*
X-75355238Y-43112381D01*
X-75317142Y-43036191D01*
X-75240952Y-42960001D01*
X-75126666Y-42921905D01*
X-75050476Y-42921905D01*
X-74936190Y-42960001D01*
X-74898095Y-42998096D01*
X-74174285Y-43721905D02*
X-74555238Y-43721905D01*
X-74555238Y-42921905D01*
X-73907619Y-43721905D02*
X-73907619Y-42921905D01*
X-73450476Y-43721905D02*
X-73793333Y-43264762D01*
X-73450476Y-42921905D02*
X-73907619Y-43379048D01*
X-57408402Y-11900965D02*
X-57139028Y-11631591D01*
X-57300653Y-12116464D02*
X-57677776Y-11362217D01*
X-56923529Y-11739341D01*
X-56977404Y-10715720D02*
X-57058216Y-10742657D01*
X-57139028Y-10823469D01*
X-57192903Y-10931219D01*
X-57192903Y-11038968D01*
X-57165966Y-11119781D01*
X-57085154Y-11254468D01*
X-57004341Y-11335280D01*
X-56869654Y-11416092D01*
X-56788842Y-11443029D01*
X-56681093Y-11443029D01*
X-56573343Y-11389155D01*
X-56519468Y-11335280D01*
X-56465593Y-11227530D01*
X-56465593Y-11173655D01*
X-56654155Y-10985094D01*
X-56761905Y-11092843D01*
X-56169282Y-10985094D02*
X-56734967Y-10419408D01*
X-55846033Y-10661845D01*
X-56411719Y-10096159D01*
X-55576659Y-10392471D02*
X-56142345Y-9826785D01*
X-56007658Y-9692098D01*
X-55899908Y-9638224D01*
X-55792158Y-9638224D01*
X-55711346Y-9665161D01*
X-55576659Y-9745973D01*
X-55495847Y-9826785D01*
X-55415035Y-9961472D01*
X-55388097Y-10042285D01*
X-55388097Y-10150034D01*
X-55441972Y-10257784D01*
X-55576659Y-10392471D01*
X-57473841Y1741843D02*
X-57554653Y1714905D01*
X-57635465Y1634093D01*
X-57689340Y1526344D01*
X-57689340Y1418594D01*
X-57662402Y1337782D01*
X-57581590Y1203095D01*
X-57500778Y1122283D01*
X-57366091Y1041470D01*
X-57285279Y1014533D01*
X-57177529Y1014533D01*
X-57069780Y1068408D01*
X-57015905Y1122283D01*
X-56962030Y1230032D01*
X-56962030Y1283907D01*
X-57150592Y1472469D01*
X-57258341Y1364719D01*
X-56665719Y1472469D02*
X-57231404Y2038154D01*
X-56342470Y1795718D01*
X-56908155Y2361403D01*
X-56073096Y2065092D02*
X-56638781Y2630777D01*
X-56504094Y2765464D01*
X-56396345Y2819339D01*
X-56288595Y2819339D01*
X-56207783Y2792401D01*
X-56073096Y2711589D01*
X-55992284Y2630777D01*
X-55911471Y2496090D01*
X-55884534Y2415278D01*
X-55884534Y2307528D01*
X-55938409Y2199779D01*
X-56073096Y2065092D01*
X-57473841Y-23658156D02*
X-57554653Y-23685094D01*
X-57635465Y-23765906D01*
X-57689340Y-23873655D01*
X-57689340Y-23981405D01*
X-57662402Y-24062217D01*
X-57581590Y-24196904D01*
X-57500778Y-24277716D01*
X-57366091Y-24358529D01*
X-57285279Y-24385466D01*
X-57177529Y-24385466D01*
X-57069780Y-24331591D01*
X-57015905Y-24277716D01*
X-56962030Y-24169967D01*
X-56962030Y-24116092D01*
X-57150592Y-23927530D01*
X-57258341Y-24035280D01*
X-56665719Y-23927530D02*
X-57231404Y-23361845D01*
X-56342470Y-23604281D01*
X-56908155Y-23038596D01*
X-56073096Y-23334907D02*
X-56638781Y-22769222D01*
X-56504094Y-22634535D01*
X-56396345Y-22580660D01*
X-56288595Y-22580660D01*
X-56207783Y-22607598D01*
X-56073096Y-22688410D01*
X-55992284Y-22769222D01*
X-55911471Y-22903909D01*
X-55884534Y-22984721D01*
X-55884534Y-23092471D01*
X-55938409Y-23200220D01*
X-56073096Y-23334907D01*
X-57473841Y-36358156D02*
X-57554653Y-36385094D01*
X-57635465Y-36465906D01*
X-57689340Y-36573655D01*
X-57689340Y-36681405D01*
X-57662402Y-36762217D01*
X-57581590Y-36896904D01*
X-57500778Y-36977716D01*
X-57366091Y-37058529D01*
X-57285279Y-37085466D01*
X-57177529Y-37085466D01*
X-57069780Y-37031591D01*
X-57015905Y-36977716D01*
X-56962030Y-36869967D01*
X-56962030Y-36816092D01*
X-57150592Y-36627530D01*
X-57258341Y-36735280D01*
X-56665719Y-36627530D02*
X-57231404Y-36061845D01*
X-56342470Y-36304281D01*
X-56908155Y-35738596D01*
X-56073096Y-36034907D02*
X-56638781Y-35469222D01*
X-56504094Y-35334535D01*
X-56396345Y-35280660D01*
X-56288595Y-35280660D01*
X-56207783Y-35307598D01*
X-56073096Y-35388410D01*
X-55992284Y-35469222D01*
X-55911471Y-35603909D01*
X-55884534Y-35684721D01*
X-55884534Y-35792471D01*
X-55938409Y-35900220D01*
X-56073096Y-36034907D01*
X-83073841Y-36358156D02*
X-83154653Y-36385094D01*
X-83235465Y-36465906D01*
X-83289340Y-36573655D01*
X-83289340Y-36681405D01*
X-83262402Y-36762217D01*
X-83181590Y-36896904D01*
X-83100778Y-36977716D01*
X-82966091Y-37058529D01*
X-82885279Y-37085466D01*
X-82777529Y-37085466D01*
X-82669780Y-37031591D01*
X-82615905Y-36977716D01*
X-82562030Y-36869967D01*
X-82562030Y-36816092D01*
X-82750592Y-36627530D01*
X-82858341Y-36735280D01*
X-82265719Y-36627530D02*
X-82831404Y-36061845D01*
X-81942470Y-36304281D01*
X-82508155Y-35738596D01*
X-81673096Y-36034907D02*
X-82238781Y-35469222D01*
X-82104094Y-35334535D01*
X-81996345Y-35280660D01*
X-81888595Y-35280660D01*
X-81807783Y-35307598D01*
X-81673096Y-35388410D01*
X-81592284Y-35469222D01*
X-81511471Y-35603909D01*
X-81484534Y-35684721D01*
X-81484534Y-35792471D01*
X-81538409Y-35900220D01*
X-81673096Y-36034907D01*
X-83073841Y-23658156D02*
X-83154653Y-23685094D01*
X-83235465Y-23765906D01*
X-83289340Y-23873655D01*
X-83289340Y-23981405D01*
X-83262402Y-24062217D01*
X-83181590Y-24196904D01*
X-83100778Y-24277716D01*
X-82966091Y-24358529D01*
X-82885279Y-24385466D01*
X-82777529Y-24385466D01*
X-82669780Y-24331591D01*
X-82615905Y-24277716D01*
X-82562030Y-24169967D01*
X-82562030Y-24116092D01*
X-82750592Y-23927530D01*
X-82858341Y-24035280D01*
X-82265719Y-23927530D02*
X-82831404Y-23361845D01*
X-81942470Y-23604281D01*
X-82508155Y-23038596D01*
X-81673096Y-23334907D02*
X-82238781Y-22769222D01*
X-82104094Y-22634535D01*
X-81996345Y-22580660D01*
X-81888595Y-22580660D01*
X-81807783Y-22607598D01*
X-81673096Y-22688410D01*
X-81592284Y-22769222D01*
X-81511471Y-22903909D01*
X-81484534Y-22984721D01*
X-81484534Y-23092471D01*
X-81538409Y-23200220D01*
X-81673096Y-23334907D01*
X-83073841Y-10958156D02*
X-83154653Y-10985094D01*
X-83235465Y-11065906D01*
X-83289340Y-11173655D01*
X-83289340Y-11281405D01*
X-83262402Y-11362217D01*
X-83181590Y-11496904D01*
X-83100778Y-11577716D01*
X-82966091Y-11658529D01*
X-82885279Y-11685466D01*
X-82777529Y-11685466D01*
X-82669780Y-11631591D01*
X-82615905Y-11577716D01*
X-82562030Y-11469967D01*
X-82562030Y-11416092D01*
X-82750592Y-11227530D01*
X-82858341Y-11335280D01*
X-82265719Y-11227530D02*
X-82831404Y-10661845D01*
X-81942470Y-10904281D01*
X-82508155Y-10338596D01*
X-81673096Y-10634907D02*
X-82238781Y-10069222D01*
X-82104094Y-9934535D01*
X-81996345Y-9880660D01*
X-81888595Y-9880660D01*
X-81807783Y-9907598D01*
X-81673096Y-9988410D01*
X-81592284Y-10069222D01*
X-81511471Y-10203909D01*
X-81484534Y-10284721D01*
X-81484534Y-10392471D01*
X-81538409Y-10500220D01*
X-81673096Y-10634907D01*
X-83073841Y1741843D02*
X-83154653Y1714905D01*
X-83235465Y1634093D01*
X-83289340Y1526344D01*
X-83289340Y1418594D01*
X-83262402Y1337782D01*
X-83181590Y1203095D01*
X-83100778Y1122283D01*
X-82966091Y1041470D01*
X-82885279Y1014533D01*
X-82777529Y1014533D01*
X-82669780Y1068408D01*
X-82615905Y1122283D01*
X-82562030Y1230032D01*
X-82562030Y1283907D01*
X-82750592Y1472469D01*
X-82858341Y1364719D01*
X-82265719Y1472469D02*
X-82831404Y2038154D01*
X-81942470Y1795718D01*
X-82508155Y2361403D01*
X-81673096Y2065092D02*
X-82238781Y2630777D01*
X-82104094Y2765464D01*
X-81996345Y2819339D01*
X-81888595Y2819339D01*
X-81807783Y2792401D01*
X-81673096Y2711589D01*
X-81592284Y2630777D01*
X-81511471Y2496090D01*
X-81484534Y2415278D01*
X-81484534Y2307528D01*
X-81538409Y2199779D01*
X-81673096Y2065092D01*
X-57606870Y6312689D02*
X-56852622Y5935565D01*
X-57229746Y6689812D01*
X-56583248Y6797562D02*
X-56475499Y6851437D01*
X-56421624Y6851437D01*
X-56340812Y6824499D01*
X-56260000Y6743687D01*
X-56233062Y6662875D01*
X-56233062Y6609000D01*
X-56260000Y6528188D01*
X-56475499Y6312689D01*
X-57041184Y6878374D01*
X-56852622Y7066936D01*
X-56771810Y7093873D01*
X-56717935Y7093873D01*
X-56637123Y7066936D01*
X-56583248Y7013061D01*
X-56556311Y6932249D01*
X-56556311Y6878374D01*
X-56583248Y6797562D01*
X-56771810Y6609000D01*
X-56475499Y7444060D02*
X-56017563Y6986124D01*
X-55936751Y6959186D01*
X-55882876Y6959186D01*
X-55802064Y6986124D01*
X-55694314Y7093873D01*
X-55667377Y7174686D01*
X-55667377Y7228560D01*
X-55694314Y7309373D01*
X-56152250Y7767308D01*
X-55371065Y7470997D02*
X-55263316Y7524872D01*
X-55128629Y7659559D01*
X-55101691Y7740371D01*
X-55101691Y7794246D01*
X-55128629Y7875058D01*
X-55182503Y7928933D01*
X-55263316Y7955870D01*
X-55317190Y7955870D01*
X-55398003Y7928933D01*
X-55532690Y7848121D01*
X-55613502Y7821183D01*
X-55667377Y7821183D01*
X-55748189Y7848121D01*
X-55802064Y7901995D01*
X-55829001Y7982808D01*
X-55829001Y8036682D01*
X-55802064Y8117495D01*
X-55667377Y8252182D01*
X-55559627Y8306056D01*
X-57639526Y3770032D02*
X-56885279Y3392909D01*
X-57262402Y4147156D01*
X-56562030Y3770032D02*
X-56454280Y3823907D01*
X-56319593Y3958594D01*
X-56292656Y4039406D01*
X-56292656Y4093281D01*
X-56319593Y4174093D01*
X-56373468Y4227968D01*
X-56454280Y4254905D01*
X-56508155Y4254905D01*
X-56588967Y4227968D01*
X-56723654Y4147156D01*
X-56804467Y4120218D01*
X-56858341Y4120218D01*
X-56939154Y4147156D01*
X-56993028Y4201031D01*
X-57019966Y4281843D01*
X-57019966Y4335718D01*
X-56993028Y4416530D01*
X-56858341Y4551217D01*
X-56750592Y4605092D01*
X-56131032Y4685904D02*
X-55861658Y4416530D01*
X-56615905Y4793653D02*
X-56131032Y4685904D01*
X-56238781Y5170777D01*
X-55538409Y4793653D02*
X-55430659Y4847528D01*
X-55295972Y4982215D01*
X-55269035Y5063027D01*
X-55269035Y5116902D01*
X-55295972Y5197714D01*
X-55349847Y5251589D01*
X-55430659Y5278527D01*
X-55484534Y5278527D01*
X-55565346Y5251589D01*
X-55700033Y5170777D01*
X-55780845Y5143840D01*
X-55834720Y5143840D01*
X-55915532Y5170777D01*
X-55969407Y5224652D01*
X-55996345Y5305464D01*
X-55996345Y5359339D01*
X-55969407Y5440151D01*
X-55834720Y5574838D01*
X-55726971Y5628713D01*
X-57637868Y-1118309D02*
X-57287682Y-768123D01*
X-57260744Y-1172184D01*
X-57179932Y-1091371D01*
X-57099120Y-1064434D01*
X-57045245Y-1064434D01*
X-56964433Y-1091371D01*
X-56829746Y-1226058D01*
X-56802809Y-1306871D01*
X-56802809Y-1360745D01*
X-56829746Y-1441558D01*
X-56991370Y-1603182D01*
X-57072183Y-1630119D01*
X-57126057Y-1630119D01*
X-57126057Y-606498D02*
X-56371810Y-983622D01*
X-56748934Y-229375D01*
X-56614247Y-94688D02*
X-56264061Y255498D01*
X-56237123Y-148562D01*
X-56156311Y-67750D01*
X-56075499Y-40813D01*
X-56021624Y-40813D01*
X-55940812Y-67750D01*
X-55806125Y-202437D01*
X-55779187Y-283249D01*
X-55779187Y-337124D01*
X-55806125Y-417936D01*
X-55967749Y-579561D01*
X-56048561Y-606498D01*
X-56102436Y-606498D01*
X-55536751Y-256312D02*
X-55105752Y174686D01*
X-55321251Y659559D02*
X-55132690Y848121D01*
X-54755566Y632621D02*
X-55024940Y363247D01*
X-55590625Y928933D01*
X-55321251Y1198307D01*
X-54513129Y875058D02*
X-55078815Y1440743D01*
X-54189881Y1198307D01*
X-54755566Y1763992D01*
X-57670152Y-3650593D02*
X-57319966Y-3300407D01*
X-57293028Y-3704468D01*
X-57212216Y-3623655D01*
X-57131404Y-3596718D01*
X-57077529Y-3596718D01*
X-56996717Y-3623655D01*
X-56862030Y-3758342D01*
X-56835093Y-3839155D01*
X-56835093Y-3893029D01*
X-56862030Y-3973842D01*
X-57023654Y-4135466D01*
X-57104467Y-4162403D01*
X-57158341Y-4162403D01*
X-57158341Y-3138782D02*
X-56404094Y-3515906D01*
X-56781218Y-2761659D01*
X-56646531Y-2626972D02*
X-56296345Y-2276785D01*
X-56269407Y-2680846D01*
X-56188595Y-2600034D01*
X-56107783Y-2573097D01*
X-56053908Y-2573097D01*
X-55973096Y-2600034D01*
X-55838409Y-2734721D01*
X-55811471Y-2815533D01*
X-55811471Y-2869408D01*
X-55838409Y-2950220D01*
X-56000033Y-3111845D01*
X-56080845Y-3138782D01*
X-56134720Y-3138782D01*
X-57405211Y-6693774D02*
X-57135837Y-6424400D01*
X-57297462Y-6909273D02*
X-57674585Y-6155026D01*
X-56920338Y-6532150D01*
X-56731776Y-6343588D02*
X-57297462Y-5777903D01*
X-57162775Y-5643216D01*
X-57055025Y-5589341D01*
X-56947276Y-5589341D01*
X-56866463Y-5616278D01*
X-56731776Y-5697090D01*
X-56650964Y-5777903D01*
X-56570152Y-5912590D01*
X-56543215Y-5993402D01*
X-56543215Y-6101151D01*
X-56597089Y-6208901D01*
X-56731776Y-6343588D01*
X-55896717Y-5400779D02*
X-55896717Y-5454654D01*
X-55950592Y-5562403D01*
X-56004467Y-5616278D01*
X-56112216Y-5670153D01*
X-56219966Y-5670153D01*
X-56300778Y-5643216D01*
X-56435465Y-5562403D01*
X-56516277Y-5481591D01*
X-56597089Y-5346904D01*
X-56624027Y-5266092D01*
X-56624027Y-5158342D01*
X-56570152Y-5050593D01*
X-56516277Y-4996718D01*
X-56408528Y-4942843D01*
X-56354653Y-4942843D01*
X-55681218Y-5400779D02*
X-55250219Y-4969781D01*
X-55815905Y-4296346D02*
X-55061658Y-4673469D01*
X-55438781Y-3919222D01*
X-54361285Y-3973097D02*
X-54819221Y-3892285D01*
X-54684534Y-4296346D02*
X-55250219Y-3730660D01*
X-55034720Y-3515161D01*
X-54953908Y-3488224D01*
X-54900033Y-3488224D01*
X-54819221Y-3515161D01*
X-54738409Y-3595973D01*
X-54711471Y-3676785D01*
X-54711471Y-3730660D01*
X-54738409Y-3811472D01*
X-54953908Y-4026972D01*
X-54415160Y-3434349D02*
X-54226598Y-3245787D01*
X-53849475Y-3461286D02*
X-54118849Y-3730660D01*
X-54684534Y-3164975D01*
X-54415160Y-2895601D01*
X-53714788Y-2733976D02*
X-53903349Y-2922538D01*
X-53607038Y-3218850D02*
X-54172723Y-2653164D01*
X-53903349Y-2383790D01*
X-57462277Y-8406593D02*
X-57543089Y-8433530D01*
X-57623902Y-8514342D01*
X-57677776Y-8622092D01*
X-57677776Y-8729842D01*
X-57650839Y-8810654D01*
X-57570027Y-8945341D01*
X-57489215Y-9026153D01*
X-57354528Y-9106965D01*
X-57273715Y-9133903D01*
X-57165966Y-9133903D01*
X-57058216Y-9080028D01*
X-57004341Y-9026153D01*
X-56950467Y-8918403D01*
X-56950467Y-8864529D01*
X-57139028Y-8675967D01*
X-57246778Y-8783716D01*
X-56654155Y-8675967D02*
X-57219841Y-8110281D01*
X-57004341Y-7894782D01*
X-56923529Y-7867845D01*
X-56869654Y-7867845D01*
X-56788842Y-7894782D01*
X-56708030Y-7975594D01*
X-56681093Y-8056407D01*
X-56681093Y-8110281D01*
X-56708030Y-8191094D01*
X-56923529Y-8406593D01*
X-56627218Y-7625408D02*
X-56627218Y-7571533D01*
X-56600280Y-7490721D01*
X-56465593Y-7356034D01*
X-56384781Y-7329097D01*
X-56330906Y-7329097D01*
X-56250094Y-7356034D01*
X-56196219Y-7409909D01*
X-56142345Y-7517659D01*
X-56142345Y-8164156D01*
X-55792158Y-7813970D01*
X-55792158Y-7167472D02*
X-55872971Y-7194410D01*
X-55926845Y-7194410D01*
X-56007658Y-7167472D01*
X-56034595Y-7140535D01*
X-56061532Y-7059723D01*
X-56061532Y-7005848D01*
X-56034595Y-6925036D01*
X-55926845Y-6817286D01*
X-55846033Y-6790349D01*
X-55792158Y-6790349D01*
X-55711346Y-6817286D01*
X-55684409Y-6844224D01*
X-55657471Y-6925036D01*
X-55657471Y-6978911D01*
X-55684409Y-7059723D01*
X-55792158Y-7167472D01*
X-55819096Y-7248285D01*
X-55819096Y-7302159D01*
X-55792158Y-7382972D01*
X-55684409Y-7490721D01*
X-55603597Y-7517659D01*
X-55549722Y-7517659D01*
X-55468910Y-7490721D01*
X-55361160Y-7382972D01*
X-55334223Y-7302159D01*
X-55334223Y-7248285D01*
X-55361160Y-7167472D01*
X-55468910Y-7059723D01*
X-55549722Y-7032785D01*
X-55603597Y-7032785D01*
X-55684409Y-7059723D01*
X-57462277Y-13750593D02*
X-57543089Y-13777530D01*
X-57623902Y-13858342D01*
X-57677776Y-13966092D01*
X-57677776Y-14073842D01*
X-57650839Y-14154654D01*
X-57570027Y-14289341D01*
X-57489215Y-14370153D01*
X-57354528Y-14450965D01*
X-57273715Y-14477903D01*
X-57165966Y-14477903D01*
X-57058216Y-14424028D01*
X-57004341Y-14370153D01*
X-56950467Y-14262403D01*
X-56950467Y-14208529D01*
X-57139028Y-14019967D01*
X-57246778Y-14127716D01*
X-56654155Y-14019967D02*
X-57219841Y-13454281D01*
X-57004341Y-13238782D01*
X-56923529Y-13211845D01*
X-56869654Y-13211845D01*
X-56788842Y-13238782D01*
X-56708030Y-13319594D01*
X-56681093Y-13400407D01*
X-56681093Y-13454281D01*
X-56708030Y-13535094D01*
X-56923529Y-13750593D01*
X-56627218Y-12969408D02*
X-56627218Y-12915533D01*
X-56600280Y-12834721D01*
X-56465593Y-12700034D01*
X-56384781Y-12673097D01*
X-56330906Y-12673097D01*
X-56250094Y-12700034D01*
X-56196219Y-12753909D01*
X-56142345Y-12861659D01*
X-56142345Y-13508156D01*
X-55792158Y-13157970D01*
X-56169282Y-12403723D02*
X-55792158Y-12026599D01*
X-55468910Y-12834721D01*
X-57462277Y-16280593D02*
X-57543089Y-16307530D01*
X-57623902Y-16388342D01*
X-57677776Y-16496092D01*
X-57677776Y-16603842D01*
X-57650839Y-16684654D01*
X-57570027Y-16819341D01*
X-57489215Y-16900153D01*
X-57354528Y-16980965D01*
X-57273715Y-17007903D01*
X-57165966Y-17007903D01*
X-57058216Y-16954028D01*
X-57004341Y-16900153D01*
X-56950467Y-16792403D01*
X-56950467Y-16738529D01*
X-57139028Y-16549967D01*
X-57246778Y-16657716D01*
X-56654155Y-16549967D02*
X-57219841Y-15984281D01*
X-57004341Y-15768782D01*
X-56923529Y-15741845D01*
X-56869654Y-15741845D01*
X-56788842Y-15768782D01*
X-56708030Y-15849594D01*
X-56681093Y-15930407D01*
X-56681093Y-15984281D01*
X-56708030Y-16065094D01*
X-56923529Y-16280593D01*
X-56627218Y-15499408D02*
X-56627218Y-15445533D01*
X-56600280Y-15364721D01*
X-56465593Y-15230034D01*
X-56384781Y-15203097D01*
X-56330906Y-15203097D01*
X-56250094Y-15230034D01*
X-56196219Y-15283909D01*
X-56142345Y-15391659D01*
X-56142345Y-16038156D01*
X-55792158Y-15687970D01*
X-55872971Y-14637411D02*
X-55980720Y-14745161D01*
X-56007658Y-14825973D01*
X-56007658Y-14879848D01*
X-55980720Y-15014535D01*
X-55899908Y-15149222D01*
X-55684409Y-15364721D01*
X-55603597Y-15391659D01*
X-55549722Y-15391659D01*
X-55468910Y-15364721D01*
X-55361160Y-15256972D01*
X-55334223Y-15176159D01*
X-55334223Y-15122285D01*
X-55361160Y-15041472D01*
X-55495847Y-14906785D01*
X-55576659Y-14879848D01*
X-55630534Y-14879848D01*
X-55711346Y-14906785D01*
X-55819096Y-15014535D01*
X-55846033Y-15095347D01*
X-55846033Y-15149222D01*
X-55819096Y-15230034D01*
X-56721624Y-19103436D02*
X-57179560Y-19022623D01*
X-57044873Y-19426684D02*
X-57610558Y-18860999D01*
X-57395059Y-18645500D01*
X-57314247Y-18618562D01*
X-57260372Y-18618562D01*
X-57179560Y-18645500D01*
X-57098748Y-18726312D01*
X-57071810Y-18807124D01*
X-57071810Y-18860999D01*
X-57098748Y-18941811D01*
X-57314247Y-19157310D01*
X-57044873Y-18295313D02*
X-56586937Y-18753249D01*
X-56506125Y-18780187D01*
X-56452250Y-18780187D01*
X-56371438Y-18753249D01*
X-56263688Y-18645500D01*
X-56236751Y-18564688D01*
X-56236751Y-18510813D01*
X-56263688Y-18430001D01*
X-56721624Y-17972065D01*
X-55886564Y-18268376D02*
X-56452250Y-17702691D01*
X-55563316Y-17945127D01*
X-56129001Y-17379442D01*
X-57462277Y-21360593D02*
X-57543089Y-21387530D01*
X-57623902Y-21468342D01*
X-57677776Y-21576092D01*
X-57677776Y-21683842D01*
X-57650839Y-21764654D01*
X-57570027Y-21899341D01*
X-57489215Y-21980153D01*
X-57354528Y-22060965D01*
X-57273715Y-22087903D01*
X-57165966Y-22087903D01*
X-57058216Y-22034028D01*
X-57004341Y-21980153D01*
X-56950467Y-21872403D01*
X-56950467Y-21818529D01*
X-57139028Y-21629967D01*
X-57246778Y-21737716D01*
X-56654155Y-21629967D02*
X-57219841Y-21064281D01*
X-57004341Y-20848782D01*
X-56923529Y-20821845D01*
X-56869654Y-20821845D01*
X-56788842Y-20848782D01*
X-56708030Y-20929594D01*
X-56681093Y-21010407D01*
X-56681093Y-21064281D01*
X-56708030Y-21145094D01*
X-56923529Y-21360593D01*
X-56627218Y-20579408D02*
X-56627218Y-20525533D01*
X-56600280Y-20444721D01*
X-56465593Y-20310034D01*
X-56384781Y-20283097D01*
X-56330906Y-20283097D01*
X-56250094Y-20310034D01*
X-56196219Y-20363909D01*
X-56142345Y-20471659D01*
X-56142345Y-21118156D01*
X-55792158Y-20767970D01*
X-56088470Y-20040660D02*
X-56088470Y-19986785D01*
X-56061532Y-19905973D01*
X-55926845Y-19771286D01*
X-55846033Y-19744349D01*
X-55792158Y-19744349D01*
X-55711346Y-19771286D01*
X-55657471Y-19825161D01*
X-55603597Y-19932911D01*
X-55603597Y-20579408D01*
X-55253410Y-20229222D01*
X-57462277Y-26450593D02*
X-57543089Y-26477530D01*
X-57623902Y-26558342D01*
X-57677776Y-26666092D01*
X-57677776Y-26773842D01*
X-57650839Y-26854654D01*
X-57570027Y-26989341D01*
X-57489215Y-27070153D01*
X-57354528Y-27150965D01*
X-57273715Y-27177903D01*
X-57165966Y-27177903D01*
X-57058216Y-27124028D01*
X-57004341Y-27070153D01*
X-56950467Y-26962403D01*
X-56950467Y-26908529D01*
X-57139028Y-26719967D01*
X-57246778Y-26827716D01*
X-56654155Y-26719967D02*
X-57219841Y-26154281D01*
X-57004341Y-25938782D01*
X-56923529Y-25911845D01*
X-56869654Y-25911845D01*
X-56788842Y-25938782D01*
X-56708030Y-26019594D01*
X-56681093Y-26100407D01*
X-56681093Y-26154281D01*
X-56708030Y-26235094D01*
X-56923529Y-26450593D01*
X-56627218Y-25669408D02*
X-56627218Y-25615533D01*
X-56600280Y-25534721D01*
X-56465593Y-25400034D01*
X-56384781Y-25373097D01*
X-56330906Y-25373097D01*
X-56250094Y-25400034D01*
X-56196219Y-25453909D01*
X-56142345Y-25561659D01*
X-56142345Y-26208156D01*
X-55792158Y-25857970D01*
X-55253410Y-25319222D02*
X-55576659Y-25642471D01*
X-55415035Y-25480846D02*
X-55980720Y-24915161D01*
X-55953783Y-25049848D01*
X-55953783Y-25157598D01*
X-55980720Y-25238410D01*
X-57462277Y-28980593D02*
X-57543089Y-29007530D01*
X-57623902Y-29088342D01*
X-57677776Y-29196092D01*
X-57677776Y-29303842D01*
X-57650839Y-29384654D01*
X-57570027Y-29519341D01*
X-57489215Y-29600153D01*
X-57354528Y-29680965D01*
X-57273715Y-29707903D01*
X-57165966Y-29707903D01*
X-57058216Y-29654028D01*
X-57004341Y-29600153D01*
X-56950467Y-29492403D01*
X-56950467Y-29438529D01*
X-57139028Y-29249967D01*
X-57246778Y-29357716D01*
X-56654155Y-29249967D02*
X-57219841Y-28684281D01*
X-57004341Y-28468782D01*
X-56923529Y-28441845D01*
X-56869654Y-28441845D01*
X-56788842Y-28468782D01*
X-56708030Y-28549594D01*
X-56681093Y-28630407D01*
X-56681093Y-28684281D01*
X-56708030Y-28765094D01*
X-56923529Y-28980593D01*
X-56627218Y-28199408D02*
X-56627218Y-28145533D01*
X-56600280Y-28064721D01*
X-56465593Y-27930034D01*
X-56384781Y-27903097D01*
X-56330906Y-27903097D01*
X-56250094Y-27930034D01*
X-56196219Y-27983909D01*
X-56142345Y-28091659D01*
X-56142345Y-28738156D01*
X-55792158Y-28387970D01*
X-56007658Y-27472098D02*
X-55953783Y-27418224D01*
X-55872971Y-27391286D01*
X-55819096Y-27391286D01*
X-55738284Y-27418224D01*
X-55603597Y-27499036D01*
X-55468910Y-27633723D01*
X-55388097Y-27768410D01*
X-55361160Y-27849222D01*
X-55361160Y-27903097D01*
X-55388097Y-27983909D01*
X-55441972Y-28037784D01*
X-55522784Y-28064721D01*
X-55576659Y-28064721D01*
X-55657471Y-28037784D01*
X-55792158Y-27956972D01*
X-55926845Y-27822285D01*
X-56007658Y-27687598D01*
X-56034595Y-27606785D01*
X-56034595Y-27552911D01*
X-56007658Y-27472098D01*
X-57462277Y-31520593D02*
X-57543089Y-31547530D01*
X-57623902Y-31628342D01*
X-57677776Y-31736092D01*
X-57677776Y-31843842D01*
X-57650839Y-31924654D01*
X-57570027Y-32059341D01*
X-57489215Y-32140153D01*
X-57354528Y-32220965D01*
X-57273715Y-32247903D01*
X-57165966Y-32247903D01*
X-57058216Y-32194028D01*
X-57004341Y-32140153D01*
X-56950467Y-32032403D01*
X-56950467Y-31978529D01*
X-57139028Y-31789967D01*
X-57246778Y-31897716D01*
X-56654155Y-31789967D02*
X-57219841Y-31224281D01*
X-57004341Y-31008782D01*
X-56923529Y-30981845D01*
X-56869654Y-30981845D01*
X-56788842Y-31008782D01*
X-56708030Y-31089594D01*
X-56681093Y-31170407D01*
X-56681093Y-31224281D01*
X-56708030Y-31305094D01*
X-56923529Y-31520593D01*
X-55792158Y-30927970D02*
X-56115407Y-31251219D01*
X-55953783Y-31089594D02*
X-56519468Y-30523909D01*
X-56492531Y-30658596D01*
X-56492531Y-30766346D01*
X-56519468Y-30847158D01*
X-55522784Y-30658596D02*
X-55415035Y-30550846D01*
X-55388097Y-30470034D01*
X-55388097Y-30416159D01*
X-55415035Y-30281472D01*
X-55495847Y-30146785D01*
X-55711346Y-29931286D01*
X-55792158Y-29904349D01*
X-55846033Y-29904349D01*
X-55926845Y-29931286D01*
X-56034595Y-30039036D01*
X-56061532Y-30119848D01*
X-56061532Y-30173723D01*
X-56034595Y-30254535D01*
X-55899908Y-30389222D01*
X-55819096Y-30416159D01*
X-55765221Y-30416159D01*
X-55684409Y-30389222D01*
X-55576659Y-30281472D01*
X-55549722Y-30200660D01*
X-55549722Y-30146785D01*
X-55576659Y-30065973D01*
X-57462277Y-34060593D02*
X-57543089Y-34087530D01*
X-57623902Y-34168342D01*
X-57677776Y-34276092D01*
X-57677776Y-34383842D01*
X-57650839Y-34464654D01*
X-57570027Y-34599341D01*
X-57489215Y-34680153D01*
X-57354528Y-34760965D01*
X-57273715Y-34787903D01*
X-57165966Y-34787903D01*
X-57058216Y-34734028D01*
X-57004341Y-34680153D01*
X-56950467Y-34572403D01*
X-56950467Y-34518529D01*
X-57139028Y-34329967D01*
X-57246778Y-34437716D01*
X-56654155Y-34329967D02*
X-57219841Y-33764281D01*
X-57004341Y-33548782D01*
X-56923529Y-33521845D01*
X-56869654Y-33521845D01*
X-56788842Y-33548782D01*
X-56708030Y-33629594D01*
X-56681093Y-33710407D01*
X-56681093Y-33764281D01*
X-56708030Y-33845094D01*
X-56923529Y-34060593D01*
X-55792158Y-33467970D02*
X-56115407Y-33791219D01*
X-55953783Y-33629594D02*
X-56519468Y-33063909D01*
X-56492531Y-33198596D01*
X-56492531Y-33306346D01*
X-56519468Y-33387158D01*
X-55792158Y-32821472D02*
X-55872971Y-32848410D01*
X-55926845Y-32848410D01*
X-56007658Y-32821472D01*
X-56034595Y-32794535D01*
X-56061532Y-32713723D01*
X-56061532Y-32659848D01*
X-56034595Y-32579036D01*
X-55926845Y-32471286D01*
X-55846033Y-32444349D01*
X-55792158Y-32444349D01*
X-55711346Y-32471286D01*
X-55684409Y-32498224D01*
X-55657471Y-32579036D01*
X-55657471Y-32632911D01*
X-55684409Y-32713723D01*
X-55792158Y-32821472D01*
X-55819096Y-32902285D01*
X-55819096Y-32956159D01*
X-55792158Y-33036972D01*
X-55684409Y-33144721D01*
X-55603597Y-33171659D01*
X-55549722Y-33171659D01*
X-55468910Y-33144721D01*
X-55361160Y-33036972D01*
X-55334223Y-32956159D01*
X-55334223Y-32902285D01*
X-55361160Y-32821472D01*
X-55468910Y-32713723D01*
X-55549722Y-32686785D01*
X-55603597Y-32686785D01*
X-55684409Y-32713723D01*
X-57462277Y-39140593D02*
X-57543089Y-39167530D01*
X-57623902Y-39248342D01*
X-57677776Y-39356092D01*
X-57677776Y-39463842D01*
X-57650839Y-39544654D01*
X-57570027Y-39679341D01*
X-57489215Y-39760153D01*
X-57354528Y-39840965D01*
X-57273715Y-39867903D01*
X-57165966Y-39867903D01*
X-57058216Y-39814028D01*
X-57004341Y-39760153D01*
X-56950467Y-39652403D01*
X-56950467Y-39598529D01*
X-57139028Y-39409967D01*
X-57246778Y-39517716D01*
X-56654155Y-39409967D02*
X-57219841Y-38844281D01*
X-57004341Y-38628782D01*
X-56923529Y-38601845D01*
X-56869654Y-38601845D01*
X-56788842Y-38628782D01*
X-56708030Y-38709594D01*
X-56681093Y-38790407D01*
X-56681093Y-38844281D01*
X-56708030Y-38925094D01*
X-56923529Y-39140593D01*
X-55792158Y-38547970D02*
X-56115407Y-38871219D01*
X-55953783Y-38709594D02*
X-56519468Y-38143909D01*
X-56492531Y-38278596D01*
X-56492531Y-38386346D01*
X-56519468Y-38467158D01*
X-56169282Y-37793723D02*
X-55792158Y-37416599D01*
X-55468910Y-38224721D01*
X-57462277Y-41680593D02*
X-57543089Y-41707530D01*
X-57623902Y-41788342D01*
X-57677776Y-41896092D01*
X-57677776Y-42003842D01*
X-57650839Y-42084654D01*
X-57570027Y-42219341D01*
X-57489215Y-42300153D01*
X-57354528Y-42380965D01*
X-57273715Y-42407903D01*
X-57165966Y-42407903D01*
X-57058216Y-42354028D01*
X-57004341Y-42300153D01*
X-56950467Y-42192403D01*
X-56950467Y-42138529D01*
X-57139028Y-41949967D01*
X-57246778Y-42057716D01*
X-56654155Y-41949967D02*
X-57219841Y-41384281D01*
X-57004341Y-41168782D01*
X-56923529Y-41141845D01*
X-56869654Y-41141845D01*
X-56788842Y-41168782D01*
X-56708030Y-41249594D01*
X-56681093Y-41330407D01*
X-56681093Y-41384281D01*
X-56708030Y-41465094D01*
X-56923529Y-41680593D01*
X-55792158Y-41087970D02*
X-56115407Y-41411219D01*
X-55953783Y-41249594D02*
X-56519468Y-40683909D01*
X-56492531Y-40818596D01*
X-56492531Y-40926346D01*
X-56519468Y-41007158D01*
X-55872971Y-40037411D02*
X-55980720Y-40145161D01*
X-56007658Y-40225973D01*
X-56007658Y-40279848D01*
X-55980720Y-40414535D01*
X-55899908Y-40549222D01*
X-55684409Y-40764721D01*
X-55603597Y-40791659D01*
X-55549722Y-40791659D01*
X-55468910Y-40764721D01*
X-55361160Y-40656972D01*
X-55334223Y-40576159D01*
X-55334223Y-40522285D01*
X-55361160Y-40441472D01*
X-55495847Y-40306785D01*
X-55576659Y-40279848D01*
X-55630534Y-40279848D01*
X-55711346Y-40306785D01*
X-55819096Y-40414535D01*
X-55846033Y-40495347D01*
X-55846033Y-40549222D01*
X-55819096Y-40630034D01*
X-83570277Y-41680593D02*
X-83651089Y-41707530D01*
X-83731902Y-41788342D01*
X-83785776Y-41896092D01*
X-83785776Y-42003842D01*
X-83758839Y-42084654D01*
X-83678027Y-42219341D01*
X-83597215Y-42300153D01*
X-83462528Y-42380965D01*
X-83381715Y-42407903D01*
X-83273966Y-42407903D01*
X-83166216Y-42354028D01*
X-83112341Y-42300153D01*
X-83058467Y-42192403D01*
X-83058467Y-42138529D01*
X-83247028Y-41949967D01*
X-83354778Y-42057716D01*
X-82762155Y-41949967D02*
X-83327841Y-41384281D01*
X-83112341Y-41168782D01*
X-83031529Y-41141845D01*
X-82977654Y-41141845D01*
X-82896842Y-41168782D01*
X-82816030Y-41249594D01*
X-82789093Y-41330407D01*
X-82789093Y-41384281D01*
X-82816030Y-41465094D01*
X-83031529Y-41680593D01*
X-81900158Y-41087970D02*
X-82223407Y-41411219D01*
X-82061783Y-41249594D02*
X-82627468Y-40683909D01*
X-82600531Y-40818596D01*
X-82600531Y-40926346D01*
X-82627468Y-41007158D01*
X-81954033Y-40010474D02*
X-82223407Y-40279848D01*
X-81980971Y-40576159D01*
X-81980971Y-40522285D01*
X-81954033Y-40441472D01*
X-81819346Y-40306785D01*
X-81738534Y-40279848D01*
X-81684659Y-40279848D01*
X-81603847Y-40306785D01*
X-81469160Y-40441472D01*
X-81442223Y-40522285D01*
X-81442223Y-40576159D01*
X-81469160Y-40656972D01*
X-81603847Y-40791659D01*
X-81684659Y-40818596D01*
X-81738534Y-40818596D01*
X-83616277Y-39140593D02*
X-83697089Y-39167530D01*
X-83777902Y-39248342D01*
X-83831776Y-39356092D01*
X-83831776Y-39463842D01*
X-83804839Y-39544654D01*
X-83724027Y-39679341D01*
X-83643215Y-39760153D01*
X-83508528Y-39840965D01*
X-83427715Y-39867903D01*
X-83319966Y-39867903D01*
X-83212216Y-39814028D01*
X-83158341Y-39760153D01*
X-83104467Y-39652403D01*
X-83104467Y-39598529D01*
X-83293028Y-39409967D01*
X-83400778Y-39517716D01*
X-82808155Y-39409967D02*
X-83373841Y-38844281D01*
X-83158341Y-38628782D01*
X-83077529Y-38601845D01*
X-83023654Y-38601845D01*
X-82942842Y-38628782D01*
X-82862030Y-38709594D01*
X-82835093Y-38790407D01*
X-82835093Y-38844281D01*
X-82862030Y-38925094D01*
X-83077529Y-39140593D01*
X-81946158Y-38547970D02*
X-82269407Y-38871219D01*
X-82107783Y-38709594D02*
X-82673468Y-38143909D01*
X-82646531Y-38278596D01*
X-82646531Y-38386346D01*
X-82673468Y-38467158D01*
X-81838409Y-37685973D02*
X-81461285Y-38063097D01*
X-82188595Y-37605161D02*
X-81919221Y-38143909D01*
X-81569035Y-37793723D01*
X-83570277Y-34060593D02*
X-83651089Y-34087530D01*
X-83731902Y-34168342D01*
X-83785776Y-34276092D01*
X-83785776Y-34383842D01*
X-83758839Y-34464654D01*
X-83678027Y-34599341D01*
X-83597215Y-34680153D01*
X-83462528Y-34760965D01*
X-83381715Y-34787903D01*
X-83273966Y-34787903D01*
X-83166216Y-34734028D01*
X-83112341Y-34680153D01*
X-83058467Y-34572403D01*
X-83058467Y-34518529D01*
X-83247028Y-34329967D01*
X-83354778Y-34437716D01*
X-82762155Y-34329967D02*
X-83327841Y-33764281D01*
X-83112341Y-33548782D01*
X-83031529Y-33521845D01*
X-82977654Y-33521845D01*
X-82896842Y-33548782D01*
X-82816030Y-33629594D01*
X-82789093Y-33710407D01*
X-82789093Y-33764281D01*
X-82816030Y-33845094D01*
X-83031529Y-34060593D01*
X-81900158Y-33467970D02*
X-82223407Y-33791219D01*
X-82061783Y-33629594D02*
X-82627468Y-33063909D01*
X-82600531Y-33198596D01*
X-82600531Y-33306346D01*
X-82627468Y-33387158D01*
X-82277282Y-32713723D02*
X-81927096Y-32363537D01*
X-81900158Y-32767598D01*
X-81819346Y-32686785D01*
X-81738534Y-32659848D01*
X-81684659Y-32659848D01*
X-81603847Y-32686785D01*
X-81469160Y-32821472D01*
X-81442223Y-32902285D01*
X-81442223Y-32956159D01*
X-81469160Y-33036972D01*
X-81630784Y-33198596D01*
X-81711597Y-33225533D01*
X-81765471Y-33225533D01*
X-83716277Y-31520593D02*
X-83797089Y-31547530D01*
X-83877902Y-31628342D01*
X-83931776Y-31736092D01*
X-83931776Y-31843842D01*
X-83904839Y-31924654D01*
X-83824027Y-32059341D01*
X-83743215Y-32140153D01*
X-83608528Y-32220965D01*
X-83527715Y-32247903D01*
X-83419966Y-32247903D01*
X-83312216Y-32194028D01*
X-83258341Y-32140153D01*
X-83204467Y-32032403D01*
X-83204467Y-31978529D01*
X-83393028Y-31789967D01*
X-83500778Y-31897716D01*
X-82908155Y-31789967D02*
X-83473841Y-31224281D01*
X-83258341Y-31008782D01*
X-83177529Y-30981845D01*
X-83123654Y-30981845D01*
X-83042842Y-31008782D01*
X-82962030Y-31089594D01*
X-82935093Y-31170407D01*
X-82935093Y-31224281D01*
X-82962030Y-31305094D01*
X-83177529Y-31520593D01*
X-82046158Y-30927970D02*
X-82369407Y-31251219D01*
X-82207783Y-31089594D02*
X-82773468Y-30523909D01*
X-82746531Y-30658596D01*
X-82746531Y-30766346D01*
X-82773468Y-30847158D01*
X-82342470Y-30200660D02*
X-82342470Y-30146785D01*
X-82315532Y-30065973D01*
X-82180845Y-29931286D01*
X-82100033Y-29904349D01*
X-82046158Y-29904349D01*
X-81965346Y-29931286D01*
X-81911471Y-29985161D01*
X-81857597Y-30092911D01*
X-81857597Y-30739408D01*
X-81507410Y-30389222D01*
X-83716277Y-28980593D02*
X-83797089Y-29007530D01*
X-83877902Y-29088342D01*
X-83931776Y-29196092D01*
X-83931776Y-29303842D01*
X-83904839Y-29384654D01*
X-83824027Y-29519341D01*
X-83743215Y-29600153D01*
X-83608528Y-29680965D01*
X-83527715Y-29707903D01*
X-83419966Y-29707903D01*
X-83312216Y-29654028D01*
X-83258341Y-29600153D01*
X-83204467Y-29492403D01*
X-83204467Y-29438529D01*
X-83393028Y-29249967D01*
X-83500778Y-29357716D01*
X-82908155Y-29249967D02*
X-83473841Y-28684281D01*
X-83258341Y-28468782D01*
X-83177529Y-28441845D01*
X-83123654Y-28441845D01*
X-83042842Y-28468782D01*
X-82962030Y-28549594D01*
X-82935093Y-28630407D01*
X-82935093Y-28684281D01*
X-82962030Y-28765094D01*
X-83177529Y-28980593D01*
X-82046158Y-28387970D02*
X-82369407Y-28711219D01*
X-82207783Y-28549594D02*
X-82773468Y-27983909D01*
X-82746531Y-28118596D01*
X-82746531Y-28226346D01*
X-82773468Y-28307158D01*
X-81507410Y-27849222D02*
X-81830659Y-28172471D01*
X-81669035Y-28010846D02*
X-82234720Y-27445161D01*
X-82207783Y-27579848D01*
X-82207783Y-27687598D01*
X-82234720Y-27768410D01*
X-83570277Y-26440593D02*
X-83651089Y-26467530D01*
X-83731902Y-26548342D01*
X-83785776Y-26656092D01*
X-83785776Y-26763842D01*
X-83758839Y-26844654D01*
X-83678027Y-26979341D01*
X-83597215Y-27060153D01*
X-83462528Y-27140965D01*
X-83381715Y-27167903D01*
X-83273966Y-27167903D01*
X-83166216Y-27114028D01*
X-83112341Y-27060153D01*
X-83058467Y-26952403D01*
X-83058467Y-26898529D01*
X-83247028Y-26709967D01*
X-83354778Y-26817716D01*
X-82762155Y-26709967D02*
X-83327841Y-26144281D01*
X-83112341Y-25928782D01*
X-83031529Y-25901845D01*
X-82977654Y-25901845D01*
X-82896842Y-25928782D01*
X-82816030Y-26009594D01*
X-82789093Y-26090407D01*
X-82789093Y-26144281D01*
X-82816030Y-26225094D01*
X-83031529Y-26440593D01*
X-81900158Y-25847970D02*
X-82223407Y-26171219D01*
X-82061783Y-26009594D02*
X-82627468Y-25443909D01*
X-82600531Y-25578596D01*
X-82600531Y-25686346D01*
X-82627468Y-25767158D01*
X-82115658Y-24932098D02*
X-82061783Y-24878224D01*
X-81980971Y-24851286D01*
X-81927096Y-24851286D01*
X-81846284Y-24878224D01*
X-81711597Y-24959036D01*
X-81576910Y-25093723D01*
X-81496097Y-25228410D01*
X-81469160Y-25309222D01*
X-81469160Y-25363097D01*
X-81496097Y-25443909D01*
X-81549972Y-25497784D01*
X-81630784Y-25524721D01*
X-81684659Y-25524721D01*
X-81765471Y-25497784D01*
X-81900158Y-25416972D01*
X-82034845Y-25282285D01*
X-82115658Y-25147598D01*
X-82142595Y-25066785D01*
X-82142595Y-25012911D01*
X-82115658Y-24932098D01*
X-83046903Y-21091219D02*
X-83127715Y-21118156D01*
X-83208528Y-21198968D01*
X-83262402Y-21306718D01*
X-83262402Y-21414468D01*
X-83235465Y-21495280D01*
X-83154653Y-21629967D01*
X-83073841Y-21710779D01*
X-82939154Y-21791591D01*
X-82858341Y-21818529D01*
X-82750592Y-21818529D01*
X-82642842Y-21764654D01*
X-82588967Y-21710779D01*
X-82535093Y-21603029D01*
X-82535093Y-21549155D01*
X-82723654Y-21360593D01*
X-82831404Y-21468342D01*
X-82238781Y-21360593D02*
X-82804467Y-20794907D01*
X-82588967Y-20579408D01*
X-82508155Y-20552471D01*
X-82454280Y-20552471D01*
X-82373468Y-20579408D01*
X-82292656Y-20660220D01*
X-82265719Y-20741033D01*
X-82265719Y-20794907D01*
X-82292656Y-20875720D01*
X-82508155Y-21091219D01*
X-81646158Y-20767970D02*
X-81538409Y-20660220D01*
X-81511471Y-20579408D01*
X-81511471Y-20525533D01*
X-81538409Y-20390846D01*
X-81619221Y-20256159D01*
X-81834720Y-20040660D01*
X-81915532Y-20013723D01*
X-81969407Y-20013723D01*
X-82050219Y-20040660D01*
X-82157969Y-20148410D01*
X-82184906Y-20229222D01*
X-82184906Y-20283097D01*
X-82157969Y-20363909D01*
X-82023282Y-20498596D01*
X-81942470Y-20525533D01*
X-81888595Y-20525533D01*
X-81807783Y-20498596D01*
X-81700033Y-20390846D01*
X-81673096Y-20310034D01*
X-81673096Y-20256159D01*
X-81700033Y-20175347D01*
X-83046903Y-18551219D02*
X-83127715Y-18578156D01*
X-83208528Y-18658968D01*
X-83262402Y-18766718D01*
X-83262402Y-18874468D01*
X-83235465Y-18955280D01*
X-83154653Y-19089967D01*
X-83073841Y-19170779D01*
X-82939154Y-19251591D01*
X-82858341Y-19278529D01*
X-82750592Y-19278529D01*
X-82642842Y-19224654D01*
X-82588967Y-19170779D01*
X-82535093Y-19063029D01*
X-82535093Y-19009155D01*
X-82723654Y-18820593D01*
X-82831404Y-18928342D01*
X-82238781Y-18820593D02*
X-82804467Y-18254907D01*
X-82588967Y-18039408D01*
X-82508155Y-18012471D01*
X-82454280Y-18012471D01*
X-82373468Y-18039408D01*
X-82292656Y-18120220D01*
X-82265719Y-18201033D01*
X-82265719Y-18254907D01*
X-82292656Y-18335720D01*
X-82508155Y-18551219D01*
X-81915532Y-17850846D02*
X-81996345Y-17877784D01*
X-82050219Y-17877784D01*
X-82131032Y-17850846D01*
X-82157969Y-17823909D01*
X-82184906Y-17743097D01*
X-82184906Y-17689222D01*
X-82157969Y-17608410D01*
X-82050219Y-17500660D01*
X-81969407Y-17473723D01*
X-81915532Y-17473723D01*
X-81834720Y-17500660D01*
X-81807783Y-17527598D01*
X-81780845Y-17608410D01*
X-81780845Y-17662285D01*
X-81807783Y-17743097D01*
X-81915532Y-17850846D01*
X-81942470Y-17931659D01*
X-81942470Y-17985533D01*
X-81915532Y-18066346D01*
X-81807783Y-18174095D01*
X-81726971Y-18201033D01*
X-81673096Y-18201033D01*
X-81592284Y-18174095D01*
X-81484534Y-18066346D01*
X-81457597Y-17985533D01*
X-81457597Y-17931659D01*
X-81484534Y-17850846D01*
X-81592284Y-17743097D01*
X-81673096Y-17716159D01*
X-81726971Y-17716159D01*
X-81807783Y-17743097D01*
X-82946903Y-15981219D02*
X-83027715Y-16008156D01*
X-83108528Y-16088968D01*
X-83162402Y-16196718D01*
X-83162402Y-16304468D01*
X-83135465Y-16385280D01*
X-83054653Y-16519967D01*
X-82973841Y-16600779D01*
X-82839154Y-16681591D01*
X-82758341Y-16708529D01*
X-82650592Y-16708529D01*
X-82542842Y-16654654D01*
X-82488967Y-16600779D01*
X-82435093Y-16493029D01*
X-82435093Y-16439155D01*
X-82623654Y-16250593D01*
X-82731404Y-16358342D01*
X-82138781Y-16250593D02*
X-82704467Y-15684907D01*
X-82488967Y-15469408D01*
X-82408155Y-15442471D01*
X-82354280Y-15442471D01*
X-82273468Y-15469408D01*
X-82192656Y-15550220D01*
X-82165719Y-15631033D01*
X-82165719Y-15684907D01*
X-82192656Y-15765720D01*
X-82408155Y-15981219D01*
X-82192656Y-15173097D02*
X-81815532Y-14795973D01*
X-81492284Y-15604095D01*
X-83046903Y-13471219D02*
X-83127715Y-13498156D01*
X-83208528Y-13578968D01*
X-83262402Y-13686718D01*
X-83262402Y-13794468D01*
X-83235465Y-13875280D01*
X-83154653Y-14009967D01*
X-83073841Y-14090779D01*
X-82939154Y-14171591D01*
X-82858341Y-14198529D01*
X-82750592Y-14198529D01*
X-82642842Y-14144654D01*
X-82588967Y-14090779D01*
X-82535093Y-13983029D01*
X-82535093Y-13929155D01*
X-82723654Y-13740593D01*
X-82831404Y-13848342D01*
X-82238781Y-13740593D02*
X-82804467Y-13174907D01*
X-82588967Y-12959408D01*
X-82508155Y-12932471D01*
X-82454280Y-12932471D01*
X-82373468Y-12959408D01*
X-82292656Y-13040220D01*
X-82265719Y-13121033D01*
X-82265719Y-13174907D01*
X-82292656Y-13255720D01*
X-82508155Y-13471219D01*
X-81996345Y-12366785D02*
X-82104094Y-12474535D01*
X-82131032Y-12555347D01*
X-82131032Y-12609222D01*
X-82104094Y-12743909D01*
X-82023282Y-12878596D01*
X-81807783Y-13094095D01*
X-81726971Y-13121033D01*
X-81673096Y-13121033D01*
X-81592284Y-13094095D01*
X-81484534Y-12986346D01*
X-81457597Y-12905533D01*
X-81457597Y-12851659D01*
X-81484534Y-12770846D01*
X-81619221Y-12636159D01*
X-81700033Y-12609222D01*
X-81753908Y-12609222D01*
X-81834720Y-12636159D01*
X-81942470Y-12743909D01*
X-81969407Y-12824721D01*
X-81969407Y-12878596D01*
X-81942470Y-12959408D01*
X-83046903Y-8391219D02*
X-83127715Y-8418156D01*
X-83208528Y-8498968D01*
X-83262402Y-8606718D01*
X-83262402Y-8714468D01*
X-83235465Y-8795280D01*
X-83154653Y-8929967D01*
X-83073841Y-9010779D01*
X-82939154Y-9091591D01*
X-82858341Y-9118529D01*
X-82750592Y-9118529D01*
X-82642842Y-9064654D01*
X-82588967Y-9010779D01*
X-82535093Y-8903029D01*
X-82535093Y-8849155D01*
X-82723654Y-8660593D01*
X-82831404Y-8768342D01*
X-82238781Y-8660593D02*
X-82804467Y-8094907D01*
X-82588967Y-7879408D01*
X-82508155Y-7852471D01*
X-82454280Y-7852471D01*
X-82373468Y-7879408D01*
X-82292656Y-7960220D01*
X-82265719Y-8041033D01*
X-82265719Y-8094907D01*
X-82292656Y-8175720D01*
X-82508155Y-8391219D01*
X-81969407Y-7259848D02*
X-82238781Y-7529222D01*
X-81996345Y-7825533D01*
X-81996345Y-7771659D01*
X-81969407Y-7690846D01*
X-81834720Y-7556159D01*
X-81753908Y-7529222D01*
X-81700033Y-7529222D01*
X-81619221Y-7556159D01*
X-81484534Y-7690846D01*
X-81457597Y-7771659D01*
X-81457597Y-7825533D01*
X-81484534Y-7906346D01*
X-81619221Y-8041033D01*
X-81700033Y-8067970D01*
X-81753908Y-8067970D01*
X-83046903Y-5851219D02*
X-83127715Y-5878156D01*
X-83208528Y-5958968D01*
X-83262402Y-6066718D01*
X-83262402Y-6174468D01*
X-83235465Y-6255280D01*
X-83154653Y-6389967D01*
X-83073841Y-6470779D01*
X-82939154Y-6551591D01*
X-82858341Y-6578529D01*
X-82750592Y-6578529D01*
X-82642842Y-6524654D01*
X-82588967Y-6470779D01*
X-82535093Y-6363029D01*
X-82535093Y-6309155D01*
X-82723654Y-6120593D01*
X-82831404Y-6228342D01*
X-82238781Y-6120593D02*
X-82804467Y-5554907D01*
X-82588967Y-5339408D01*
X-82508155Y-5312471D01*
X-82454280Y-5312471D01*
X-82373468Y-5339408D01*
X-82292656Y-5420220D01*
X-82265719Y-5501033D01*
X-82265719Y-5554907D01*
X-82292656Y-5635720D01*
X-82508155Y-5851219D01*
X-81807783Y-4935347D02*
X-81430659Y-5312471D01*
X-82157969Y-4854535D02*
X-81888595Y-5393283D01*
X-81538409Y-5043097D01*
X-83046903Y-3311219D02*
X-83127715Y-3338156D01*
X-83208528Y-3418968D01*
X-83262402Y-3526718D01*
X-83262402Y-3634468D01*
X-83235465Y-3715280D01*
X-83154653Y-3849967D01*
X-83073841Y-3930779D01*
X-82939154Y-4011591D01*
X-82858341Y-4038529D01*
X-82750592Y-4038529D01*
X-82642842Y-3984654D01*
X-82588967Y-3930779D01*
X-82535093Y-3823029D01*
X-82535093Y-3769155D01*
X-82723654Y-3580593D01*
X-82831404Y-3688342D01*
X-82238781Y-3580593D02*
X-82804467Y-3014907D01*
X-82588967Y-2799408D01*
X-82508155Y-2772471D01*
X-82454280Y-2772471D01*
X-82373468Y-2799408D01*
X-82292656Y-2880220D01*
X-82265719Y-2961033D01*
X-82265719Y-3014907D01*
X-82292656Y-3095720D01*
X-82508155Y-3311219D01*
X-82292656Y-2503097D02*
X-81942470Y-2152911D01*
X-81915532Y-2556972D01*
X-81834720Y-2476159D01*
X-81753908Y-2449222D01*
X-81700033Y-2449222D01*
X-81619221Y-2476159D01*
X-81484534Y-2610846D01*
X-81457597Y-2691659D01*
X-81457597Y-2745533D01*
X-81484534Y-2826346D01*
X-81646158Y-2987970D01*
X-81726971Y-3014907D01*
X-81780845Y-3014907D01*
X-83046903Y6848780D02*
X-83127715Y6821843D01*
X-83208528Y6741031D01*
X-83262402Y6633281D01*
X-83262402Y6525531D01*
X-83235465Y6444719D01*
X-83154653Y6310032D01*
X-83073841Y6229220D01*
X-82939154Y6148408D01*
X-82858341Y6121470D01*
X-82750592Y6121470D01*
X-82642842Y6175345D01*
X-82588967Y6229220D01*
X-82535093Y6336970D01*
X-82535093Y6390844D01*
X-82723654Y6579406D01*
X-82831404Y6471657D01*
X-82238781Y6579406D02*
X-82804467Y7145092D01*
X-82588967Y7360591D01*
X-82508155Y7387528D01*
X-82454280Y7387528D01*
X-82373468Y7360591D01*
X-82292656Y7279779D01*
X-82265719Y7198966D01*
X-82265719Y7145092D01*
X-82292656Y7064279D01*
X-82508155Y6848780D01*
X-82131032Y7818527D02*
X-82077157Y7872401D01*
X-81996345Y7899339D01*
X-81942470Y7899339D01*
X-81861658Y7872401D01*
X-81726971Y7791589D01*
X-81592284Y7656902D01*
X-81511471Y7522215D01*
X-81484534Y7441403D01*
X-81484534Y7387528D01*
X-81511471Y7306716D01*
X-81565346Y7252841D01*
X-81646158Y7225904D01*
X-81700033Y7225904D01*
X-81780845Y7252841D01*
X-81915532Y7333653D01*
X-82050219Y7468340D01*
X-82131032Y7603027D01*
X-82157969Y7683840D01*
X-82157969Y7737714D01*
X-82131032Y7818527D01*
X-83146903Y-771219D02*
X-83227715Y-798156D01*
X-83308528Y-878968D01*
X-83362402Y-986718D01*
X-83362402Y-1094468D01*
X-83335465Y-1175280D01*
X-83254653Y-1309967D01*
X-83173841Y-1390779D01*
X-83039154Y-1471591D01*
X-82958341Y-1498529D01*
X-82850592Y-1498529D01*
X-82742842Y-1444654D01*
X-82688967Y-1390779D01*
X-82635093Y-1283029D01*
X-82635093Y-1229155D01*
X-82823654Y-1040593D01*
X-82931404Y-1148342D01*
X-82338781Y-1040593D02*
X-82904467Y-474907D01*
X-82688967Y-259408D01*
X-82608155Y-232471D01*
X-82554280Y-232471D01*
X-82473468Y-259408D01*
X-82392656Y-340220D01*
X-82365719Y-421033D01*
X-82365719Y-474907D01*
X-82392656Y-555720D01*
X-82608155Y-771219D01*
X-82311844Y9965D02*
X-82311844Y63840D01*
X-82284906Y144652D01*
X-82150219Y279339D01*
X-82069407Y306276D01*
X-82015532Y306276D01*
X-81934720Y279339D01*
X-81880845Y225464D01*
X-81826971Y117714D01*
X-81826971Y-528782D01*
X-81476784Y-178596D01*
X-83146903Y4318780D02*
X-83227715Y4291843D01*
X-83308528Y4211031D01*
X-83362402Y4103281D01*
X-83362402Y3995531D01*
X-83335465Y3914719D01*
X-83254653Y3780032D01*
X-83173841Y3699220D01*
X-83039154Y3618408D01*
X-82958341Y3591470D01*
X-82850592Y3591470D01*
X-82742842Y3645345D01*
X-82688967Y3699220D01*
X-82635093Y3806970D01*
X-82635093Y3860844D01*
X-82823654Y4049406D01*
X-82931404Y3941657D01*
X-82338781Y4049406D02*
X-82904467Y4615092D01*
X-82688967Y4830591D01*
X-82608155Y4857528D01*
X-82554280Y4857528D01*
X-82473468Y4830591D01*
X-82392656Y4749779D01*
X-82365719Y4668966D01*
X-82365719Y4615092D01*
X-82392656Y4534279D01*
X-82608155Y4318780D01*
X-81476784Y4911403D02*
X-81800033Y4588154D01*
X-81638409Y4749779D02*
X-82204094Y5315464D01*
X-82177157Y5180777D01*
X-82177157Y5073027D01*
X-82204094Y4992215D01*
X-18033333Y-5482380D02*
X-18033333Y-6196666D01*
X-18080952Y-6339523D01*
X-18176190Y-6434761D01*
X-18319047Y-6482380D01*
X-18414285Y-6482380D01*
X-17604761Y-5577619D02*
X-17557142Y-5530000D01*
X-17461904Y-5482380D01*
X-17223809Y-5482380D01*
X-17128571Y-5530000D01*
X-17080952Y-5577619D01*
X-17033333Y-5672857D01*
X-17033333Y-5768095D01*
X-17080952Y-5910952D01*
X-17652380Y-6482380D01*
X-17033333Y-6482380D01*
X-75077619Y-50733333D02*
X-74363333Y-50733333D01*
X-74220476Y-50780952D01*
X-74125238Y-50876190D01*
X-74077619Y-51019047D01*
X-74077619Y-51114285D01*
X-74077619Y-49733333D02*
X-74077619Y-50304761D01*
X-74077619Y-50019047D02*
X-75077619Y-50019047D01*
X-74934761Y-50114285D01*
X-74839523Y-50209523D01*
X-74791904Y-50304761D01*
M02*
