M48
; DRILL file {KiCad 5.1.5+dfsg1-2build2} date Sat 12 Jun 2021 17:40:16 BST
; FORMAT={-:-/ absolute / inch / decimal}
; #@! TF.CreationDate,2021-06-12T17:40:16+01:00
; #@! TF.GenerationSoftware,Kicad,Pcbnew,5.1.5+dfsg1-2build2
; #@! TF.FileFunction,Plated,1,2,PTH
FMAT,2
INCH
T1C0.0157
T2C0.0394
T3C0.0402
%
G90
G05
T1
X-2.9921Y0.0157
X-2.9636Y-0.6732
X-2.9528Y-0.5906
X-2.5433Y-0.7913
X-2.5148Y-0.8661
X-2.5148Y-1.1732
X-2.252Y-0.6811
X-2.248Y-0.1102
X-2.2195Y-0.1457
X-2.2195Y-0.5866
X-2.1929Y-0.7638
X-2.1909Y-0.2323
X-2.1614Y-0.8465
X-2.1535Y-0.3228
X-2.1339Y-1.2126
X-2.125Y-0.5197
X-2.1102Y0.1772
X-2.1102Y-0.2835
X-2.0965Y-0.626
X-2.0709Y0.2677
X-2.0709Y-0.3504
X-2.0669Y-0.7244
X-2.0315Y-0.815
X-2.003Y-0.9331
X-2.0Y-1.0315
X-1.9882Y-1.1457
X-1.7711Y-1.6457
X-1.7638Y-1.2402
X-1.7087Y-1.5394
X-1.7075Y-1.3683
X-1.7047Y0.0
X-1.3898Y-0.1772
T2
X-2.8425Y-1.9843
X-2.7425Y-1.9843
X-2.6425Y-1.9843
X-2.5425Y-1.9843
X-2.4425Y-1.9843
X-2.3425Y-1.9843
X-2.2425Y-1.9843
X-2.1425Y-1.9843
X-2.0425Y-1.9843
X-1.9425Y-1.9843
X-1.8425Y-1.9843
X-1.7425Y-1.9843
X-1.6425Y-1.9843
X-1.5425Y-1.9843
X-1.4425Y-1.9843
X-0.6969Y-0.3291
X-0.6969Y-0.4291
X-0.6969Y-0.5291
X-0.6969Y-0.6291
X-0.6969Y-0.7291
X-0.6969Y-0.8291
X-0.6969Y-0.9291
X-0.6969Y-1.0291
X-0.6969Y-1.1291
X-0.6969Y-1.2291
X-0.6969Y-1.3291
X-0.6969Y-1.4291
X-0.6969Y-1.5291
X-0.6969Y-1.6291
X-0.6969Y-1.7291
T3
X-1.8382Y0.2728
X-1.8382Y0.1728
X-1.8382Y0.0728
X-1.8382Y-0.0272
X-1.8382Y-0.1272
X-1.8382Y-0.2272
X-1.8382Y-0.3272
X-1.8382Y-0.4272
X-1.8382Y-0.5272
X-1.8382Y-0.6272
X-1.8382Y-0.7272
X-1.8382Y-0.8272
X-1.8382Y-0.9272
X-1.8382Y-1.0272
X-1.8382Y-1.1272
X-1.8382Y-1.2272
X-1.8382Y-1.3272
X-1.8382Y-1.4272
X-1.8382Y-1.5272
X-1.8382Y-1.6272
X-1.5882Y-1.6181
X-1.4882Y-1.6181
X-1.3882Y-1.6181
X-1.1382Y0.2728
X-1.1382Y0.1728
X-1.1382Y0.0728
X-1.1382Y-0.0272
X-1.1382Y-0.1272
X-1.1382Y-0.2272
X-1.1382Y-0.3272
X-1.1382Y-0.4272
X-1.1382Y-0.5272
X-1.1382Y-0.6272
X-1.1382Y-0.7272
X-1.1382Y-0.8272
X-1.1382Y-0.9272
X-1.1382Y-1.0272
X-1.1382Y-1.1272
X-1.1382Y-1.2272
X-1.1382Y-1.3272
X-1.1382Y-1.4272
X-1.1382Y-1.5272
X-1.1382Y-1.6272
X-3.0886Y0.2744
X-3.0886Y0.1744
X-3.0886Y0.0744
X-3.0886Y-0.0256
X-3.0886Y-0.1256
X-3.0886Y-0.2256
X-3.0886Y-0.3256
X-3.0886Y-0.4256
X-3.0886Y-0.5256
X-3.0886Y-0.6256
X-3.0886Y-0.7256
X-3.0886Y-0.8256
X-3.0886Y-0.9256
X-3.0886Y-1.0256
X-3.0886Y-1.1256
X-3.0886Y-1.2256
X-3.0886Y-1.3256
X-3.0886Y-1.4256
X-3.0886Y-1.5256
X-3.0886Y-1.6256
X-2.8386Y-1.6165
X-2.7386Y-1.6165
X-2.6386Y-1.6165
X-2.3886Y0.2744
X-2.3886Y0.1744
X-2.3886Y0.0744
X-2.3886Y-0.0256
X-2.3886Y-0.1256
X-2.3886Y-0.2256
X-2.3886Y-0.3256
X-2.3886Y-0.4256
X-2.3886Y-0.5256
X-2.3886Y-0.6256
X-2.3886Y-0.7256
X-2.3886Y-0.8256
X-2.3886Y-0.9256
X-2.3886Y-1.0256
X-2.3886Y-1.1256
X-2.3886Y-1.2256
X-2.3886Y-1.3256
X-2.3886Y-1.4256
X-2.3886Y-1.5256
X-2.3886Y-1.6256
T0
M30
